<svg width="50" height="50" viewBox="0 0 50 50" fill="none" xmlns="http://www.w3.org/2000/svg">
<path d="M40.625 32.8125V31.25C40.625 30.8356 40.7896 30.4382 41.0826 30.1451C41.3756 29.8521 41.7731 29.6875 42.1875 29.6875C42.6019 29.6875 42.9993 29.8521 43.2923 30.1451C43.5854 30.4382 43.75 30.8356 43.75 31.25V46.875H46.875V31.25C46.8737 30.0072 46.3795 28.8156 45.5007 27.9368C44.6219 27.058 43.4303 26.5637 42.1875 26.5625C41.3803 26.5676 40.5885 26.7836 39.8906 27.1891C39.2581 26.1652 38.2508 25.4289 37.0833 25.1371C35.9158 24.8452 34.6805 25.0208 33.6406 25.6266C33.2203 24.9574 32.6373 24.4057 31.946 24.0229C31.2547 23.6401 30.4777 23.4387 29.6875 23.4375C29.1539 23.443 28.6252 23.5408 28.125 23.7266V15.625C28.125 14.3818 27.6311 13.1895 26.752 12.3104C25.873 11.4314 24.6807 10.9375 23.4375 10.9375C22.1943 10.9375 21.002 11.4314 20.1229 12.3104C19.2438 13.1895 18.75 14.3818 18.75 15.625V32.9766L15.2578 30.5859C14.3036 29.8887 13.1212 29.5793 11.9475 29.7169C10.7738 29.8545 9.69538 30.4305 8.92834 31.3295C8.16131 32.2286 7.76229 33.3842 7.81121 34.565C7.86013 35.7457 8.35338 36.8644 9.19216 37.6969L19.2547 46.875L21.3593 44.5656L11.3937 35.475C11.2488 35.3309 11.1338 35.1595 11.0555 34.9707C10.9772 34.7819 10.9371 34.5794 10.9375 34.375C10.9375 34.0848 11.0183 33.8004 11.1708 33.5535C11.3234 33.3067 11.5417 33.1072 11.8012 32.9775C12.0607 32.8477 12.3513 32.7928 12.6403 32.8188C12.9293 32.8449 13.2053 32.9509 13.4375 33.125L21.875 38.8984V15.625C21.875 15.2106 22.0396 14.8132 22.3326 14.5201C22.6256 14.2271 23.0231 14.0625 23.4375 14.0625C23.8519 14.0625 24.2493 14.2271 24.5423 14.5201C24.8353 14.8132 25 15.2106 25 15.625V32.8125H28.125V28.125C28.125 27.7106 28.2896 27.3132 28.5826 27.0201C28.8756 26.7271 29.2731 26.5625 29.6875 26.5625C30.1019 26.5625 30.4993 26.7271 30.7923 27.0201C31.0854 27.3132 31.25 27.7106 31.25 28.125V32.8125H34.375V29.6875C34.375 29.2731 34.5396 28.8757 34.8326 28.5826C35.1256 28.2896 35.5231 28.125 35.9375 28.125C36.3519 28.125 36.7493 28.2896 37.0423 28.5826C37.3354 28.8757 37.5 29.2731 37.5 29.6875V32.8125H40.625Z" fill="#C01B50"/>
<path d="M43.75 18.75H34.375V15.625H43.75V6.25H6.25V15.625H12.5V18.75H6.25C5.42145 18.7492 4.62708 18.4197 4.0412 17.8338C3.45533 17.2479 3.12583 16.4535 3.125 15.625V6.25C3.12583 5.42145 3.45533 4.62708 4.0412 4.0412C4.62708 3.45533 5.42145 3.12583 6.25 3.125H43.75C44.5785 3.12583 45.3729 3.45533 45.9588 4.0412C46.5447 4.62708 46.8742 5.42145 46.875 6.25V15.625C46.8742 16.4535 46.5447 17.2479 45.9588 17.8338C45.3729 18.4197 44.5785 18.7492 43.75 18.75Z" fill="#494949"/>
</svg>
