<svg width="50" height="50" viewBox="0 0 50 50" fill="none" xmlns="http://www.w3.org/2000/svg">
<g clip-path="url(#clip0_1968_2189)">
<path fill-rule="evenodd" clip-rule="evenodd" d="M25.0001 27.5001V15.0001H22.5001V27.5001H25.0001ZM24.3751 39.9805C24.1797 39.9935 23.9714 40.0001 23.7501 40.0001C22.2657 40.0131 20.8269 39.8178 19.4336 39.4141C18.0404 39.0105 16.7448 38.4636 15.5469 37.7735C14.349 37.0834 13.2553 36.237 12.2657 35.2344C11.2761 34.2318 10.4297 33.1316 9.72662 31.9336C9.02349 30.7357 8.47662 29.4467 8.08599 28.0665C7.69537 26.6863 7.50005 25.2474 7.50005 23.7501C7.48703 22.2657 7.68235 20.8269 8.08599 19.4336C8.48964 18.0404 9.03651 16.7448 9.72662 15.5469C10.4167 14.349 11.2631 13.2553 12.2657 12.2657C13.2683 11.2761 14.3685 10.4297 15.5665 9.72662C16.7644 9.02349 18.0534 8.47662 19.4336 8.08599C20.8139 7.69537 22.2527 7.50005 23.7501 7.50005C25.2344 7.50005 26.6732 7.69537 28.0665 8.08599C29.4597 8.47662 30.7553 9.02349 31.9532 9.72662C33.1511 10.4297 34.2448 11.2761 35.2344 12.2657C36.224 13.2553 37.0704 14.3555 37.7735 15.5665C38.4766 16.7774 39.0235 18.073 39.4141 19.4532C39.8047 20.8334 40.0001 22.2657 40.0001 23.7501C39.987 23.9844 39.974 24.1993 39.961 24.3946C39.948 24.5899 39.9349 24.7982 39.9219 25.0196C40.3516 25.1758 40.7683 25.3386 41.1719 25.5079C41.5756 25.6771 41.9662 25.879 42.3438 26.1133C42.3959 25.7097 42.4349 25.3126 42.461 24.9219C42.487 24.5313 42.5001 24.1407 42.5001 23.7501C42.5131 22.0313 42.2917 20.3646 41.836 18.7501C41.3803 17.1355 40.7488 15.6381 39.9415 14.2579C39.1342 12.8777 38.1576 11.6146 37.0118 10.4688C35.8659 9.32297 34.6029 8.34641 33.2227 7.53912C31.8425 6.73182 30.3516 6.10682 28.7501 5.66412C27.1485 5.22141 25.4818 5.00005 23.7501 5.00005C22.0313 4.98703 20.3646 5.20839 18.7501 5.66412C17.1355 6.11985 15.6381 6.75136 14.2579 7.55865C12.8777 8.36594 11.6146 9.3425 10.4688 10.4883C9.32297 11.6342 8.34641 12.8972 7.53912 14.2774C6.73182 15.6576 6.10682 17.1485 5.66412 18.7501C5.22141 20.3516 5.00005 22.0183 5.00005 23.7501C4.98703 25.4688 5.20839 27.1355 5.66412 28.7501C6.11985 30.3646 6.75136 31.862 7.55865 33.2422C8.36594 34.6224 9.3425 35.8855 10.4883 37.0313C11.6342 38.1771 12.8972 39.1537 14.2774 39.961C15.6576 40.7683 17.1485 41.3933 18.7501 41.836C20.3516 42.2787 22.0183 42.5001 23.7501 42.5001C24.1537 42.5001 24.5508 42.487 24.9415 42.461C25.3321 42.4349 25.7227 42.3959 26.1133 42.3438C25.6576 41.5756 25.293 40.7683 25.0196 39.9219C24.7852 39.948 24.5704 39.9675 24.3751 39.9805ZM22.5001 30.0001V32.5001H25.0001V30.0001H22.5001Z" fill="#494949"/>
<path fill-rule="evenodd" clip-rule="evenodd" d="M42.5001 36.2501C42.5001 36.6537 42.461 37.0508 42.3829 37.4415L44.8047 38.4376L43.8477 40.7618L41.4258 39.7461C40.9701 40.4102 40.4102 40.9701 39.7461 41.4258L40.7618 43.8477L38.4376 44.8047L37.4415 42.3829C37.0508 42.461 36.6537 42.5001 36.2501 42.5001C35.8464 42.5001 35.4493 42.461 35.0586 42.3829L34.0626 44.8047L31.7383 43.8477L32.754 41.4258C32.0899 40.9701 31.53 40.4102 31.0743 39.7461L28.6524 40.7618L27.6954 38.4376L30.1172 37.4415C30.0391 37.0508 30.0001 36.6537 30.0001 36.2501C30.0001 35.8464 30.0391 35.4493 30.1172 35.0586L27.6954 34.0626L28.6524 31.7383L31.0743 32.754C31.53 32.0899 32.0899 31.53 32.754 31.0743L31.7383 28.6524L34.0626 27.6954L35.0586 30.1172C35.4493 30.0391 35.8464 30.0001 36.2501 30.0001C36.6537 30.0001 37.0508 30.0391 37.4415 30.1172L38.4376 27.6954L40.7618 28.6524L39.7461 31.0743C40.4102 31.53 40.9701 32.0899 41.4258 32.754L43.8477 31.7383L44.8047 34.0626L42.3829 35.0586C42.461 35.4493 42.5001 35.8464 42.5001 36.2501ZM39.7071 34.7852C39.9024 35.2409 40.0001 35.7292 40.0001 36.2501C40.0001 36.7709 39.9024 37.2592 39.7071 37.7149C39.5118 38.1706 39.2448 38.5678 38.9063 38.9063C38.5678 39.2448 38.1706 39.5118 37.7149 39.7071C37.2592 39.9024 36.7709 40.0001 36.2501 40.0001C35.7292 40.0001 35.2409 39.9024 34.7852 39.7071C34.3295 39.5118 33.9323 39.2448 33.5938 38.9063C33.2553 38.5678 32.9883 38.1706 32.793 37.7149C32.5977 37.2592 32.5001 36.7709 32.5001 36.2501C32.5001 35.7292 32.5977 35.2409 32.793 34.7852C32.9883 34.3295 33.2553 33.9323 33.5938 33.5938C33.9323 33.2553 34.3295 32.9883 34.7852 32.793C35.2409 32.5977 35.7292 32.5001 36.2501 32.5001C36.7709 32.5001 37.2592 32.5977 37.7149 32.793C38.1706 32.9883 38.5678 33.2553 38.9063 33.5938C39.2448 33.9323 39.5118 34.3295 39.7071 34.7852Z" fill="#C01B50"/>
</g>
<defs>
<clipPath id="clip0_1968_2189">
<rect width="40" height="40" fill="white" transform="translate(5 5)"/>
</clipPath>
</defs>
</svg>
