<svg width="50" height="50" viewBox="0 0 50 50" fill="none" xmlns="http://www.w3.org/2000/svg">
<path d="M45.5424 35.0493C44.6316 33.4163 42.7433 32.642 40.95 33.1725L29.8732 36.4262C29.5144 34.5663 28.1643 33.0406 26.2906 32.4771L19.0302 30.2937C18.8777 30.2477 18.7144 30.2515 18.5626 30.3021L11.8734 32.5737V31.0281C11.8734 30.6042 11.5299 30.2615 11.1067 30.2615H3.76667C3.34347 30.2615 3 30.6042 3 31.0281V44.9079C3 45.3319 3.34347 45.6746 3.76667 45.6746H11.1067C11.5299 45.6746 11.8734 45.3319 11.8734 44.9079V43.8867C14.937 44.8696 22.964 46.9863 26.7552 47.9753C26.9223 48.019 27.1025 48.0045 27.2604 47.9332L43.6878 40.6176C44.7052 40.1645 45.4902 39.2989 45.8429 38.2432C46.1948 37.1868 46.0852 36.023 45.5424 35.0493ZM10.3401 44.1412H4.53333V31.7948H10.3393L10.3401 44.1412ZM44.3878 37.7587C44.1685 38.4165 43.6985 38.9348 43.0637 39.2169L26.8817 46.4236C21.7205 45.0743 13.7985 42.946 11.8734 42.2859V34.1937L18.8232 31.8331L25.849 33.9461C27.3026 34.3823 28.297 35.6473 28.4112 37.1392C27.84 37.6736 25.9502 39.0774 22.4197 38.3789C22.0041 38.2915 21.6009 38.5652 21.5181 38.9815C21.436 39.3963 21.7059 39.7996 22.1207 39.8824C22.9042 40.038 23.6241 40.1047 24.2819 40.1047C27.3792 40.1047 29.0935 38.6381 29.6202 38.0983L41.3824 34.643C42.4841 34.3202 43.6441 34.7932 44.2038 35.796C44.5411 36.4032 44.607 37.0994 44.3878 37.7587Z" fill="#474747" stroke="#474747" stroke-width="0.7"/>
<path d="M8.12341 33.0975H6.75031C6.32711 33.0975 5.98364 33.4402 5.98364 33.8642C5.98364 34.2882 6.32711 34.6309 6.75031 34.6309H8.12341C8.54661 34.6309 8.89008 34.2882 8.89008 33.8642C8.89008 33.4402 8.54661 33.0975 8.12341 33.0975Z" fill="#474747" stroke="#474747" stroke-width="0.7"/>
<path d="M24.5235 26.5333C31.287 26.5333 36.7902 21.0302 36.7902 14.2667C36.7902 7.50314 31.287 2 24.5235 2C17.76 2 12.2568 7.50314 12.2568 14.2667C12.2568 21.0302 17.76 26.5333 24.5235 26.5333ZM24.5235 3.53333C30.4422 3.53333 35.2569 8.348 35.2569 14.2667C35.2569 20.1853 30.4422 25 24.5235 25C18.6048 25 13.7902 20.1853 13.7902 14.2667C13.7902 8.348 18.6048 3.53333 24.5235 3.53333Z" fill="#474747" stroke="#474747" stroke-width="0.7"/>
<path d="M22.2235 17.3332C22.2235 16.9093 21.8801 16.5666 21.4569 16.5666C21.0337 16.5666 20.6902 16.9093 20.6902 17.3332C20.6902 19.184 22.0096 20.7326 23.7569 21.0891V22.3779C23.7569 22.8019 24.1003 23.1446 24.5235 23.1446C24.9467 23.1446 25.2902 22.8019 25.2902 22.3779V21.0891C27.0374 20.7326 28.3569 19.1847 28.3569 17.3332C28.3569 15.4817 27.0374 13.9338 25.2902 13.5773V9.04095C26.1803 9.35835 26.8235 10.2017 26.8235 11.1999C26.8235 11.6239 27.1662 11.9666 27.5902 11.9666C28.0142 11.9666 28.3569 11.6239 28.3569 11.1999C28.3569 9.34915 27.0374 7.80048 25.2902 7.44398V6.15522C25.2902 5.73125 24.9467 5.38855 24.5235 5.38855C24.1003 5.38855 23.7569 5.73125 23.7569 6.15522V7.44398C22.0096 7.80048 20.6902 9.34839 20.6902 11.1999C20.6902 13.0514 22.0096 14.5993 23.7569 14.9558V19.4922C22.8668 19.1748 22.2235 18.3314 22.2235 17.3332ZM26.8235 17.3332C26.8235 18.3314 26.1803 19.1748 25.2902 19.4922V15.1751C26.1803 15.4925 26.8235 16.335 26.8235 17.3332ZM22.2235 11.1999C22.2235 10.2017 22.8668 9.35835 23.7569 9.04095V13.3581C22.8668 13.0407 22.2235 12.1973 22.2235 11.1991V11.1999Z" fill="#BB0841" stroke="#BB0841" stroke-width="0.7"/>
</svg>
