<svg width="20" height="18" viewBox="0 0 20 18" fill="none" xmlns="http://www.w3.org/2000/svg">
<path fill-rule="evenodd" clip-rule="evenodd" d="M10.2718 0C10.5985 0.0016219 10.8111 0.103338 10.9317 0.30121C11.1372 0.638333 11.0024 3.35571 11.0024 4.00841V17.5165C10.8127 18.3694 9.25963 17.8685 8.52787 17.7019C5.8101 17.1921 3.09139 16.6824 0.373614 16.1727C-0.283204 15.8485 0.154203 13.7329 0.0436729 12.952V4.95838C0.141477 4.26235 -0.227821 2.28456 0.255778 1.92311C0.620598 1.6504 2.32168 1.51903 2.91887 1.3902L10.2718 0ZM7.82082 5.4217C7.14798 5.83807 6.64293 6.66037 6.17112 7.2753C6.02052 7.47155 5.86663 7.82397 5.62907 7.92406L4.00293 6.09363C3.76868 5.95693 3.39726 6.03686 3.24878 6.18631C3.00769 6.42936 3.09135 6.83577 3.27235 7.06677L4.89849 8.8972L3.17808 11.0752C3.02537 11.3122 3.08829 11.704 3.27235 11.863C3.46466 12.0291 3.86012 12.0425 4.07364 11.8861L5.72334 9.824L7.53802 11.863C7.73622 12.0214 8.11989 12.049 8.3393 11.8861C8.58581 11.7031 8.60043 11.2547 8.41 11.0057L6.47749 8.85086L8.48071 6.32533C8.77977 5.81999 8.32493 5.42286 7.82082 5.4217Z" fill="#207245"/>
<path fill-rule="evenodd" clip-rule="evenodd" d="M11.4032 2.40989H17.46C18.0256 2.40989 19.4036 2.29126 19.7225 2.52574C20.2334 2.9011 19.8287 4.24194 19.9346 4.95859L19.9581 12.6047C20.0453 13.1888 20.0097 15.2906 19.7225 15.5009C19.4024 15.7354 18.0263 15.6168 17.46 15.6168H11.4032V13.2071C12.2149 13.2266 14.0364 13.4801 13.8542 12.5352C13.7114 11.7942 12.2863 12.0046 11.4032 12.0254L11.4268 10.7974C12.156 10.8778 14.0303 11.0287 13.8542 10.1255C13.7107 9.38916 12.2849 9.59491 11.4032 9.61576V8.41092C12.2066 8.4276 14.0456 8.67969 13.8542 7.73899C13.6728 6.84671 12.0296 7.36132 11.4032 7.20608L11.4268 6.00124C12.2955 6.02209 13.727 6.23109 13.8542 5.4915C14.0171 4.54524 12.2288 4.80034 11.4032 4.81957V2.40989ZM15.5511 4.81971C15.1063 5.06809 14.7854 5.71801 15.4568 5.97821C15.9953 6.18674 17.3129 6.00231 17.46 5.65383C17.8776 4.6647 16.3641 4.7933 15.5511 4.81971ZM15.7867 7.20606C15.6244 7.26329 15.4403 7.23687 15.3154 7.32191C14.9192 7.59207 15.0875 8.24616 15.4804 8.38773C16.0615 8.59718 17.292 8.40742 17.46 8.06335C17.9825 6.99405 16.1016 7.2795 15.7867 7.20606ZM15.5746 9.61568C15.1525 9.82722 14.767 10.4438 15.3861 10.751C15.8664 10.9894 17.2988 10.8372 17.46 10.4498C17.8682 9.46948 16.3882 9.58857 15.5746 9.61568ZM15.5275 12.0254C15.1367 12.2543 14.8356 12.8815 15.4097 13.1607C15.9229 13.4105 17.3132 13.2055 17.46 12.8595C17.884 11.8607 16.3429 11.9992 15.5275 12.0254Z" fill="#207245"/>
</svg>
