<svg width="14" height="17" viewBox="0 0 14 17" fill="none" xmlns="http://www.w3.org/2000/svg">
<path fill-rule="evenodd" clip-rule="evenodd" d="M1.16659 0.0390625C0.945572 0.0390625 0.73361 0.127365 0.57733 0.284546C0.421049 0.441726 0.333252 0.654908 0.333252 0.877194V14.2873C0.333252 14.9542 0.596644 15.5937 1.06549 16.0652C1.53433 16.5368 2.17021 16.8017 2.83325 16.8017H11.1666C11.8296 16.8017 12.4655 16.5368 12.9344 16.0652C13.4032 15.5937 13.6666 14.9542 13.6666 14.2873V5.06785C13.6665 4.84558 13.5787 4.63244 13.4224 4.47529L9.25575 0.284635C9.09951 0.127444 8.88758 0.03911 8.66658 0.0390625H1.16659ZM8.66658 2.06231L11.6549 5.06785H8.66658V2.06231ZM3.66659 9.25851C3.66659 9.03623 3.75438 8.82304 3.91066 8.66586C4.06694 8.50868 4.2789 8.42038 4.49992 8.42038H9.49992C9.72093 8.42038 9.93289 8.50868 10.0892 8.66586C10.2455 8.82304 10.3333 9.03623 10.3333 9.25851C10.3333 9.4808 10.2455 9.69398 10.0892 9.85116C9.93289 10.0083 9.72093 10.0966 9.49992 10.0966H4.49992C4.2789 10.0966 4.06694 10.0083 3.91066 9.85116C3.75438 9.69398 3.66659 9.4808 3.66659 9.25851ZM3.66659 12.611C3.66659 12.3888 3.75438 12.1756 3.91066 12.0184C4.06694 11.8612 4.2789 11.7729 4.49992 11.7729H9.49992C9.72093 11.7729 9.93289 11.8612 10.0892 12.0184C10.2455 12.1756 10.3333 12.3888 10.3333 12.611C10.3333 12.8333 10.2455 13.0465 10.0892 13.2037C9.93289 13.3609 9.72093 13.4492 9.49992 13.4492H4.49992C4.2789 13.4492 4.06694 13.3609 3.91066 13.2037C3.75438 13.0465 3.66659 12.8333 3.66659 12.611Z" fill="#ADADAD"/>
</svg>
