<svg width="18" height="18" viewBox="0 0 18 18" fill="none" xmlns="http://www.w3.org/2000/svg">
<path d="M15.6814 12.9691L13.7426 11.8494C13.7107 11.8312 13.6756 11.8194 13.6392 11.8147C13.6028 11.8101 13.5658 11.8126 13.5304 11.8223C13.495 11.8319 13.4618 11.8484 13.4327 11.8709C13.4037 11.8933 13.3794 11.9213 13.3611 11.9531L13.0113 12.5596C12.934 12.6932 12.9797 12.8654 13.1133 12.9428L15.0521 14.0625C15.084 14.0807 15.1191 14.0925 15.1556 14.0972C15.192 14.1018 15.2289 14.0993 15.2644 14.0897C15.2998 14.08 15.333 14.0635 15.362 14.0411C15.391 14.0186 15.4154 13.9906 15.4336 13.9588L15.7834 13.3523C15.8607 13.2188 15.8133 13.0465 15.6814 12.9691ZM13.3594 6.04688C13.3776 6.07873 13.4019 6.10669 13.431 6.12914C13.46 6.1516 13.4932 6.16811 13.5286 6.17774C13.564 6.18737 13.601 6.18993 13.6374 6.18527C13.6738 6.18061 13.709 6.16883 13.7408 6.15059L15.6797 5.03086C15.8133 4.95352 15.859 4.78125 15.7816 4.64766L15.4336 4.04297C15.4154 4.01111 15.391 3.98316 15.362 3.9607C15.333 3.93825 15.2998 3.92174 15.2644 3.9121C15.2289 3.90247 15.192 3.89991 15.1556 3.90457C15.1191 3.90923 15.084 3.92102 15.0521 3.93926L13.1133 5.05898C13.0491 5.09641 13.0023 5.15773 12.9832 5.22954C12.9641 5.30135 12.9742 5.37781 13.0113 5.44219L13.3594 6.04688ZM16.418 8.36719H14.168C14.0133 8.36719 13.8867 8.49375 13.8867 8.64844V9.35156C13.8867 9.50625 14.0133 9.63281 14.168 9.63281H16.418C16.5727 9.63281 16.6992 9.50625 16.6992 9.35156V8.64844C16.6992 8.49375 16.5727 8.36719 16.418 8.36719ZM11.0021 2.02148C10.8984 2.02148 10.793 2.04961 10.6963 2.11465L4.46484 6.1875H1.58203C1.42734 6.1875 1.30078 6.31406 1.30078 6.46875V11.5312C1.30078 11.6859 1.42734 11.8125 1.58203 11.8125H4.46484L10.6963 15.8854C10.793 15.9486 10.9002 15.9785 11.0021 15.9785C11.2957 15.9785 11.5664 15.7447 11.5664 15.4143V2.58574C11.5664 2.25527 11.2957 2.02148 11.0021 2.02148Z" fill="#BB0841"/>
</svg>
