<svg width="43" height="38" viewBox="0 0 43 38" fill="none" xmlns="http://www.w3.org/2000/svg">
<circle cx="8.5" cy="6.5" r="3.5" fill="#C01B50"/>
<circle cx="19.5" cy="7.5" r="3.5" fill="#C01B50"/>
<path d="M27.4158 33.2253L33.6156 36.5795L27.4158 33.2253ZM27.4158 33.2253C27.4154 33.2251 27.415 33.2248 27.4146 33.2246C27.396 33.2143 27.3758 33.2012 27.344 33.18L27.3357 33.1744C27.3073 33.1554 27.268 33.1291 27.2262 33.1047L26.8139 32.8646L26.678 33.3219C25.941 35.802 23.6103 37.625 20.8487 37.625H6.45373C3.09645 37.625 0.375 34.9381 0.375 31.6483V18.9599C0.375 15.6702 3.09645 12.9833 6.45373 12.9833H7.42517L7.4676 12.2357C4.45381 11.8924 2.11366 9.36948 2.11366 6.32586C2.11366 3.05555 4.93954 0.375 8.16616 0.375C11.394 0.375 14.025 2.87247 14.1999 5.99376L14.9365 6.06999C15.5154 3.91384 17.5112 2.3116 19.8883 2.3116C22.7212 2.3116 25.0149 4.57754 25.0149 7.3512C25.0149 9.73316 23.3215 11.7378 21.0469 12.2562L21.1142 12.9965C23.7592 13.1092 25.966 14.8876 26.6794 17.2864L26.8167 17.7479L27.2305 17.5018C27.2684 17.4793 27.3057 17.4542 27.3325 17.4361C27.3371 17.433 27.3413 17.4302 27.3452 17.4276C27.3767 17.4065 27.3959 17.3944 27.4122 17.3857L27.4146 17.3844L33.6172 14.03L33.6172 14.03C35.4905 13.0167 37.802 13.0524 39.6443 14.1233C41.4834 15.1952 42.625 17.167 42.625 19.2655V31.3428C42.625 33.4396 41.4852 35.4125 39.6423 36.4887C37.7999 37.5571 35.4895 37.5918 33.6158 36.5797L27.4158 33.2253ZM39.9253 30.4467V31.3414C39.9253 32.5174 39.2867 33.6144 38.2646 34.2128L38.2636 34.2134C37.2436 34.8062 35.9622 34.824 34.922 34.2626L34.9217 34.2624L28.7193 30.9068L39.9253 30.4467ZM39.9253 30.4467L39.9239 30.448M39.9253 30.4467L39.9239 30.448M39.9239 30.448V19.2655C39.9239 18.09 39.2871 16.9922 38.2636 16.3976C37.2412 15.8023 35.961 15.7826 34.9203 16.3459L28.718 19.7002C27.6379 20.2835 26.9647 21.402 26.9647 22.6213V27.987C26.9647 29.2052 27.6396 30.3234 28.7191 30.9066L39.9239 30.448ZM14.7838 7.76545L14.0458 7.70808C13.4635 10.1035 11.4056 11.9451 8.86475 12.2343L8.90716 12.9819H18.5912L18.6784 12.2422C16.5641 11.7365 14.9658 9.94472 14.7838 7.76545ZM22.3152 7.35256C22.3152 6.02623 21.2212 4.95812 19.8883 4.95812C18.555 4.95812 17.4628 6.02655 17.4628 7.35256C17.4628 8.67857 18.555 9.747 19.8883 9.747C21.2212 9.747 22.3152 8.67889 22.3152 7.35256ZM8.16616 3.02016C6.32265 3.02016 4.81337 4.49705 4.81337 6.32586C4.81337 8.15446 6.32242 9.63293 8.16616 9.63293C10.0099 9.63293 11.519 8.15446 11.519 6.32586C11.519 4.49705 10.0097 3.02016 8.16616 3.02016ZM20.8487 34.9785C22.7062 34.9785 24.2263 33.4892 24.2263 31.647V18.9586C24.2263 17.1177 22.7061 15.6284 20.8487 15.6284H6.45373C4.59664 15.6284 3.07471 17.116 3.07471 18.9586V31.647C3.07471 33.4894 4.59641 34.9785 6.45373 34.9785H20.8487Z" fill="#494949" stroke="white" stroke-width="0.75"/>
</svg>
