<svg width="47" height="32" viewBox="0 0 47 32" fill="none" xmlns="http://www.w3.org/2000/svg">
<path d="M16.5638 31.9997C14.1847 31.9997 12.2441 30.0866 12.2441 27.7279C12.2441 25.3692 14.1787 23.4561 16.5638 23.4561C18.949 23.4561 20.8835 25.3692 20.8835 27.7279C20.8835 30.0866 18.949 31.9997 16.5638 31.9997ZM16.5638 26.1356C15.6747 26.1356 14.9477 26.8545 14.9477 27.7338C14.9477 28.6131 15.6747 29.332 16.5638 29.332C17.453 29.332 18.18 28.6131 18.18 27.7338C18.18 26.8545 17.453 26.1356 16.5638 26.1356Z" fill="#3E3A39"/>
<path d="M35.0382 31.9997C32.6591 31.9997 30.7185 30.0866 30.7185 27.7279C30.7185 25.3692 32.6531 23.4561 35.0382 23.4561C37.4233 23.4561 39.3579 25.3692 39.3579 27.7279C39.3579 30.0866 37.4233 31.9997 35.0382 31.9997ZM35.0382 26.1356C34.149 26.1356 33.4221 26.8545 33.4221 27.7338C33.4221 28.6131 34.149 29.332 35.0382 29.332C35.9274 29.332 36.6543 28.6131 36.6543 27.7338C36.6543 26.8545 35.9274 26.1356 35.0382 26.1356Z" fill="#3E3A39"/>
<path d="M45.6482 29.1834H38.4627C37.7177 29.1834 37.1109 28.5833 37.1109 27.8466C37.1109 27.1098 37.7177 26.5098 38.4627 26.5098H44.2964V13.1774L38.5829 5.60817H37.3933C36.6483 5.60817 36.0415 5.0081 36.0415 4.27137C36.0415 3.53464 36.6483 2.93457 37.3933 2.93457H39.2617C39.6883 2.93457 40.0908 3.13063 40.3432 3.46929L46.7296 11.9297C46.9038 12.1615 47 12.4407 47 12.7318V27.8466C47 28.5833 46.3932 29.1834 45.6482 29.1834Z" fill="#3E3A39"/>
<path d="M31.6196 29.1843H20.0964C19.3514 29.1843 18.7446 28.5843 18.7446 27.8475C18.7446 27.1108 19.3514 26.5107 20.0964 26.5107H31.6196C32.3646 26.5107 32.9714 27.1108 32.9714 27.8475C32.9714 28.5843 32.3646 29.1843 31.6196 29.1843Z" fill="#3E3A39"/>
<path d="M13.0252 29.184H8.12278C7.3778 29.184 6.771 28.5839 6.771 27.8472V23.3436C6.771 22.6069 7.3778 22.0068 8.12278 22.0068C8.86776 22.0068 9.47456 22.6069 9.47456 23.3436V26.5104H13.0252C13.7702 26.5104 14.377 27.1104 14.377 27.8472C14.377 28.5839 13.7702 29.184 13.0252 29.184Z" fill="#3E3A39"/>
<path d="M32.6171 19.4163H8.65151C7.94258 19.4163 7.37183 18.8518 7.37183 18.1508V1.2655C7.37183 0.564427 7.94258 0 8.65151 0H32.6171C33.3261 0 33.8968 0.564427 33.8968 1.2655V18.1508C33.8968 18.8518 33.3261 19.4163 32.6171 19.4163ZM9.9312 16.8853H31.3374V2.53101H9.9312V16.8912V16.8853Z" fill="#C01B50"/>
<path d="M3.30436 11.4373H1.35178C0.6068 11.4373 0 10.8372 0 10.1005C0 9.36375 0.6068 8.76367 1.35178 8.76367H3.30436C4.04934 8.76367 4.65614 9.36375 4.65614 10.1005C4.65614 10.8372 4.04934 11.4373 3.30436 11.4373Z" fill="#3E3A39"/>
<path d="M3.30436 19.4578H1.35178C0.6068 19.4578 0 18.8577 0 18.121C0 17.3843 0.6068 16.7842 1.35178 16.7842H3.30436C4.04934 16.7842 4.65614 17.3843 4.65614 18.121C4.65614 18.8577 4.04934 19.4578 3.30436 19.4578Z" fill="#3E3A39"/>
</svg>
