<svg width="45" height="42" viewBox="0 0 45 42" fill="none" xmlns="http://www.w3.org/2000/svg">
<path d="M10.8722 24.2052C10.8722 23.2234 10.0863 22.4336 9.11916 22.4336C8.15197 22.4336 7.36182 23.2278 7.36182 24.2052C7.36182 25.1827 8.14765 25.9769 9.11916 25.9769C10.0907 25.9769 10.8722 25.1827 10.8722 24.2052Z" fill="#525252"/>
<path d="M10.8722 24.2052C10.8722 23.2234 10.0863 22.4336 9.11916 22.4336C8.15197 22.4336 7.36182 23.2278 7.36182 24.2052C7.36182 25.1827 8.14765 25.9769 9.11916 25.9769C10.0907 25.9769 10.8722 25.1827 10.8722 24.2052Z" fill="white"/>
<path d="M9.11909 27.0679C7.55605 27.0679 6.28662 25.785 6.28662 24.2053C6.28662 22.6257 7.55605 21.3428 9.11909 21.3428C10.6821 21.3428 11.9516 22.6257 11.9516 24.2053C11.9516 25.785 10.6821 27.0679 9.11909 27.0679ZM9.11909 23.5202C8.74776 23.5202 8.44552 23.8257 8.44552 24.201C8.44552 24.5762 8.74776 24.8817 9.11909 24.8817C9.49042 24.8817 9.79267 24.5762 9.79267 24.201C9.79267 23.8257 9.49042 23.5202 9.11909 23.5202Z" fill="#C01B50"/>
<path d="M18.1433 24.2052C18.1433 23.2234 17.3574 22.4336 16.3902 22.4336C15.423 22.4336 14.6372 23.2278 14.6372 24.2052C14.6372 25.1827 15.423 25.9769 16.3902 25.9769C17.3574 25.9769 18.1433 25.1827 18.1433 24.2052Z" fill="#525252"/>
<path d="M18.1433 24.2052C18.1433 23.2234 17.3574 22.4336 16.3902 22.4336C15.423 22.4336 14.6372 23.2278 14.6372 24.2052C14.6372 25.1827 15.423 25.9769 16.3902 25.9769C17.3574 25.9769 18.1433 25.1827 18.1433 24.2052Z" fill="white"/>
<path d="M16.3862 27.0679C14.8231 27.0679 13.5537 25.785 13.5537 24.2053C13.5537 22.6257 14.8231 21.3428 16.3862 21.3428C17.9492 21.3428 19.2186 22.6257 19.2186 24.2053C19.2186 25.785 17.9492 27.0679 16.3862 27.0679ZM16.3862 23.5202C16.0149 23.5202 15.7126 23.8257 15.7126 24.201C15.7126 24.5762 16.0149 24.8817 16.3862 24.8817C16.7575 24.8817 17.0598 24.5762 17.0598 24.201C17.0598 23.8257 16.7575 23.5202 16.3862 23.5202Z" fill="#C01B50"/>
<path d="M25.4142 24.2052C25.4142 23.2234 24.6284 22.4336 23.6612 22.4336C22.694 22.4336 21.9082 23.2278 21.9082 24.2052C21.9082 25.1827 22.694 25.9769 23.6612 25.9769C24.6284 25.9769 25.4142 25.1827 25.4142 24.2052Z" fill="#525252"/>
<path d="M25.4142 24.2052C25.4142 23.2234 24.6284 22.4336 23.6612 22.4336C22.694 22.4336 21.9082 23.2278 21.9082 24.2052C21.9082 25.1827 22.694 25.9769 23.6612 25.9769C24.6284 25.9769 25.4142 25.1827 25.4142 24.2052Z" fill="white"/>
<path d="M23.6572 27.0679C22.0941 27.0679 20.8247 25.785 20.8247 24.2053C20.8247 22.6257 22.0941 21.3428 23.6572 21.3428C25.2202 21.3428 26.4896 22.6257 26.4896 24.2053C26.4896 25.785 25.2202 27.0679 23.6572 27.0679ZM23.6572 23.5202C23.2858 23.5202 22.9836 23.8257 22.9836 24.201C22.9836 24.5762 23.2858 24.8817 23.6572 24.8817C24.0285 24.8817 24.3308 24.5762 24.3308 24.201C24.3308 23.8257 24.0285 23.5202 23.6572 23.5202Z" fill="#C01B50"/>
<path d="M8.26425 41.9996C8.12608 41.9996 7.98359 41.9734 7.84974 41.9167C7.44819 41.7465 7.1848 41.3494 7.1848 40.9087V35.6854H5.21589C2.34024 35.6854 0 33.3203 0 30.4141V17.6199C0 14.7137 2.34024 12.3486 5.21589 12.3486H27.5604C30.4361 12.3486 32.7763 14.7137 32.7763 17.6199V30.4141C32.7763 33.3203 30.4361 35.6854 27.5604 35.6854H14.9611L9.0285 41.6811C8.82124 41.8905 8.5449 41.9996 8.26425 41.9996ZM5.21589 14.5305C3.53195 14.5305 2.15889 15.9181 2.15889 17.6199V30.4141C2.15889 32.1159 3.53195 33.5036 5.21589 33.5036H8.26425C8.8601 33.5036 9.3437 33.9923 9.3437 34.5945V38.2774L13.7478 33.8265C13.9508 33.6214 14.2228 33.5079 14.5121 33.5079H27.5561C29.2401 33.5079 30.6131 32.1203 30.6131 30.4185V17.6243C30.6131 15.9225 29.2401 14.5348 27.5561 14.5348H5.21589V14.5305Z" fill="#3E3A39"/>
<path d="M36.7314 29.651C36.4508 29.651 36.1744 29.5419 35.9672 29.3324L30.9326 24.2444C30.7297 24.0393 30.6174 23.7644 30.6174 23.472V17.6248C30.6174 15.9229 29.2444 14.5353 27.5604 14.5353H13.3031C12.7072 14.5353 12.2236 14.0466 12.2236 13.4444V5.27128C12.2236 2.3651 14.5639 0 17.4395 0H39.7841C42.6597 0 45 2.3651 45 5.27128V18.0655C45 20.9717 42.6597 23.3368 39.7841 23.3368H37.8152V28.5601C37.8152 29.0008 37.5518 29.3979 37.1502 29.5681C37.0164 29.6248 36.8782 29.651 36.7357 29.651H36.7314ZM32.7763 23.0182L35.652 25.9244V22.2459C35.652 21.6437 36.1356 21.155 36.7314 21.155H39.7798C41.4637 21.155 42.8368 19.7673 42.8368 18.0655V5.27128C42.8368 3.56946 41.4637 2.18182 39.7798 2.18182H17.4352C15.7513 2.18182 14.3782 3.56946 14.3782 5.27128V12.3491H27.5561C30.4318 12.3491 32.772 14.7142 32.772 17.6204V23.0182H32.7763Z" fill="#3E3A39"/>
</svg>
