<svg width="47" height="45" viewBox="0 0 47 45" fill="none" xmlns="http://www.w3.org/2000/svg">
<path d="M3.96498 28.7782L18.2752 43.2778C19.177 44.1914 20.6406 44.1914 21.5469 43.2778C22.4487 42.3641 22.4487 40.8811 21.5469 39.9628L18.4112 36.7856L18.5471 36.6478L22.4985 40.6515C23.4003 41.5652 24.8639 41.5652 25.7702 40.6515C26.672 39.7378 26.672 38.2548 25.7702 37.3365L21.8188 33.3329L21.9548 33.1951L26.7264 38.0298C27.6281 38.9435 29.0918 38.9435 29.9981 38.0298C30.8998 37.1162 30.8998 35.6286 29.9981 34.7149L25.2265 29.8802L25.3624 29.7424L30.9497 35.4036C31.8514 36.3173 33.3151 36.3173 34.2213 35.4036C35.1231 34.4899 35.1231 33.0023 34.2213 32.0886L21.8188 19.5221C21.8188 19.5221 17.7632 15.3853 10.966 16.2668L3.96045 28.7782H3.96498Z" fill="white"/>
<path d="M19.9112 45.0001C19.0231 45.0001 18.1847 44.6466 17.5549 44.0084L3.24461 29.5089C2.91835 29.1783 2.85037 28.6732 3.07695 28.2692L10.0825 15.7577C10.2411 15.4731 10.5221 15.2848 10.8393 15.2435C11.5099 15.1563 12.1851 15.1104 12.8512 15.1104C18.8599 15.1104 22.399 18.6457 22.544 18.7972L34.9465 31.3638C36.247 32.6815 36.247 34.8211 34.9465 36.1388C34.3166 36.777 33.4783 37.1259 32.5902 37.1259C32.2639 37.1259 31.9467 37.08 31.6431 36.9882C31.5207 37.6539 31.2035 38.2692 30.7232 38.7605C30.0933 39.3986 29.255 39.7476 28.3669 39.7476C28.0406 39.7476 27.7234 39.7017 27.4198 39.6098C27.2974 40.2756 26.9802 40.8908 26.4954 41.3821C25.8655 42.0203 25.0317 42.3693 24.139 42.3693C23.8128 42.3693 23.4956 42.3233 23.192 42.2315C23.0742 42.8835 22.766 43.5033 22.2721 44.0038C21.6422 44.642 20.8039 44.9955 19.9157 44.9955M5.23391 28.6044L18.9959 42.5483C19.4853 43.0442 20.3372 43.0442 20.8266 42.5483C21.3295 42.0387 21.3295 41.2076 20.8266 40.6934L17.6908 37.5162C17.5005 37.3234 17.3917 37.0616 17.3917 36.7862C17.3917 36.5107 17.5005 36.249 17.6908 36.0561L17.8268 35.9184C18.2255 35.5144 18.869 35.5144 19.2677 35.9184L23.2192 39.9221C23.7086 40.4179 24.5605 40.4179 25.0453 39.9221C25.29 39.6741 25.426 39.3436 25.426 38.9946C25.426 38.6457 25.29 38.3151 25.0453 38.0672L21.0939 34.0635C20.6951 33.6595 20.6951 33.0075 21.0939 32.6034L21.2299 32.4657C21.6105 32.08 22.2902 32.08 22.6709 32.4657L27.4425 37.3004C27.9318 37.7963 28.7838 37.7963 29.2731 37.3004C29.5178 37.0525 29.6538 36.7265 29.6538 36.3729C29.6538 36.0194 29.5178 35.6934 29.2731 35.4455L24.5016 30.6108C24.3112 30.4179 24.2025 30.1562 24.2025 29.8808C24.2025 29.6053 24.3112 29.3436 24.5016 29.1507L24.6375 29.013C25.0363 28.609 25.6797 28.609 26.0785 29.013L31.6657 34.6741C32.1551 35.17 33.007 35.17 33.4964 34.6741C33.9994 34.1645 33.9994 33.3335 33.4964 32.8192L21.0939 20.2527C21.0622 20.2205 17.9763 17.1765 12.8467 17.1765C12.4344 17.1765 12.0129 17.1948 11.596 17.2362L5.23391 28.6044Z" fill="#494949"/>
<path d="M25.3261 23.0073L19.8611 25.4729C18.7238 26.0836 17.3145 25.6428 16.7118 24.4903C16.1091 23.3379 16.5441 21.91 17.6815 21.2994L22.5075 17.5849C22.5075 17.5849 27.8093 12.8972 34.1669 15.2433L37.8283 16.6253L43.0349 28.7787L34.2122 32.0799L25.3261 23.0027V23.0073Z" fill="white"/>
<path d="M34.2079 33.1171C33.9405 33.1171 33.6777 33.0115 33.4829 32.8141L25.0952 24.2466L20.3055 26.4091C19.8342 26.6571 19.304 26.7856 18.7738 26.7856C17.5277 26.7856 16.3948 26.0923 15.8103 24.9812C15.3934 24.1823 15.3073 23.264 15.5701 22.3963C15.8239 21.5606 16.3722 20.8674 17.1244 20.4404L21.8643 16.7902C22.2449 16.4642 25.7477 13.5625 30.5102 13.5625C31.8742 13.5625 33.22 13.8058 34.5115 14.2788L38.182 15.6653C38.4402 15.7618 38.6487 15.9638 38.762 16.2209L43.9686 28.3742C44.0819 28.6359 44.0819 28.9298 43.9686 29.1915C43.8598 29.4532 43.6469 29.6552 43.384 29.7562L34.5613 33.0574C34.4481 33.0987 34.3257 33.1217 34.2079 33.1217M25.3218 21.9785C25.5891 21.9785 25.8519 22.0841 26.0468 22.2815L34.4707 30.8857L41.6666 28.1906L37.0627 17.4422L33.8046 16.2117C32.7442 15.8214 31.6295 15.6194 30.5057 15.6194C26.3504 15.6194 23.201 18.3375 23.1693 18.3651C23.1512 18.3788 23.1331 18.3926 23.1195 18.4064L18.2935 22.1208C18.2482 22.1529 18.2029 22.1851 18.153 22.2126C17.8449 22.3779 17.6183 22.658 17.5141 22.9932C17.4099 23.3329 17.4461 23.691 17.6093 24.0033C17.9355 24.6323 18.7512 24.8894 19.381 24.5542C19.4037 24.545 19.4218 24.5313 19.4445 24.5221L24.9094 22.0565C25.0408 21.9968 25.1858 21.9647 25.3218 21.9647" fill="#494949"/>
<path d="M28.9287 24.9722C26.6041 24.9722 24.9094 23.9621 24.7961 23.8932C24.3157 23.5994 24.1571 22.9612 24.4517 22.4745C24.7462 21.9878 25.367 21.8271 25.8474 22.121C25.9878 22.2036 29.187 24.0631 32.4723 21.7215C32.9345 21.3909 33.5689 21.5057 33.8906 21.9694C34.2169 22.4378 34.1036 23.0806 33.6459 23.4065C31.9829 24.5911 30.338 24.963 28.9287 24.963" fill="#494949"/>
<path d="M1.01953 30.0367V12.4609H8.53718C8.53718 12.4609 11.1382 13.0716 11.5732 15.6703L4.92109 30.0367H1.01953Z" fill="white"/>
<path d="M4.92113 31.0696H1.01957C0.457675 31.0696 0 30.6058 0 30.0365V12.4608C0 11.8915 0.457675 11.4277 1.01957 11.4277H8.53722C8.61425 11.4277 8.69128 11.4369 8.76832 11.4553C8.89973 11.4874 12.04 12.2588 12.5793 15.5003C12.6155 15.7069 12.5838 15.9227 12.4977 16.1109L5.84555 30.4773C5.67788 30.84 5.3199 31.0696 4.92113 31.0696ZM2.03914 29.0035H4.27314L10.4993 15.5462C10.1096 14.1229 8.77285 13.6086 8.39674 13.4893H2.03914V28.9989V29.0035Z" fill="#494949"/>
<path d="M45.9758 30.0367V12.4609H38.4582C38.4582 12.4609 35.8571 13.0716 35.4221 15.6703L42.0697 30.0367H45.9713H45.9758Z" fill="white"/>
<path d="M45.9759 31.0696H42.0744C41.6801 31.0696 41.3176 30.84 41.1499 30.4773L34.5023 16.1109C34.4162 15.9227 34.3845 15.7069 34.4208 15.5003C34.96 12.2588 38.1003 11.4874 38.2317 11.4553C38.3087 11.4369 38.3858 11.4277 38.4628 11.4277H45.9805C46.5424 11.4277 47 11.8915 47 12.4608V30.0365C47 30.6058 46.5424 31.0696 45.9805 31.0696M42.7269 29.0035H44.9609V13.4938H38.6033C38.2362 13.6086 36.8904 14.1229 36.5007 15.5508L42.7269 29.0081V29.0035Z" fill="#494949"/>
<path d="M20.4232 12.9386C19.9973 12.9386 19.5713 12.7733 19.2451 12.4427L15.1622 8.30592C14.5097 7.64476 14.5097 6.57498 15.1622 5.91841C15.8148 5.25726 16.8706 5.25726 17.5186 5.91841L20.4232 8.86147L27.6599 1.52907C28.3125 0.867914 29.3683 0.867914 30.0208 1.52907C30.6733 2.19023 30.6733 3.26001 30.0208 3.91658L21.6014 12.4473C21.2751 12.7779 20.8492 12.9432 20.4232 12.9432" fill="#C01B50"/>
<path d="M20.4231 13.9715C19.7071 13.9715 19.0319 13.6868 18.5244 13.1726L14.4416 9.0358C13.3948 7.97519 13.3948 6.24884 14.4416 5.18824C14.9491 4.67401 15.6243 4.38934 16.3402 4.38934C17.0562 4.38934 17.7314 4.67401 18.2389 5.18365L20.4231 7.39668L26.9438 0.798897C27.4513 0.284664 28.1265 0 28.8425 0C29.5584 0 30.2336 0.284664 30.7411 0.798897C31.2486 1.31313 31.5296 1.99724 31.5296 2.72268C31.5296 3.44811 31.2486 4.13222 30.7411 4.64646L22.3217 13.1772C21.8142 13.6914 21.139 13.9761 20.4231 13.9761M16.3402 6.46004C16.168 6.46004 16.0049 6.52891 15.8826 6.65288C15.7602 6.77685 15.6922 6.94214 15.6922 7.11661C15.6922 7.29108 15.7602 7.45637 15.8826 7.58034L19.9654 11.7172C20.2101 11.9651 20.636 11.9651 20.8807 11.7172L29.3001 3.1864C29.4225 3.06244 29.4904 2.89715 29.4904 2.72268C29.4904 2.54821 29.4225 2.38292 29.3001 2.25895C29.0554 2.01102 28.6295 2.01102 28.3848 2.25895L21.1481 9.59594C20.9578 9.78878 20.6949 9.89897 20.4276 9.89897C20.1602 9.89897 19.8974 9.78878 19.7071 9.59594L16.8024 6.65288C16.6801 6.52891 16.517 6.46004 16.3448 6.46004" fill="#C01B50"/>
</svg>
