<svg width="32" height="32" viewBox="0 0 32 32" fill="none" xmlns="http://www.w3.org/2000/svg">
<circle cx="16" cy="16" r="16" fill="#BB0841"/>
<path fill-rule="evenodd" clip-rule="evenodd" d="M19.9907 14.0057C19.9907 10.6871 17.305 8 13.9953 8C10.6856 8 8 10.6942 8 14.0057C8 17.3173 10.6856 20.0114 13.9953 20.0114C15.4128 20.0114 16.7157 19.5186 17.7423 18.6944L22.8589 23.8004C23.1184 24.067 23.5391 24.067 23.8055 23.8004C24.065 23.5408 24.065 23.1128 23.8055 22.8532L18.687 17.7453C19.5029 16.7195 19.9907 15.42 19.9907 14.0057ZM18.6586 14.0055C18.6586 11.4236 16.569 9.33281 13.9956 9.33281C11.4222 9.33281 9.33255 11.4306 9.33255 14.0055C9.33255 16.5804 11.4222 18.6782 13.9956 18.6782C16.569 18.6782 18.6586 16.5874 18.6586 14.0055Z" fill="white"/>
</svg>
