<svg width="16" height="16" viewBox="0 0 16 16" fill="none" xmlns="http://www.w3.org/2000/svg">
<circle cx="8" cy="8" r="8" fill="#F0F0F0"/>
<path fill-rule="evenodd" clip-rule="evenodd" d="M11.9952 8C11.9952 8.08561 11.9667 8.17122 11.9001 8.23781C11.8811 8.25684 11.8573 8.26635 11.8335 8.28062C11.7099 8.46136 11.5291 8.66587 11.3294 8.66587H10.9964V11.3341C10.9964 11.7004 10.6968 12 10.3306 12H5.66468C5.29845 12 4.99881 11.7004 4.99881 11.3341V8.66587H4.66587C4.3044 8.66587 4.01427 8.37574 4 8.01902C4 8.01427 4 8.00951 4 8.00476C4 7.9239 4.03329 7.84304 4.09512 7.78121L7.72889 4.14269C7.72889 4.14269 7.74792 4.10939 7.76219 4.09512C7.82402 4.02854 7.91439 4 8 4C8.08561 4 8.17122 4.02854 8.23781 4.09512C8.25208 4.10939 8.25684 4.12842 8.27111 4.14269L11.9049 7.77646C11.9667 7.83829 11.9952 7.91914 12 8H11.9952ZM7.66231 11.3341H8.32818V9.66944H7.66231V11.3341ZM7.99524 4.79429L4.79429 8H5.66468V11.3341H6.99643V9.33175C6.99643 9.14625 7.14388 8.99881 7.32937 8.99881H8.66112C8.84661 8.99881 8.99405 9.14625 8.99405 9.33175V11.3341H10.3258V8H11.201L8 4.79429H7.99524Z" fill="#5F5F5F"/>
</svg>
