<svg width="39" height="42" viewBox="0 0 39 42" fill="none" xmlns="http://www.w3.org/2000/svg">
<path d="M28.5305 35.3037H24.3364V40.8336H28.5305V35.3037Z" fill="#C01B50"/>
<path d="M27.807 9.45822C27.4925 4.81977 23.896 1.16602 19.4975 1.16602C15.0989 1.16602 11.5077 4.82495 11.1931 9.45822C16.0321 5.61271 22.9681 5.61271 27.807 9.45822Z" fill="#C01B50"/>
<path d="M19.4975 20.2485C14.2548 20.2485 9.9873 15.7085 9.9873 10.1217C9.9873 4.5348 14.2548 0 19.4975 0C24.7401 0 29.0076 4.53998 29.0076 10.1269C29.0076 15.7137 24.7401 20.2537 19.4975 20.2537M19.4975 2.33737C15.555 2.33737 12.3465 5.83564 12.3465 10.132C12.3465 14.4284 15.555 17.9267 19.4975 17.9267C23.4399 17.9267 26.6484 14.4284 26.6484 10.132C26.6484 5.83564 23.4399 2.33737 19.4975 2.33737Z" fill="#494949"/>
<path d="M28.8868 11.5827C28.5828 11.5827 28.2839 11.4687 28.0533 11.2406C23.3349 6.57627 15.6597 6.57627 10.9465 11.2406C10.4852 11.6967 9.74072 11.6967 9.27936 11.2406C8.81801 10.7846 8.81801 10.0486 9.27936 9.59256C14.9152 4.02123 24.0846 4.02123 29.7257 9.59256C30.187 10.0486 30.187 10.7846 29.7257 11.2406C29.495 11.4687 29.1962 11.5827 28.8921 11.5827" fill="#494949"/>
<path d="M37.8152 42.0004H1.17959C0.529507 42.0004 0 41.477 0 40.8344V31.8736C0 26.4318 4.47722 22.0059 9.98199 22.0059H29.018C34.5228 22.0059 39 26.4318 39 31.8736V40.8344C39 41.477 38.4705 42.0004 37.8204 42.0004M2.36443 39.6683H36.6408V31.8736C36.6408 27.7171 33.2226 24.338 29.018 24.338H9.98199C5.77739 24.338 2.35919 27.7171 2.35919 31.8736V39.6683H2.36443Z" fill="#494949"/>
<path d="M7.08804 41.5125C6.43795 41.5125 5.90845 40.9891 5.90845 40.3464V32.4014C5.90845 31.7588 6.43795 31.2354 7.08804 31.2354C7.73813 31.2354 8.26764 31.7588 8.26764 32.4014V40.3464C8.26764 40.9891 7.73813 41.5125 7.08804 41.5125Z" fill="#494949"/>
<path d="M31.9066 41.5125C31.2566 41.5125 30.7271 40.9891 30.7271 40.3464V32.4014C30.7271 31.7588 31.2566 31.2354 31.9066 31.2354C32.5567 31.2354 33.0862 31.7588 33.0862 32.4014V40.3464C33.0862 40.9891 32.5567 41.5125 31.9066 41.5125Z" fill="#494949"/>
</svg>
