<svg width="38" height="40" viewBox="0 0 38 40" fill="none" xmlns="http://www.w3.org/2000/svg">
<path d="M30.7984 40.0002H1.05183C0.469965 40.0002 0 39.5323 0 38.9529V6.58739C0 6.00801 0.469965 5.54004 1.05183 5.54004H30.7984C31.3803 5.54004 31.8502 6.00801 31.8502 6.58739V38.9529C31.8502 39.5323 31.3803 40.0002 30.7984 40.0002ZM2.10365 37.9055H29.7466V7.63475H2.10365V37.9055Z" fill="#494949"/>
<path d="M34.1059 13.5353L36.9481 10.7052L34.1059 7.87962V3.88184H30.0911L27.2489 1.05176L24.4112 3.88184H20.3919V7.87962L17.5542 10.7052L20.3919 13.5353V17.5331H24.4112L27.2489 20.3632L30.0911 17.5331H34.1059V13.5353Z" fill="#BB0841"/>
<path d="M27.2491 21.4106C26.9716 21.4106 26.703 21.2992 26.5061 21.1031L23.9727 18.5805H20.392C19.8102 18.5805 19.3402 18.1125 19.3402 17.5332V13.9677L16.8069 11.4451C16.6099 11.249 16.498 10.9816 16.498 10.7053C16.498 10.429 16.6099 10.1616 16.8069 9.96547L19.3402 7.4429V3.87744C19.3402 3.29805 19.8102 2.83009 20.392 2.83009H23.9727L26.5061 0.307521C26.703 0.111421 26.9716 0 27.2491 0C27.5266 0 27.7951 0.111421 27.9921 0.307521L30.5254 2.83009H34.1061C34.6879 2.83009 35.1579 3.29805 35.1579 3.87744V7.4429L37.6912 9.96547C37.8882 10.1616 38.0001 10.429 38.0001 10.7053C38.0001 10.9816 37.8882 11.249 37.6912 11.4451L35.1579 13.9677V17.5332C35.1579 18.1125 34.6879 18.5805 34.1061 18.5805H30.5254L27.9921 21.1031C27.7951 21.2992 27.5266 21.4106 27.2491 21.4106ZM21.4439 16.4903H24.4069C24.6844 16.4903 24.9529 16.6017 25.1499 16.7978L27.2446 18.888L29.3393 16.8022C29.5362 16.6061 29.8048 16.4947 30.0823 16.4947H33.0453V13.5443C33.0453 13.268 33.1572 13.0006 33.3541 12.8045L35.4488 10.7187L33.3541 8.63288C33.1572 8.43678 33.0453 8.16937 33.0453 7.89304V4.94262H30.0823C29.8048 4.94262 29.5362 4.8312 29.3393 4.6351L27.2446 2.54931L25.1499 4.63956C24.9529 4.83566 24.6844 4.94708 24.4069 4.94708H21.4439V7.8975C21.4439 8.17382 21.332 8.44123 21.135 8.63733L19.0403 10.7231L21.135 12.8089C21.332 13.005 21.4439 13.2724 21.4439 13.5488V16.4992V16.4903Z" fill="#BB0841"/>
<path d="M25.5751 15.7775C25.2976 15.7775 25.029 15.6661 24.8321 15.47L21.7795 12.4305C21.3678 12.0204 21.3678 11.3564 21.7795 10.9508C22.1913 10.5408 22.8582 10.5408 23.2655 10.9508L25.5751 13.2505L31.2326 7.61709C31.6443 7.20706 32.3112 7.20706 32.7185 7.61709C33.1303 8.02712 33.1303 8.69119 32.7185 9.09676L26.3181 15.47C26.1211 15.6661 25.8526 15.7775 25.5751 15.7775Z" fill="white"/>
<path d="M20.3559 34.7051H6.17194C5.59008 34.7051 5.12012 34.2371 5.12012 33.6577C5.12012 33.0783 5.59008 32.6104 6.17194 32.6104H20.3559C20.9378 32.6104 21.4078 33.0783 21.4078 33.6577C21.4078 34.2371 20.9378 34.7051 20.3559 34.7051Z" fill="#494949"/>
<path d="M12.085 30.3867H6.17683C5.59497 30.3867 5.125 29.9187 5.125 29.3393C5.125 28.76 5.59497 28.292 6.17683 28.292H12.085C12.6668 28.292 13.1368 28.76 13.1368 29.3393C13.1368 29.9187 12.6668 30.3867 12.085 30.3867Z" fill="#494949"/>
<path d="M14.8417 26.0722H6.17194C5.59008 26.0722 5.12012 25.6043 5.12012 25.0249C5.12012 24.4455 5.59008 23.9775 6.17194 23.9775H14.8417C15.4236 23.9775 15.8935 24.4455 15.8935 25.0249C15.8935 25.6043 15.4236 26.0722 14.8417 26.0722Z" fill="#494949"/>
</svg>
