<svg width="44" height="41" viewBox="0 0 44 41" fill="none" xmlns="http://www.w3.org/2000/svg">
<path d="M25.6244 34.4697H6.1701C5.6357 34.4697 5.17484 34.1033 5.04736 33.5905L0.0318133 12.685C-0.051534 12.3431 0.0318133 11.9817 0.247536 11.7082C0.468161 11.4297 0.796648 11.2734 1.14965 11.2734H40.5239C40.8769 11.2734 41.2103 11.4346 41.426 11.7082C41.6467 11.9817 41.7251 12.3431 41.6418 12.685L38.9943 23.6995C38.8472 24.3149 38.2196 24.6959 37.6068 24.5494C36.989 24.4028 36.6066 23.7825 36.7537 23.1671L39.058 13.5691H2.61558L7.08202 32.1789H25.6244C26.2617 32.1789 26.7765 32.6917 26.7765 33.3267C26.7765 33.9617 26.2617 34.4745 25.6244 34.4745" fill="#494949"/>
<path d="M35.4691 13.5641C34.8317 13.5641 34.3169 13.0512 34.3169 12.4163V7.19478H19.2409C18.9369 7.19478 18.6427 7.07267 18.427 6.85776L13.8478 2.29569H7.36632V12.4163C7.36632 13.0512 6.85153 13.5641 6.21417 13.5641C5.5768 13.5641 5.06201 13.0512 5.06201 12.4163V1.14784C5.06201 0.512866 5.5768 0 6.21417 0H14.3283C14.6322 0 14.9264 0.122111 15.1421 0.337027L19.7213 4.8991H35.4691C36.1064 4.8991 36.6212 5.41196 36.6212 6.04694V12.4163C36.6212 13.0512 36.1064 13.5641 35.4691 13.5641Z" fill="#494949"/>
<path d="M32.7677 38.7921C27.7914 38.7921 23.7466 34.7625 23.7466 29.8048C23.7466 24.847 27.7914 20.8174 32.7677 20.8174C37.744 20.8174 41.7888 24.847 41.7888 29.8048C41.7888 34.7625 37.744 38.7921 32.7677 38.7921ZM32.7677 23.1131C29.0661 23.1131 26.0509 26.117 26.0509 29.8048C26.0509 33.4925 29.0661 36.4964 32.7677 36.4964C36.4693 36.4964 39.4845 33.4925 39.4845 29.8048C39.4845 26.117 36.4693 23.1131 32.7677 23.1131Z" fill="#BB0841"/>
<path d="M42.8479 41.0003C42.5538 41.0003 42.2596 40.8879 42.0341 40.6633L37.6068 36.2526C37.1558 35.8032 37.1558 35.0755 37.6068 34.631C38.0579 34.1816 38.7884 34.1816 39.2346 34.631L43.6618 39.0416C44.1128 39.491 44.1128 40.2188 43.6618 40.6633C43.4363 40.8879 43.1421 41.0003 42.8479 41.0003Z" fill="#BB0841"/>
</svg>
