<svg width="39" height="39" viewBox="0 0 39 39" fill="none" xmlns="http://www.w3.org/2000/svg">
<path d="M38.1394 39H10.6932C10.2191 39 9.83301 38.6202 9.83301 38.1539V4.60294C9.83301 4.13664 10.2191 3.75684 10.6932 3.75684H31.7625C31.9918 3.75684 32.2098 3.84709 32.3703 4.00503L38.7435 10.2737C38.9041 10.4317 38.9958 10.646 38.9958 10.8717V38.1539C38.9958 38.6202 38.6097 39 38.1356 39M11.5534 37.3078H37.2754V11.2214L31.4031 5.44529H11.5534V37.3078Z" fill="#494949"/>
<path d="M38.1396 11.7171H31.7665C31.2924 11.7171 30.9062 11.3373 30.9062 10.871V4.60226C30.9062 4.26005 31.1165 3.95169 31.4377 3.82008C31.7588 3.68846 32.1297 3.76367 32.3743 4.00434L38.7475 10.2731C38.9922 10.5137 39.0686 10.8785 38.9348 11.1944C38.801 11.5103 38.4875 11.7171 38.1396 11.7171ZM32.6267 10.0249H36.0636L32.6267 6.6442V10.0249Z" fill="#494949"/>
<path d="M17.8348 20.2358C16.3782 20.2358 15.1892 19.07 15.1892 17.6335C15.1892 16.197 16.3744 15.0312 17.8348 15.0312C19.2952 15.0312 20.4804 16.197 20.4804 17.6335C20.4804 19.07 19.2952 20.2358 17.8348 20.2358ZM17.8348 16.7235C17.3263 16.7235 16.9096 17.1296 16.9096 17.6335C16.9096 18.1374 17.3225 18.5435 17.8348 18.5435C18.3471 18.5435 18.76 18.1374 18.76 17.6335C18.76 17.1296 18.3433 16.7235 17.8348 16.7235Z" fill="#494949"/>
<path d="M32.7832 18.4832H22.9654C22.4914 18.4832 22.1052 18.1034 22.1052 17.6371C22.1052 17.1708 22.4914 16.791 22.9654 16.791H32.7832C33.2573 16.791 33.6434 17.1708 33.6434 17.6371C33.6434 18.1034 33.2573 18.4832 32.7832 18.4832Z" fill="#494949"/>
<path d="M17.8348 27.3686C16.3782 27.3686 15.1892 26.2028 15.1892 24.7663C15.1892 23.3298 16.3744 22.1641 17.8348 22.1641C19.2952 22.1641 20.4804 23.3298 20.4804 24.7663C20.4804 26.2028 19.2952 27.3686 17.8348 27.3686ZM17.8348 23.8563C17.3263 23.8563 16.9096 24.2624 16.9096 24.7663C16.9096 25.2702 17.3225 25.6763 17.8348 25.6763C18.3471 25.6763 18.76 25.2702 18.76 24.7663C18.76 24.2624 18.3433 23.8563 17.8348 23.8563Z" fill="#494949"/>
<path d="M32.7832 25.6121H22.9654C22.4914 25.6121 22.1052 25.2323 22.1052 24.766C22.1052 24.2997 22.4914 23.9199 22.9654 23.9199H32.7832C33.2573 23.9199 33.6434 24.2997 33.6434 24.766C33.6434 25.2323 33.2573 25.6121 32.7832 25.6121Z" fill="#494949"/>
<path d="M17.8348 34.5024C16.3782 34.5024 15.1892 33.3366 15.1892 31.9001C15.1892 30.4636 16.3744 29.2979 17.8348 29.2979C19.2952 29.2979 20.4804 30.4636 20.4804 31.9001C20.4804 33.3366 19.2952 34.5024 17.8348 34.5024ZM17.8348 30.9901C17.3263 30.9901 16.9096 31.3962 16.9096 31.9001C16.9096 32.404 17.3225 32.8101 17.8348 32.8101C18.3471 32.8101 18.76 32.404 18.76 31.9001C18.76 31.3962 18.3433 30.9901 17.8348 30.9901Z" fill="#494949"/>
<path d="M32.7832 32.7459H22.9654C22.4914 32.7459 22.1052 32.3661 22.1052 31.8998C22.1052 31.4335 22.4914 31.0537 22.9654 31.0537H32.7832C33.2573 31.0537 33.6434 31.4335 33.6434 31.8998C33.6434 32.3661 33.2573 32.7459 32.7832 32.7459Z" fill="#494949"/>
<path d="M16.0341 8.30747C16.0341 4.18598 12.6392 0.84668 8.44901 0.84668C4.25887 0.84668 0.860107 4.18598 0.860107 8.30747C0.860107 12.429 4.25504 15.7683 8.44519 15.7683C12.6353 15.7683 16.0303 12.429 16.0303 8.30747" fill="white"/>
<path d="M8.44528 16.6175C3.78872 16.6175 0 12.8872 0 8.30689C0 3.72663 3.78872 0 8.44528 0C13.1019 0 16.8906 3.72663 16.8906 8.30689C16.8906 12.8872 13.1019 16.6138 8.44528 16.6138M8.44528 1.68845C4.73685 1.68845 1.72041 4.65547 1.72041 8.30313C1.72041 11.9508 4.73685 14.9178 8.44528 14.9178C12.1537 14.9178 15.1702 11.9508 15.1702 8.30313C15.1702 4.65547 12.1537 1.69221 8.44528 1.69221" fill="#C01B50"/>
<path d="M6.82054 11.8757C6.5988 11.8757 6.38088 11.7929 6.21266 11.6275L4.17493 9.62314C3.8385 9.29222 3.8385 8.75823 4.17493 8.42731C4.51137 8.09639 5.05425 8.09639 5.39069 8.42731L6.82054 9.83373L10.9801 5.74233C11.3165 5.41141 11.8594 5.41141 12.1959 5.74233C12.5323 6.07325 12.5323 6.60724 12.1959 6.93816L7.42841 11.6275C7.2602 11.7929 7.04228 11.8757 6.82054 11.8757Z" fill="#C01B50"/>
</svg>
