<svg width="42" height="30" viewBox="0 0 42 30" fill="none" xmlns="http://www.w3.org/2000/svg">
<path fill-rule="evenodd" clip-rule="evenodd" d="M3.17359 25.7803L0.0318133 12.685C-0.051534 12.3431 0.0318133 11.9817 0.247536 11.7082C0.468161 11.4297 0.796648 11.2734 1.14965 11.2734H5.06207V1.14784C5.06207 0.512866 5.57687 0 6.21423 0H14.3283C14.6323 0 14.9265 0.122111 15.1422 0.337027L19.7214 4.8991H35.4691C36.1065 4.8991 36.6213 5.41196 36.6213 6.04694V11.2734H40.5239C40.8769 11.2734 41.2103 11.4346 41.426 11.7082C41.6467 11.9817 41.7251 12.3431 41.6418 12.685L39.0711 23.3797C39.7831 24.0731 40.3805 24.8828 40.8323 25.7775C40.1386 26.1065 39.4349 26.4179 38.7218 26.7112C37.5983 24.575 35.35 23.1131 32.7677 23.1131C29.0661 23.1131 26.0509 26.117 26.0509 29.8048C26.0509 29.8085 26.0509 29.8123 26.0509 29.816C25.2887 29.8856 24.5209 29.9357 23.748 29.9659C23.7471 29.9123 23.7466 29.8586 23.7466 29.8048C23.7466 24.847 27.7914 20.8174 32.7677 20.8174C34.3199 20.8174 35.7815 21.2094 37.058 21.8995L39.058 13.5691H2.61558L5.82243 26.9307C4.92463 26.5755 4.04131 26.1917 3.17359 25.7803ZM34.317 7.19478V11.2734H7.36638V2.29569H13.8479L18.4271 6.85776C18.6428 7.07267 18.937 7.19478 19.2409 7.19478H34.317Z" fill="white" fill-opacity="0.2"/>
</svg>
