<svg width="16" height="16" viewBox="0 0 16 16" fill="none" xmlns="http://www.w3.org/2000/svg">
<path fill-rule="evenodd" clip-rule="evenodd" d="M11.9907 6.00572C11.9907 2.68714 9.30504 0 5.99534 0C2.68563 0 0 2.69416 0 6.00572C0 9.31729 2.68563 12.0114 5.99534 12.0114C7.41276 12.0114 8.71572 11.5186 9.74229 10.6944L14.8589 15.8004C15.1184 16.067 15.5391 16.067 15.8055 15.8004C16.065 15.5408 16.065 15.1128 15.8055 14.8532L10.687 9.7453C11.5029 8.71952 11.9907 7.41996 11.9907 6.00572ZM10.6586 6.00549C10.6586 3.42359 8.56903 1.33281 5.99559 1.33281C3.42215 1.33281 1.33255 3.43061 1.33255 6.00549C1.33255 8.58037 3.42215 10.6782 5.99559 10.6782C8.56903 10.6782 10.6586 8.58739 10.6586 6.00549Z" fill="white"/>
</svg>
