<svg width="16" height="17" viewBox="0 0 16 17" fill="none" xmlns="http://www.w3.org/2000/svg">
<path d="M13.3909 10.2948H10.3076L11.0042 13.4192C11.0899 13.8049 11.0622 14.207 10.9246 14.5775C10.7869 14.9479 10.545 15.2711 10.2278 15.5083L9.74806 15.8666C9.57498 15.9964 9.37617 16.0881 9.16481 16.1355C8.95346 16.183 8.73438 16.1852 8.5221 16.142C8.30982 16.0988 8.1092 16.0111 7.93353 15.8848C7.75786 15.7585 7.61115 15.5965 7.50314 15.4095C6.55482 13.6908 5.47428 12.0479 4.2712 10.4954C4.22493 10.5929 4.15188 10.6754 4.06048 10.7334C3.96908 10.7913 3.86308 10.8223 3.75473 10.8228H0.573854C0.421658 10.8228 0.275696 10.7626 0.168078 10.6554C0.0604594 10.5482 0 10.4029 0 10.2514V1.27224C0 1.1207 0.0604594 0.975358 0.168078 0.868198C0.275696 0.761038 0.421658 0.700836 0.573854 0.700836H3.75645C3.89378 0.701832 4.02608 0.752428 4.12878 0.843229C4.23147 0.934031 4.29758 1.05886 4.31481 1.19453C4.61159 0.873693 4.97172 0.617338 5.37263 0.441532C5.77354 0.265726 6.20659 0.174255 6.64466 0.172853H9.79511C10.3166 0.172279 10.8302 0.300234 11.29 0.545302C11.7498 0.790371 12.1415 1.14493 12.4303 1.57738L15.5623 6.2555C15.8241 6.64686 15.9743 7.1016 15.997 7.57126C16.0197 8.04093 15.9139 8.50792 15.6911 8.92247C15.4682 9.33702 15.1366 9.68359 14.7315 9.92527C14.3264 10.1669 13.8631 10.2946 13.3909 10.2948ZM3.18259 1.84365H1.14771V9.68052H3.18259V1.84365ZM14.6075 6.88862L11.4754 2.21107C11.2912 1.93542 11.0414 1.70941 10.7482 1.55319C10.455 1.39696 10.1276 1.31537 9.79511 1.31567H6.64466C6.33119 1.31638 6.02215 1.38939 5.74178 1.52898C5.46141 1.66856 5.21733 1.87094 5.02868 2.12022L4.3303 3.04704V8.91541C5.52908 9.9228 7.23573 12.649 8.49821 14.8403C8.52474 14.887 8.5611 14.9274 8.60478 14.9588C8.64846 14.9901 8.69843 15.0117 8.75128 15.0221C8.80467 15.0332 8.85984 15.0328 8.91309 15.021C8.96633 15.0092 9.01643 14.9862 9.06001 14.9535L9.53918 14.5952C9.67992 14.4897 9.78722 14.3461 9.84827 14.1816C9.90932 14.0171 9.92155 13.8385 9.88349 13.6672L9.03304 9.84737C9.01439 9.76385 9.01482 9.67722 9.03429 9.59389C9.05376 9.51055 9.09178 9.43263 9.14554 9.36589C9.1993 9.29914 9.26743 9.24526 9.3449 9.20824C9.42236 9.17121 9.50719 9.15198 9.59312 9.15197H13.3926C13.6571 9.15174 13.9167 9.08009 14.1436 8.94463C14.3704 8.80918 14.5562 8.615 14.681 8.38275C14.8058 8.15052 14.8651 7.88891 14.8524 7.6258C14.8398 7.36269 14.7557 7.10793 14.6092 6.88862H14.6075Z" fill="#626262"/>
</svg>
