<svg width="38" height="41" viewBox="0 0 38 41" fill="none" xmlns="http://www.w3.org/2000/svg">
<path d="M30.3524 7.58251V2.7041H7.64746V7.58251C7.64746 13.1369 10.7207 17.9758 15.2593 20.498C10.7207 23.0203 7.64746 27.8591 7.64746 33.4136V38.292H30.3524V33.4136C30.3524 27.8591 27.2791 23.0203 22.7405 20.498C27.2831 17.9758 30.3524 13.1369 30.3524 7.58251Z" fill="white"/>
<path d="M30.3524 39.1853H7.64744C7.15635 39.1853 6.75635 38.786 6.75635 38.2958V33.4174C6.75635 28.2306 9.33457 23.4075 13.5722 20.5018C9.33457 17.5961 6.75635 12.7691 6.75635 7.58632V2.70395C6.75635 2.21374 7.15635 1.81445 7.64744 1.81445H30.3524C30.8435 1.81445 31.2435 2.21374 31.2435 2.70395V7.58236C31.2435 12.7691 28.6653 17.5922 24.4276 20.4979C28.6653 23.4036 31.2435 28.2306 31.2435 33.4134V38.2918C31.2435 38.782 30.8435 39.1813 30.3524 39.1813M8.53853 37.4023H29.4613V33.4134C29.4613 28.3769 26.7207 23.7278 22.3049 21.2727C22.0237 21.1146 21.8494 20.8181 21.8494 20.4939C21.8494 20.1698 22.0237 19.8733 22.3049 19.7151C26.7207 17.2641 29.4613 12.611 29.4613 7.57446V3.58554H8.53853V7.57446C8.53853 12.611 11.2791 17.2601 15.695 19.7151C15.9762 19.8733 16.1544 20.1698 16.1544 20.49C16.1544 20.8102 15.9801 21.1107 15.695 21.2688C11.2791 23.7199 8.53853 28.3729 8.53853 33.4095V37.3984V37.4023Z" fill="#494949"/>
<path d="M37.1089 2.80306C37.1089 3.8586 36.2495 4.71647 35.1921 4.71647H2.80795C1.75052 4.71647 0.891113 3.8586 0.891113 2.80306C0.891113 1.74752 1.75052 0.889648 2.80795 0.889648H35.1921C36.2495 0.889648 37.1089 1.74752 37.1089 2.80306Z" fill="#494949"/>
<path d="M35.1921 5.60582H2.80792C1.25941 5.60582 0 4.34866 0 2.80291C0 1.25716 1.25941 0 2.80792 0H35.1921C36.7406 0 38 1.25716 38 2.80291C38 4.34866 36.7406 5.60582 35.1921 5.60582ZM2.80792 1.779C2.24158 1.779 1.78218 2.23759 1.78218 2.80291C1.78218 3.36824 2.24158 3.82682 2.80792 3.82682H35.1921C35.7584 3.82682 36.2178 3.36824 36.2178 2.80291C36.2178 2.23759 35.7584 1.779 35.1921 1.779H2.80792Z" fill="white"/>
<path d="M37.1089 38.1976C37.1089 39.2531 36.2495 40.111 35.1921 40.111H2.80795C1.75052 40.111 0.891113 39.2531 0.891113 38.1976C0.891113 37.1421 1.75052 36.2842 2.80795 36.2842H35.1921C36.2495 36.2842 37.1089 37.1421 37.1089 38.1976Z" fill="#494949"/>
<path d="M35.1921 41.0004H2.80792C1.25941 41.0004 0 39.7432 0 38.1974C0 36.6517 1.25941 35.3945 2.80792 35.3945H35.1921C36.7406 35.3945 38 36.6517 38 38.1974C38 39.7432 36.7406 41.0004 35.1921 41.0004ZM2.80792 37.1735C2.24158 37.1735 1.78218 37.6321 1.78218 38.1974C1.78218 38.7628 2.24158 39.2214 2.80792 39.2214H35.1921C35.7584 39.2214 36.2178 38.7628 36.2178 38.1974C36.2178 37.6321 35.7584 37.1735 35.1921 37.1735H2.80792Z" fill="white"/>
<path d="M3.42185 36.4142C2.93076 36.4142 2.53076 36.0149 2.53076 35.5247V5.47934C2.53076 4.98913 2.93076 4.58984 3.42185 4.58984C3.91294 4.58984 4.31294 4.98913 4.31294 5.47934V35.5247C4.31294 36.0149 3.91294 36.4142 3.42185 36.4142Z" fill="#494949"/>
<path d="M34.5781 36.4142C34.087 36.4142 33.687 36.0149 33.687 35.5247V5.47934C33.687 4.98913 34.087 4.58984 34.5781 4.58984C35.0692 4.58984 35.4692 4.98913 35.4692 5.47934V35.5247C35.4692 36.0149 35.0692 36.4142 34.5781 36.4142Z" fill="#494949"/>
<path d="M19.0019 27.9658C14.4078 27.9658 10.6851 30.5315 10.6851 33.6981H27.3187C27.3187 30.5315 23.596 27.9658 19.0019 27.9658Z" fill="#C01B50"/>
<path d="M20.2376 25.4473C20.2376 24.7634 19.6832 24.2139 19.002 24.2139C18.3208 24.2139 17.7664 24.7673 17.7664 25.4473C17.7664 26.1273 18.3208 26.6807 19.002 26.6807C19.6832 26.6807 20.2376 26.1273 20.2376 25.4473Z" fill="#C01B50"/>
<path d="M20.2376 21.3438C20.2376 20.6599 19.6832 20.1104 19.002 20.1104C18.3208 20.1104 17.7664 20.6638 17.7664 21.3438C17.7664 22.0238 18.3208 22.5772 19.002 22.5772C19.6832 22.5772 20.2376 22.0238 20.2376 21.3438Z" fill="#C01B50"/>
</svg>
