<svg width="38" height="38" viewBox="0 0 38 38" fill="none" xmlns="http://www.w3.org/2000/svg">
<g id="&#62;">
<circle id="Ellipse 6" cx="19" cy="19" r="18.5" fill="white" stroke="#D8D8D8"/>
<g id="Group 42479">
<path id="plus" fill-rule="evenodd" clip-rule="evenodd" d="M16 19.875V25.5C16 25.7761 16.2239 26 16.5 26C16.7761 26 17 25.7761 17 25.5V19.875V18.125V12.5C17 12.2239 16.7761 12 16.5 12C16.2239 12 16 12.2239 16 12.5V18.125V19.875Z" fill="#BF0C3F"/>
<path id="plus_2" fill-rule="evenodd" clip-rule="evenodd" d="M21.25 19.875V25.5C21.25 25.7761 21.4739 26 21.75 26C22.0261 26 22.25 25.7761 22.25 25.5V19.875V18.125V12.5C22.25 12.2239 22.0261 12 21.75 12C21.4739 12 21.25 12.2239 21.25 12.5V18.125V19.875Z" fill="#BF0C3F"/>
</g>
</g>
</svg>
