<svg width="45" height="42" viewBox="0 0 45 42" fill="none" xmlns="http://www.w3.org/2000/svg">
<path d="M36.7314 29.651C36.4508 29.651 36.1744 29.5419 35.9672 29.3324L30.9326 24.2444C30.7297 24.0393 30.6174 23.7644 30.6174 23.472V17.6248C30.6174 15.9229 29.2444 14.5353 27.5604 14.5353H13.3031C12.7072 14.5353 12.2236 14.0466 12.2236 13.4444V5.27128C12.2236 2.3651 14.5639 0 17.4395 0H39.7841C42.6597 0 45 2.3651 45 5.27128V18.0655C45 20.9717 42.6597 23.3368 39.7841 23.3368H37.8152V28.5601C37.8152 29.0008 37.5518 29.3979 37.1502 29.5681C37.0164 29.6248 36.8782 29.651 36.7357 29.651H36.7314ZM32.7763 23.0182L35.652 25.9244V22.2459C35.652 21.6437 36.1356 21.155 36.7314 21.155H39.7798C41.4637 21.155 42.8368 19.7673 42.8368 18.0655V5.27128C42.8368 3.56946 41.4637 2.18182 39.7798 2.18182H17.4352C15.7513 2.18182 14.3782 3.56946 14.3782 5.27128V12.3491H27.5561C30.4318 12.3491 32.772 14.7142 32.772 17.6204V23.0182H32.7763Z" fill="#3E3A39"/>
<path d="M10.8722 24.2052C10.8722 23.2234 10.0863 22.4336 9.11916 22.4336C8.15197 22.4336 7.36182 23.2278 7.36182 24.2052C7.36182 25.1827 8.14765 25.9769 9.11916 25.9769C10.0907 25.9769 10.8722 25.1827 10.8722 24.2052Z" fill="#525252"/>
<path d="M10.8722 24.2052C10.8722 23.2234 10.0863 22.4336 9.11916 22.4336C8.15197 22.4336 7.36182 23.2278 7.36182 24.2052C7.36182 25.1827 8.14765 25.9769 9.11916 25.9769C10.0907 25.9769 10.8722 25.1827 10.8722 24.2052Z" fill="white"/>
<path fill-rule="evenodd" clip-rule="evenodd" d="M8.26425 41.9996C8.12608 41.9996 7.98359 41.9734 7.84974 41.9167C7.44819 41.7465 7.1848 41.3494 7.1848 40.9087V35.6854H5.21589C2.34024 35.6854 0 33.3203 0 30.4141V17.6199C0 14.7137 2.34024 12.3486 5.21589 12.3486H27.5604C30.4361 12.3486 32.7763 14.7137 32.7763 17.6199V30.4141C32.7763 33.3203 30.4361 35.6854 27.5604 35.6854H14.9611L9.0285 41.6811C8.82124 41.8905 8.5449 41.9996 8.26425 41.9996ZM2.15889 17.6199C2.15889 15.9181 3.53195 14.5305 5.21589 14.5305V14.5348H27.5561C29.2401 14.5348 30.6131 15.9225 30.6131 17.6243V30.4185C30.6131 32.1203 29.2401 33.5079 27.5561 33.5079H14.5121C14.2228 33.5079 13.9508 33.6214 13.7478 33.8265L9.3437 38.2774V34.5945C9.3437 33.9923 8.8601 33.5036 8.26425 33.5036H5.21589C3.53195 33.5036 2.15889 32.1159 2.15889 30.4141V17.6199Z" fill="#BF0C3F"/>
<path d="M5.21589 14.5305C3.53195 14.5305 2.15889 15.9181 2.15889 17.6199V30.4141C2.15889 32.1159 3.53195 33.5036 5.21589 33.5036H8.26425C8.8601 33.5036 9.3437 33.9923 9.3437 34.5945V38.2774L13.7478 33.8265C13.9508 33.6214 14.2228 33.5079 14.5121 33.5079H27.5561C29.2401 33.5079 30.6131 32.1203 30.6131 30.4185V17.6243C30.6131 15.9225 29.2401 14.5348 27.5561 14.5348H5.21589V14.5305Z" fill="#BF0C3F"/>
<path d="M8.096 27.528H6.5V19.62H11.468V20.868H8.096V22.848H11.228V24.072H8.096V27.528Z" fill="white"/>
<path d="M17.4876 27.528L16.8156 25.476H13.8636L13.2036 27.528H11.5236L14.3676 19.62H16.4676L19.2276 27.528H17.4876ZM15.3156 20.844L14.2836 24.216H16.4076L15.4116 20.844H15.3156Z" fill="white"/>
<path d="M19.9517 23.556C19.9517 22.18 20.2517 21.16 20.8517 20.496C21.4597 19.832 22.4077 19.5 23.6957 19.5C24.3437 19.5 24.8877 19.596 25.3277 19.788C25.7757 19.972 26.1357 20.244 26.4077 20.604C26.6797 20.956 26.8717 21.388 26.9837 21.9C27.1037 22.412 27.1637 22.988 27.1637 23.628C27.1637 24.436 27.0437 25.104 26.8037 25.632C26.5637 26.152 26.2557 26.564 25.8797 26.868L25.7597 26.964L27.3677 28.416L26.1437 29.256L24.4397 27.54C24.2637 27.58 24.0877 27.608 23.9117 27.624C23.7437 27.648 23.5757 27.66 23.4077 27.66C22.7677 27.66 22.2277 27.568 21.7877 27.384C21.3477 27.192 20.9917 26.92 20.7197 26.568C20.4477 26.208 20.2517 25.776 20.1317 25.272C20.0117 24.768 19.9517 24.196 19.9517 23.556ZM25.5077 23.472C25.5077 23.096 25.4797 22.74 25.4237 22.404C25.3757 22.068 25.2837 21.776 25.1477 21.528C25.0197 21.272 24.8397 21.072 24.6077 20.928C24.3757 20.776 24.0797 20.7 23.7197 20.7C23.3117 20.7 22.9677 20.768 22.6877 20.904C22.4157 21.032 22.1957 21.224 22.0277 21.48C21.8597 21.728 21.7397 22.036 21.6677 22.404C21.6037 22.772 21.5717 23.196 21.5717 23.676C21.5717 24.068 21.5957 24.432 21.6437 24.768C21.6997 25.104 21.7957 25.396 21.9317 25.644C22.0677 25.892 22.2517 26.088 22.4837 26.232C22.7157 26.376 23.0117 26.448 23.3717 26.448C23.7877 26.448 24.1317 26.388 24.4037 26.268C24.6837 26.14 24.9037 25.952 25.0637 25.704C25.2237 25.448 25.3357 25.136 25.3997 24.768C25.4717 24.4 25.5077 23.968 25.5077 23.472Z" fill="white"/>
</svg>
