<svg width="44" height="31" viewBox="0 0 44 31" fill="none" xmlns="http://www.w3.org/2000/svg">
<path d="M38.7976 29.3161C42.0842 27.005 43.4934 22.8302 42.2799 19C41.0664 15.1698 37.3503 13.0714 33.3325 13.0745H31.0115C29.4942 7.1613 24.488 2.79572 18.4233 2.0972C12.3585 1.39868 6.49099 4.5118 3.66909 9.9253C0.847195 15.3388 1.65524 21.9317 5.70094 26.5035" stroke="white" stroke-opacity="0.2" stroke-width="2.5" stroke-linecap="round" stroke-linejoin="round"/>
<path fill-rule="evenodd" clip-rule="evenodd" d="M23.1634 15.3881C22.6753 14.9 21.8838 14.9 21.3957 15.3881L15.0317 21.752C14.5435 22.2402 14.5435 23.0316 15.0316 23.5198C15.5198 24.0079 16.3112 24.0079 16.7994 23.5198L21.0299 19.2894L21.0377 36.0006C21.038 36.6909 21.5979 37.2503 22.2883 37.25C22.9786 37.2497 23.538 36.6898 23.5377 35.9994L23.5299 19.2901L27.7597 23.5198C28.2478 24.0079 29.0393 24.0079 29.5274 23.5198C30.0156 23.0316 30.0156 22.2402 29.5274 21.752L23.1634 15.3881Z" fill="white" fill-opacity="0.2"/>
</svg>
