<svg width="41" height="41" viewBox="0 0 41 41" fill="none" xmlns="http://www.w3.org/2000/svg">
<path d="M37.6149 34.913C37.021 34.913 36.5413 34.431 36.5413 33.8343V13.2195C36.5413 11.8975 35.4724 10.8234 34.1567 10.8234H9.25048C7.93481 10.8234 6.86584 11.8975 6.86584 13.2195V33.8297C6.86584 34.4264 6.38617 34.9084 5.79229 34.9084C5.19842 34.9084 4.71875 34.4264 4.71875 33.8297V13.2195C4.71875 10.7087 6.75163 8.66602 9.25048 8.66602H34.1613C36.6601 8.66602 38.693 10.7087 38.693 13.2195V33.8297C38.693 34.4264 38.2133 34.9084 37.6194 34.9084" fill="#494949"/>
<path d="M36.3312 40.9995H7.076C4.50406 40.9995 2.40723 38.8972 2.40723 36.3083V34.0728C2.40723 33.4761 2.8869 32.9941 3.48077 32.9941H39.9264C40.5203 32.9941 41 33.4761 41 34.0728V36.3083C41 38.8972 38.9077 40.9995 36.3312 40.9995ZM4.55888 35.147V36.3083C4.55888 37.7037 5.69181 38.8421 7.08057 38.8421H36.3312C37.72 38.8421 38.8529 37.7037 38.8529 36.3083V35.147H4.55431H4.55888Z" fill="#494949"/>
<path d="M12.8592 1.0791C6.3677 1.0791 1.10048 6.09623 1.10048 12.2793C1.10048 14.9692 2.09636 17.4387 3.75921 19.3712C3.0694 20.1332 2.18773 20.8263 1.07764 21.2119C1.07764 21.2119 3.27498 24.0395 7.75645 22.3778C9.30053 23.0847 11.0319 23.4841 12.8592 23.4841C19.3553 23.4841 24.6225 18.4669 24.6225 12.2839C24.6225 6.10082 19.3553 1.0791 12.8592 1.0791Z" fill="#BB0841"/>
<path d="M12.8594 24.5624C11.0687 24.5624 9.3373 24.2181 7.711 23.5341C6.79734 23.8325 5.90653 23.9794 5.05226 23.9794C1.90016 23.9794 0.296693 21.9643 0.228168 21.8771C0.0134596 21.6017 -0.0550645 21.239 0.0454375 20.9085C0.145939 20.5734 0.397195 20.3072 0.72611 20.197C1.28344 20.0043 1.81336 19.6967 2.3113 19.2836C0.831181 17.2318 0.0271644 14.7852 0.0271644 12.2789C0.0271644 5.50829 5.78319 0 12.8594 0C19.9357 0 25.6917 5.50829 25.6917 12.2789C25.6917 19.0495 19.9357 24.5578 12.8594 24.5578M7.75668 21.2941C7.90743 21.2941 8.06276 21.3262 8.20437 21.3905C9.66165 22.0607 11.2286 22.4004 12.8594 22.4004C18.7525 22.4004 23.5492 17.8606 23.5492 12.2789C23.5492 6.69716 18.7525 2.15741 12.8594 2.15741C6.96637 2.15741 2.17425 6.69716 2.17425 12.2789C2.17425 14.6015 3.02395 16.8691 4.5726 18.6685C4.92892 19.0816 4.91978 19.6967 4.55432 20.0961C4.0975 20.6056 3.60412 21.0371 3.08334 21.3905C3.58128 21.6246 4.23454 21.8174 5.05226 21.8174C5.78319 21.8174 6.56436 21.6613 7.38665 21.3584C7.50543 21.3125 7.63334 21.2895 7.75668 21.2895" fill="#BB0841"/>
<path d="M17.8937 11.2414H7.80694C7.21307 11.2414 6.7334 10.7594 6.7334 10.1627C6.7334 9.56596 7.21307 9.08398 7.80694 9.08398H17.8937C18.4876 9.08398 18.9672 9.56596 18.9672 10.1627C18.9672 10.7594 18.4876 11.2414 17.8937 11.2414Z" fill="white"/>
<path d="M17.8937 16.9797H7.80694C7.21307 16.9797 6.7334 16.4977 6.7334 15.901C6.7334 15.3042 7.21307 14.8223 7.80694 14.8223H17.8937C18.4876 14.8223 18.9672 15.3042 18.9672 15.901C18.9672 16.4977 18.4876 16.9797 17.8937 16.9797Z" fill="white"/>
</svg>
