<svg width="16" height="17" viewBox="0 0 16 17" fill="none" xmlns="http://www.w3.org/2000/svg">
<path d="M13.3909 6.05092H10.3076L11.0042 2.92645C11.0899 2.54077 11.0623 2.13867 10.9246 1.76822C10.7869 1.39776 10.545 1.07461 10.2278 0.837384L9.74806 0.47911C9.57498 0.349321 9.37617 0.257648 9.16481 0.210169C8.95346 0.162691 8.73438 0.160491 8.5221 0.203717C8.30982 0.246942 8.1092 0.334605 7.93353 0.460893C7.75786 0.587181 7.61115 0.74921 7.50314 0.936237C6.55482 2.65488 5.47428 4.29783 4.2712 5.85035C4.22493 5.75279 4.15188 5.67027 4.06048 5.61233C3.96908 5.55439 3.86308 5.52339 3.75473 5.52294H0.573854C0.421659 5.52294 0.275696 5.58314 0.168078 5.6903C0.0604594 5.79746 0 5.9428 0 6.09434V15.0735C0 15.225 0.0604594 15.3703 0.168078 15.4775C0.275696 15.5847 0.421659 15.6449 0.573854 15.6449H3.75645C3.89378 15.6439 4.02608 15.5933 4.12878 15.5025C4.23147 15.4117 4.29758 15.2868 4.31481 15.1512C4.61159 15.472 4.97172 15.7284 5.37263 15.9042C5.77354 16.08 6.20659 16.1714 6.64466 16.1728H9.79512C10.3166 16.1734 10.8302 16.0455 11.29 15.8004C11.7498 15.5553 12.1415 15.2008 12.4303 14.7683L15.5623 10.0902C15.8241 9.69885 15.9743 9.24411 15.997 8.77444C16.0197 8.30478 15.9139 7.83779 15.6911 7.42324C15.4682 7.00869 15.1366 6.66211 14.7315 6.42044C14.3264 6.17877 13.8631 6.05106 13.3909 6.05092ZM3.18259 14.5021H1.14771V6.66518H3.18259V14.5021ZM14.6075 9.45708L11.4754 14.1346C11.2912 14.4103 11.0414 14.6363 10.7482 14.7925C10.455 14.9487 10.1276 15.0303 9.79512 15.03H6.64466C6.33119 15.0293 6.02215 14.9563 5.74178 14.8167C5.46141 14.6771 5.21733 14.4748 5.02868 14.2255L4.3303 13.2987V7.4303C5.52908 6.4229 7.23573 3.69671 8.49821 1.50536C8.52474 1.4587 8.5611 1.4183 8.60478 1.38694C8.64846 1.35558 8.69843 1.33399 8.75128 1.32365C8.80467 1.31251 8.85984 1.31287 8.91309 1.32469C8.96634 1.33652 9.01643 1.35954 9.06001 1.39222L9.53918 1.75049C9.67992 1.85598 9.78722 1.99956 9.84827 2.1641C9.90932 2.32864 9.92155 2.50719 9.88349 2.67846L9.03304 6.49833C9.01439 6.58185 9.01482 6.66848 9.03429 6.75182C9.05376 6.83515 9.09178 6.91307 9.14554 6.97982C9.1993 7.04657 9.26743 7.10044 9.3449 7.13747C9.42236 7.17449 9.50719 7.19372 9.59312 7.19373H13.3926C13.6571 7.19396 13.9167 7.26561 14.1436 7.40107C14.3704 7.53652 14.5562 7.73071 14.681 7.96295C14.8058 8.19519 14.8651 8.45679 14.8524 8.7199C14.8398 8.98301 14.7557 9.23778 14.6092 9.45708H14.6075Z" fill="#626262"/>
</svg>
