<svg width="45" height="33" viewBox="0 0 45 33" fill="none" xmlns="http://www.w3.org/2000/svg">
<path d="M43.8342 33H1.1658C0.523316 33 0 32.478 0 31.8371V1.16288C0 0.522005 0.523316 0 1.1658 0H43.8342C44.4767 0 45 0.522005 45 1.16288V31.8371C45 32.478 44.4767 33 43.8342 33ZM2.33161 30.6742H42.6684V2.32576H2.33161V30.6742Z" fill="#494949"/>
<path d="M22.4973 26.9375C21.8549 26.9375 21.3315 26.4155 21.3315 25.7746V7.22538C21.3315 6.5845 21.8549 6.0625 22.4973 6.0625C23.1398 6.0625 23.6631 6.5845 23.6631 7.22538V25.7798C23.6631 26.4207 23.1398 26.9427 22.4973 26.9427" fill="#494949"/>
<path d="M38.4301 6.79688H31.5286V14.875H38.4301V6.79688Z" fill="#C01B50"/>
<path d="M16.2281 11.6754H7.5286C6.88611 11.6754 6.36279 11.1534 6.36279 10.5125C6.36279 9.87161 6.88611 9.34961 7.5286 9.34961H16.2281C16.8706 9.34961 17.3939 9.87161 17.3939 10.5125C17.3939 11.1534 16.8706 11.6754 16.2281 11.6754Z" fill="#494949"/>
<path d="M16.2281 17.6607H7.5286C6.88611 17.6607 6.36279 17.1387 6.36279 16.4978C6.36279 15.857 6.88611 15.335 7.5286 15.335H16.2281C16.8706 15.335 17.3939 15.857 17.3939 16.4978C17.3939 17.1387 16.8706 17.6607 16.2281 17.6607Z" fill="#494949"/>
<path d="M16.2281 23.6451H7.5286C6.88611 23.6451 6.36279 23.1231 6.36279 22.4822C6.36279 21.8413 6.88611 21.3193 7.5286 21.3193H16.2281C16.8706 21.3193 17.3939 21.8413 17.3939 22.4822C17.3939 23.1231 16.8706 23.6451 16.2281 23.6451Z" fill="#494949"/>
</svg>
