<svg width="20" height="15" viewBox="0 0 20 15" fill="none" xmlns="http://www.w3.org/2000/svg">
<path fill-rule="evenodd" clip-rule="evenodd" d="M0 0.9375C0 0.68886 0.0987719 0.450403 0.274587 0.274587C0.450403 0.0987719 0.68886 0 0.9375 0H19.0625C19.3111 0 19.5496 0.0987719 19.7254 0.274587C19.9012 0.450403 20 0.68886 20 0.9375C20 1.18614 19.9012 1.4246 19.7254 1.60041C19.5496 1.77623 19.3111 1.875 19.0625 1.875H0.9375C0.68886 1.875 0.450403 1.77623 0.274587 1.60041C0.0987719 1.4246 0 1.18614 0 0.9375ZM0 7.5C0 7.25136 0.0987719 7.0129 0.274587 6.83709C0.450403 6.66127 0.68886 6.5625 0.9375 6.5625H19.0625C19.3111 6.5625 19.5496 6.66127 19.7254 6.83709C19.9012 7.0129 20 7.25136 20 7.5C20 7.74864 19.9012 7.9871 19.7254 8.16291C19.5496 8.33873 19.3111 8.4375 19.0625 8.4375H0.9375C0.68886 8.4375 0.450403 8.33873 0.274587 8.16291C0.0987719 7.9871 0 7.74864 0 7.5ZM0 14.0625C0 13.8139 0.0987719 13.5754 0.274587 13.3996C0.450403 13.2238 0.68886 13.125 0.9375 13.125H19.0625C19.3111 13.125 19.5496 13.2238 19.7254 13.3996C19.9012 13.5754 20 13.8139 20 14.0625C20 14.3111 19.9012 14.5496 19.7254 14.7254C19.5496 14.9012 19.3111 15 19.0625 15H0.9375C0.68886 15 0.450403 14.9012 0.274587 14.7254C0.0987719 14.5496 0 14.3111 0 14.0625Z" fill="white"/>
</svg>
