<svg width="42" height="42" viewBox="0 0 42 42" fill="none" xmlns="http://www.w3.org/2000/svg">
<path d="M25.0915 17.3394C25.0915 15.0784 23.2611 13.248 21.0001 13.248C18.7391 13.248 16.9087 15.0784 16.9087 17.3394C16.9087 19.6005 18.7391 21.4308 21.0001 21.4308C23.2611 21.4308 25.0915 19.6005 25.0915 17.3394Z" fill="#C01B50"/>
<path d="M23.5234 22.8721H18.4723C15.7198 22.8721 13.4868 25.105 13.4868 27.8576V29.6786C14.9567 30.9519 16.7543 31.86 18.7345 32.2533H23.2612C25.2414 31.8554 27.039 30.9519 28.5089 29.6786V27.8576C28.5089 25.105 26.2759 22.8721 23.5234 22.8721Z" fill="#C01B50"/>
<path d="M24.0756 42H17.9244C17.3814 42 16.918 41.6068 16.8384 41.0684L16.3422 37.8478C14.9565 37.4639 13.6317 36.9162 12.3819 36.2093L9.751 38.1333C9.31097 38.4563 8.70709 38.4095 8.32323 38.0256L3.97436 33.6768C3.5905 33.2929 3.54369 32.6844 3.8667 32.249L5.79068 29.6181C5.08382 28.3683 4.53143 27.0435 4.15225 25.6578L0.931565 25.1616C0.393223 25.0774 0 24.6186 0 24.0756V17.9244C0 17.3814 0.397905 16.918 0.931565 16.8384L4.15225 16.3422C4.53143 14.9565 5.08382 13.6317 5.79068 12.3819L3.8667 9.751C3.54369 9.31097 3.59518 8.70709 3.97436 8.32323L8.32323 3.97436C8.70709 3.5905 9.31565 3.54369 9.751 3.8667L12.3819 5.79068C13.6317 5.08382 14.9565 4.53143 16.3422 4.15225L16.8384 0.931565C16.9226 0.393223 17.3814 0 17.9244 0H24.0756C24.6186 0 25.082 0.393223 25.1616 0.931565L25.6578 4.15225C27.0435 4.53611 28.3683 5.08382 29.6181 5.79068L32.249 3.8667C32.689 3.54837 33.2929 3.5905 33.6768 3.97436L38.0256 8.32323C38.4095 8.70709 38.4563 9.31565 38.1333 9.751L36.2093 12.3819C36.9209 13.6317 37.4686 14.9565 37.8477 16.3422L41.0684 16.8384C41.6068 16.9226 42 17.3814 42 17.9244V24.0756C42 24.6186 41.6021 25.082 41.0684 25.1616L37.8477 25.6578C37.4686 27.0435 36.9162 28.3683 36.2093 29.6181L38.1333 32.249C38.4516 32.689 38.4048 33.2929 38.0256 33.6768L33.6768 38.0256C33.2929 38.4095 32.6843 38.4563 32.249 38.1333L29.6181 36.2093C28.3683 36.9162 27.0435 37.4686 25.6578 37.8478L25.1616 41.0684C25.0774 41.6068 24.6186 42 24.0756 42ZM18.87 39.7998H23.1346L23.5981 36.7898C23.6683 36.3451 24.0007 35.9893 24.436 35.8863C26.0885 35.5071 27.6567 34.8564 29.0938 33.9576C29.473 33.7189 29.9646 33.7376 30.3297 34.0045L32.7873 35.8021L35.802 32.7873L34.0045 30.3297C33.7376 29.9646 33.7189 29.4777 33.9576 29.0938C34.8564 27.652 35.5071 26.0885 35.8863 24.4313C35.9846 23.9913 36.3451 23.6589 36.7898 23.5887L39.7998 23.1253V18.8607L36.7898 18.3972C36.3451 18.327 35.9846 17.9946 35.8863 17.5546C35.5071 15.9021 34.8564 14.3339 33.9576 12.8921C33.7189 12.5082 33.7376 12.0214 34.0045 11.6563L35.802 9.19862L32.7873 6.18391L30.3297 7.9815C29.9646 8.24833 29.4777 8.26705 29.0938 8.02831C27.6567 7.12951 26.0885 6.47882 24.436 6.09964C23.996 5.99666 23.6636 5.64088 23.5981 5.19617L23.1346 2.18613H18.87L18.4066 5.19617C18.3364 5.64088 18.004 6.00134 17.564 6.09964C15.9115 6.47882 14.3433 7.12951 12.9015 8.02831C12.5223 8.26705 12.0308 8.24833 11.6656 7.9815L9.20798 6.18391L6.19327 9.19862L7.99086 11.6563C8.25769 12.0214 8.27642 12.5082 8.03767 12.8921C7.13888 14.3292 6.48819 15.9021 6.10901 17.5546C6.0107 17.9946 5.65025 18.327 5.20553 18.3972L2.1955 18.8607V23.1253L5.20553 23.5887C5.65025 23.6589 6.0107 23.9913 6.10901 24.4313C6.48819 26.0838 7.13888 27.652 8.03767 29.0938C8.27642 29.4777 8.25769 29.9646 7.99086 30.3297L6.19327 32.7873L9.20798 35.8021L11.6656 34.0045C12.0308 33.7376 12.5176 33.7189 12.9015 33.9576C14.3386 34.8564 15.9068 35.5071 17.564 35.8863C18.004 35.9893 18.3364 36.3451 18.4066 36.7898L18.87 39.7998ZM21.0047 33.5831C14.0624 33.5831 8.41685 27.9376 8.41685 20.9953C8.41685 14.0531 14.0624 8.40749 21.0047 8.40749C27.9469 8.40749 33.5925 14.0531 33.5925 20.9953C33.5925 27.9376 27.9469 33.5831 21.0047 33.5831ZM21.0047 10.6077C15.2795 10.6077 10.617 15.2655 10.617 20.9953C10.617 26.7251 15.2749 31.383 21.0047 31.383C26.7345 31.383 31.3923 26.7251 31.3923 20.9953C31.3923 15.2655 26.7345 10.6077 21.0047 10.6077Z" fill="#494949"/>
</svg>
