<svg width="73" height="32" viewBox="0 0 73 32" fill="none" xmlns="http://www.w3.org/2000/svg">
<path d="M16.0222 0C7.17865 0 0 7.16405 0 16.0021C0 24.8401 7.17865 32 16.0222 32C24.8658 32 31.9988 24.9064 32.0652 16.1264V15.8778C31.9988 7.09362 24.845 0 16.0222 0Z" fill="url(#paint0_radial_261_10)"/>
<path d="M5.17738 5.17087C-0.178583 10.5159 -0.722483 18.6661 3.98163 23.3607C8.68574 28.0552 16.8442 27.5166 22.2044 22.1674C27.5728 16.8099 28.1125 8.66381 23.4126 3.96926C21.266 1.82295 18.3971 0.770508 15.3994 0.770508C11.837 0.770508 8.09617 2.26216 5.18153 5.17087" fill="url(#paint1_linear_261_10)"/>
<path d="M15.1999 23.1704L15.5943 22.9425V9.42655L15.4947 9.2691L15.5943 9.2401V9.21938H15.6649L16.8648 8.80918L17.0807 9.17795C17.0807 9.17795 17.1139 9.21109 17.1098 9.28153L17.0973 21.5918H20.012L20.2445 21.9564C20.2652 21.9854 20.2818 22.0144 20.2818 22.1056V23.3445C20.2818 23.4149 20.2403 23.4439 20.1905 23.4522H15.7313C15.6234 23.4522 15.5321 23.4025 15.5071 23.3859L15.1999 23.1704ZM29.6651 15.2647H19.7462V16.8516L19.9912 17.179C19.9912 17.179 20.0203 17.2121 20.0742 17.2121H28.3739C27.9463 23.4729 22.6526 28.3788 16.3292 28.3788C13.1073 28.3788 10.0764 27.1316 7.7929 24.8693C5.51765 22.6069 4.26377 19.6029 4.26377 16.4042C4.26377 13.2054 5.45122 10.1351 7.72647 7.8769C10.0183 5.62285 12.8956 4.43367 16.3458 4.35909L16.9977 4.34666H17.0683C17.1139 4.34252 17.1513 4.34252 17.1513 4.23893V2.94203C17.1513 2.84673 17.1181 2.80115 17.1181 2.80115L16.8233 2.43652L16.1631 2.53182L15.831 2.63955C8.29943 2.63955 2.65283 8.92105 2.65283 16.4042C2.65283 20.0214 4.07694 23.4315 6.65942 25.9921C9.23776 28.5528 12.6548 29.8497 16.3002 29.8497C19.9455 29.8497 23.4041 28.4699 25.9783 25.9093C28.5607 23.3486 29.9807 19.9385 29.9807 16.3213V15.5423L29.6568 15.2606L29.6651 15.2647ZM11.1103 8.99978C9.91867 8.99978 8.95543 9.95692 8.95543 11.1378C8.95543 12.3187 9.91867 13.2717 11.1103 13.2717C12.3019 13.2717 13.2651 12.3187 13.2651 11.1378C13.2651 9.95692 12.3019 8.99978 11.1103 8.99978Z" fill="url(#paint2_linear_261_10)"/>
<path d="M15.5282 22.8598L15.2002 23.1706H20.0123L19.6967 22.8516L15.5282 22.8598Z" fill="#626D77"/>
<path d="M19.697 21.8943L20.0125 21.5918H16.8654L16.4917 21.8943H19.697Z" fill="#8699A3"/>
<path d="M16.8671 8.80859H15.2002L15.512 9.10692H16.5096L16.8671 8.80859Z" fill="#8D9AA1"/>
<path d="M16.5161 21.8729L16.8642 21.5912V8.80859L16.5078 9.10692L16.5161 21.8729Z" fill="url(#paint3_linear_261_10)"/>
<path d="M19.6963 21.8943V22.8514L20.0112 23.1705V21.5918L19.6963 21.8943Z" fill="url(#paint4_linear_261_10)"/>
<path d="M15.2002 8.80859V23.1699L15.5275 22.8591L15.511 9.10692L15.2002 8.80859Z" fill="#B4BDC3"/>
<path d="M8.81885 10.893C8.81885 12.0449 9.75718 12.973 10.9114 12.973C12.0656 12.973 13.004 12.0407 13.004 10.893C13.004 9.74526 12.0698 8.80469 10.9114 8.80469C9.75303 8.80469 8.81885 9.74111 8.81885 10.893ZM12.6926 10.893C12.6926 11.8709 11.8913 12.6623 10.9114 12.6623C9.93156 12.6623 9.12609 11.8709 9.12609 10.893C9.12609 9.91514 9.92741 9.11959 10.9114 9.11959C11.8954 9.11959 12.6926 9.91514 12.6926 10.893Z" fill="url(#paint5_linear_261_10)"/>
<path d="M28.3117 16.4909L19.9996 16.4785L19.6924 16.8017H27.992L28.1581 16.6318L28.3117 16.4909Z" fill="#505C61"/>
<path d="M19.9996 15.5424L29.2957 15.53L29.6113 15.2109L19.6924 15.2151L19.9996 15.5424Z" fill="#8F9CA4"/>
<path d="M29.6115 15.9934V15.2103L29.296 15.5252V15.9934C29.296 19.532 27.9175 22.8592 25.4139 25.3618C22.9103 27.8645 19.5722 29.2443 16.0181 29.2443C12.4641 29.2443 9.14674 27.8645 6.64314 25.3618C4.13539 22.855 2.75695 19.5278 2.75695 15.9934C2.75695 8.68437 8.70664 2.74264 16.0181 2.74264L16.5247 2.73435L16.8361 2.43602L16.0181 2.42773C8.53226 2.43188 2.44141 8.51449 2.44141 15.9934C2.44141 19.6148 3.85721 23.0208 6.41894 25.5814C8.98066 28.1421 12.3894 29.555 16.0181 29.555C19.6469 29.555 23.0722 28.1421 25.634 25.5814C28.1999 23.0208 29.6115 19.6107 29.6115 15.9934Z" fill="url(#paint6_linear_261_10)"/>
<path d="M16.5201 3.72508L16.1713 3.7168H15.8392C12.6256 3.76238 9.61129 5.03856 7.31528 7.30918C4.99851 9.62952 3.71973 12.7123 3.71973 15.9939C3.71973 19.2755 4.99851 22.3583 7.31528 24.6786C9.61129 26.9617 12.638 28.2378 15.8599 28.2793H16.1755C22.5569 28.2005 27.8672 23.1952 28.2949 16.8267L28.3073 16.487L28.1496 16.6278L27.9835 16.7977C27.5558 23.0585 22.2995 27.9644 16.0177 27.9644C12.8166 27.9644 9.80643 26.7172 7.53533 24.4549C5.27254 22.1925 4.03112 19.1885 4.03112 15.9897C4.03112 12.791 5.27669 9.77869 7.53533 7.52464C9.81058 5.2706 12.8207 4.02341 16.0177 4.02341L16.8273 4.0317L16.5159 3.72094L16.5201 3.72508Z" fill="url(#paint7_linear_261_10)"/>
<path d="M19.999 15.5422L19.6924 15.2148V16.8018L19.999 16.4786V15.5422Z" fill="#B4BDC3"/>
<path d="M16.5244 3.72514L16.831 4.0359V2.43652L16.5244 2.739V3.72514Z" fill="url(#paint8_linear_261_10)"/>
<path d="M15.3785 8.9786V23.0001H19.8459V21.7488H16.6572V8.9786H15.3785ZM15.8435 2.6018C8.53611 2.68881 2.60303 8.66369 2.60303 15.9976C2.60303 19.5776 3.99807 22.9379 6.53073 25.4655C9.05925 27.9971 12.4347 29.3893 16.0054 29.3893C19.576 29.3893 22.9723 27.9971 25.5008 25.4655C28.0335 22.9338 29.4285 19.5776 29.4285 15.9976V15.3885H28.8971H19.8501V16.6316H28.1539C28.1539 16.6606 28.1539 16.789 28.1539 16.8139C27.7221 23.1244 22.4533 28.138 16.0178 28.138C12.7752 28.138 9.7194 26.8742 7.41509 24.5788C5.12324 22.2874 3.86106 19.242 3.86106 15.9976C3.86106 12.7533 5.12739 9.69956 7.41509 7.41236C9.7194 5.12517 12.7752 3.86141 16.0178 3.86141C16.159 3.86141 16.5036 3.86141 16.6572 3.86141V2.60594C16.5327 2.60594 16.3209 2.6018 16.1549 2.59766H15.8435V2.6018Z" fill="url(#paint9_radial_261_10)"/>
<path d="M8.97656 10.893C8.97656 11.9496 9.84431 12.8073 10.903 12.8073C11.9618 12.8073 12.8254 11.9538 12.8254 10.893C12.8254 9.83231 11.9576 8.97461 10.903 8.97461C9.84846 8.97461 8.97656 9.82816 8.97656 10.893Z" fill="url(#paint10_radial_261_10)"/>
<path d="M11.2474 9.31485C11.6875 9.31485 12.0903 9.4723 12.4141 9.72091C12.0653 9.26513 11.5173 8.9668 10.8987 8.9668C9.83992 8.9668 8.97217 9.82035 8.97217 10.8852C8.97217 11.4985 9.27111 12.0371 9.71951 12.3852C9.4704 12.062 9.31678 11.6683 9.31678 11.2291C9.31678 10.1643 10.1845 9.3107 11.2433 9.3107" fill="white"/>
<path d="M16.6572 2.61083C16.4912 2.61083 16.1715 2.60254 16.0095 2.60254C8.6233 2.5984 2.60303 8.61057 2.60303 15.9942C2.60303 19.5783 3.99807 22.9304 6.53073 25.4662C6.61377 25.5449 6.69681 25.6236 6.77985 25.7024C4.3925 23.1997 3.07634 19.9388 3.07634 16.4666C3.07219 9.09536 8.3036 2.9796 16.6572 2.61083Z" fill="white"/>
<path d="M16.6572 21.7529C16.6572 21.7529 17.579 22.0181 19.8417 22.0181V21.7529H16.6572Z" fill="white"/>
<path d="M16.6592 9.37215V8.97852H15.3789V23C15.3789 23 15.778 20.8661 15.778 9.37215H16.6592Z" fill="white"/>
<path d="M29.4329 15.3848H19.8545V16.6278H20.2033V15.7328C28.5486 15.7328 29.4329 15.3848 29.4329 15.3848Z" fill="white"/>
<path d="M28.1581 16.6318C28.1581 16.6567 28.1581 16.7934 28.1498 16.8183C27.7222 23.1246 22.4493 28.1382 16.0138 28.1382C12.7712 28.1382 9.71536 26.8745 7.41105 24.579C5.91221 23.0832 4.85347 21.2601 4.30127 19.2712C5.74198 24.5003 10.5333 28.2874 16.2256 28.2874C22.3372 28.2874 27.9672 23.51 28.3159 16.636H28.1581V16.6318Z" fill="white"/>
<path d="M45.1521 26.3404H53.9417V22.313H44.0227V5.65625H39.2314V26.3404H45.1521Z" fill="white"/>
<path d="M64.4753 18.4595H68.374V22.0768C67.6557 22.3503 66.2523 22.6237 64.9196 22.6237C60.6099 22.6237 59.1733 20.4401 59.1733 16.0025C59.1733 11.5648 60.5435 9.27762 64.849 9.27762C67.2446 9.27762 68.6148 10.0276 69.7399 11.4612L72.7169 8.73068C70.9025 6.13687 67.7221 5.34961 64.7452 5.34961C58.0399 5.34961 54.519 9 54.519 15.9652C54.519 22.9303 57.6994 26.6512 64.712 26.6512C67.9256 26.6512 71.0727 25.8308 72.7833 24.6374V14.602H64.4712V18.4595H64.4753Z" fill="white"/>
<defs>
<radialGradient id="paint0_radial_261_10" cx="0" cy="0" r="1" gradientUnits="userSpaceOnUse" gradientTransform="translate(16.8653 15.9795) scale(16.7039 16.6699)">
<stop stop-color="#BF0C3F"/>
<stop offset="0.5" stop-color="#BF0C3F"/>
<stop offset="0.75" stop-color="#BC0B3D"/>
<stop offset="0.86" stop-color="#B5093A"/>
<stop offset="0.94" stop-color="#A90534"/>
<stop offset="1" stop-color="#99002C"/>
</radialGradient>
<linearGradient id="paint1_linear_261_10" x1="9.4663" y1="2.06741" x2="17.8934" y2="25.2694" gradientUnits="userSpaceOnUse">
<stop stop-color="#F38895"/>
<stop offset="0.09" stop-color="#EB7487"/>
<stop offset="0.31" stop-color="#D84768"/>
<stop offset="0.52" stop-color="#CA2751"/>
<stop offset="0.69" stop-color="#C21343"/>
<stop offset="0.8" stop-color="#BF0C3F"/>
<stop offset="1" stop-color="#BF0C3F"/>
</linearGradient>
<linearGradient id="paint2_linear_261_10" x1="5.33497" y1="7.79817" x2="24.6974" y2="27.2" gradientUnits="userSpaceOnUse">
<stop stop-color="#CD425C"/>
<stop offset="0.09" stop-color="#BD3251"/>
<stop offset="0.25" stop-color="#A91E43"/>
<stop offset="0.43" stop-color="#9B1038"/>
<stop offset="0.65" stop-color="#920732"/>
<stop offset="1" stop-color="#900531"/>
</linearGradient>
<linearGradient id="paint3_linear_261_10" x1="16.5078" y1="15.3387" x2="16.8642" y2="15.3387" gradientUnits="userSpaceOnUse">
<stop stop-color="#B4BDC3"/>
<stop offset="0.04" stop-color="#ADB6BC"/>
<stop offset="0.5" stop-color="#6B7379"/>
<stop offset="0.83" stop-color="#424950"/>
<stop offset="1" stop-color="#333940"/>
</linearGradient>
<linearGradient id="paint4_linear_261_10" x1="19.6963" y1="22.3791" x2="20.0112" y2="22.3791" gradientUnits="userSpaceOnUse">
<stop stop-color="#B3BBC1"/>
<stop offset="0.08" stop-color="#A6AEB3"/>
<stop offset="0.52" stop-color="#636B70"/>
<stop offset="0.84" stop-color="#394146"/>
<stop offset="1" stop-color="#2A3236"/>
</linearGradient>
<linearGradient id="paint5_linear_261_10" x1="9.25643" y1="8.95706" x2="12.2111" y2="11.9178" gradientUnits="userSpaceOnUse">
<stop stop-color="#ABBAC2"/>
<stop offset="1" stop-color="#262A30"/>
</linearGradient>
<linearGradient id="paint6_linear_261_10" x1="5.67452" y1="8.21569" x2="24.8174" y2="27.3976" gradientUnits="userSpaceOnUse">
<stop stop-color="#B4BDC3"/>
<stop offset="1" stop-color="#3E454D"/>
</linearGradient>
<linearGradient id="paint7_linear_261_10" x1="30.5089" y1="16.6837" x2="5.87942" y2="16.6837" gradientUnits="userSpaceOnUse">
<stop stop-color="#B4BDC3"/>
<stop offset="1" stop-color="#485159"/>
</linearGradient>
<linearGradient id="paint8_linear_261_10" x1="16.5244" y1="3.23621" x2="16.831" y2="3.23621" gradientUnits="userSpaceOnUse">
<stop stop-color="#B3BBC1"/>
<stop offset="0.08" stop-color="#A6AEB3"/>
<stop offset="0.52" stop-color="#636B70"/>
<stop offset="0.84" stop-color="#394146"/>
<stop offset="1" stop-color="#2A3236"/>
</linearGradient>
<radialGradient id="paint9_radial_261_10" cx="0" cy="0" r="1" gradientUnits="userSpaceOnUse" gradientTransform="translate(10.9857 9.70246) scale(20.6059 20.564)">
<stop stop-color="white"/>
<stop offset="0.35" stop-color="white"/>
<stop offset="0.51" stop-color="#FAFBFC"/>
<stop offset="0.68" stop-color="#EEF1F3"/>
<stop offset="0.85" stop-color="#D9E0E4"/>
<stop offset="1" stop-color="#C0CCD2"/>
</radialGradient>
<radialGradient id="paint10_radial_261_10" cx="0" cy="0" r="1" gradientUnits="userSpaceOnUse" gradientTransform="translate(10.4804 9.5634) scale(3.00806 3.00194)">
<stop stop-color="white"/>
<stop offset="0.35" stop-color="white"/>
<stop offset="0.54" stop-color="#FAFBFC"/>
<stop offset="0.73" stop-color="#EEF1F3"/>
<stop offset="0.93" stop-color="#D9E1E5"/>
<stop offset="1" stop-color="#D0DADF"/>
</radialGradient>
</defs>
</svg>
