<svg width="61" height="61" viewBox="0 0 61 61" fill="none" xmlns="http://www.w3.org/2000/svg">
<circle cx="30.5" cy="30.5" r="30.5" fill="#323232"/>
<path d="M11.88 29.38C11.88 27.0733 12.36 25.3733 13.32 24.28C14.2933 23.1733 15.8133 22.62 17.88 22.62C18.92 22.62 19.7933 22.78 20.5 23.1C21.22 23.4067 21.7933 23.86 22.22 24.46C22.6467 25.0467 22.9533 25.7667 23.14 26.62C23.3267 27.4733 23.42 28.4333 23.42 29.5C23.42 30.7933 23.2467 31.8667 22.9 32.72C22.5667 33.5733 22.12 34.26 21.56 34.78C21.4533 34.8733 21.3533 34.96 21.26 35.04C21.1667 35.1067 21.0733 35.1733 20.98 35.24L23.6 37.68L22.02 38.82L19.24 36C18.9333 36.0667 18.6267 36.12 18.32 36.16C18.0133 36.2 17.7067 36.22 17.4 36.22C16.3733 36.22 15.5067 36.0667 14.8 35.76C14.1067 35.44 13.54 34.9867 13.1 34.4C12.6733 33.8 12.36 33.08 12.16 32.24C11.9733 31.4 11.88 30.4467 11.88 29.38ZM21.24 29.24C21.24 28.5467 21.1933 27.9 21.1 27.3C21.0067 26.6867 20.8333 26.1533 20.58 25.7C20.34 25.2467 20 24.8933 19.56 24.64C19.1333 24.3733 18.5867 24.24 17.92 24.24C17.1733 24.24 16.5533 24.36 16.06 24.6C15.5667 24.8267 15.1667 25.1667 14.86 25.62C14.5533 26.06 14.3333 26.6133 14.2 27.28C14.08 27.9467 14.02 28.7133 14.02 29.58C14.02 30.2867 14.0667 30.9467 14.16 31.56C14.2667 32.16 14.44 32.6867 14.68 33.14C14.9333 33.5933 15.2733 33.9533 15.7 34.22C16.1267 34.4733 16.6733 34.6 17.34 34.6C18.1 34.6 18.7267 34.4867 19.22 34.26C19.7267 34.02 20.1267 33.68 20.42 33.24C20.7267 32.7867 20.94 32.2267 21.06 31.56C21.18 30.8933 21.24 30.12 21.24 29.24ZM36.3608 36H33.9008L32.7808 34.74C32.3674 35.0867 31.9208 35.3933 31.4408 35.66C30.7341 36.0333 29.9141 36.22 28.9808 36.22C28.3941 36.22 27.8474 36.16 27.3408 36.04C26.8474 35.9333 26.4141 35.74 26.0408 35.46C25.6808 35.18 25.3941 34.8133 25.1808 34.36C24.9808 33.9067 24.8808 33.34 24.8808 32.66C24.8808 31.66 25.1941 30.8133 25.8208 30.12C26.2341 29.6667 26.8208 29.2467 27.5808 28.86C27.3274 28.5533 27.1141 28.24 26.9408 27.92C26.5674 27.3067 26.3808 26.6533 26.3808 25.96C26.3808 25.44 26.4741 24.98 26.6608 24.58C26.8474 24.1667 27.1074 23.8133 27.4408 23.52C27.7741 23.2267 28.1741 23.0067 28.6408 22.86C29.1208 22.7 29.6474 22.62 30.2208 22.62C30.7408 22.62 31.2141 22.68 31.6408 22.8C32.0808 22.9067 32.4541 23.08 32.7608 23.32C33.0808 23.56 33.3274 23.8667 33.5008 24.24C33.6874 24.6133 33.7808 25.06 33.7808 25.58C33.7808 26.4067 33.5341 27.0933 33.0408 27.64C32.5474 28.1867 31.9208 28.64 31.1608 29C30.9074 29.1333 30.6741 29.2467 30.4608 29.34L32.8408 32.04C33.0274 31.76 33.1874 31.4933 33.3208 31.24C33.4674 30.9333 33.6074 30.6333 33.7408 30.34C33.8874 30.0333 34.0141 29.7333 34.1208 29.44L35.9008 29.9C35.5808 30.6467 35.2074 31.3933 34.7808 32.14C34.6741 32.3667 34.5541 32.58 34.4208 32.78C34.3008 32.98 34.1674 33.1733 34.0208 33.36L36.3608 36ZM28.5608 30.22C28.1074 30.5 27.7274 30.8333 27.4208 31.22C27.1274 31.6067 26.9808 32.0533 26.9808 32.56C26.9808 33.2533 27.1741 33.7667 27.5608 34.1C27.9474 34.42 28.4608 34.58 29.1008 34.58C29.7274 34.58 30.2941 34.42 30.8008 34.1C30.9474 34.0067 31.0874 33.9133 31.2208 33.82C31.3674 33.7133 31.5074 33.5933 31.6408 33.46L28.7008 30.16L28.5608 30.22ZM29.8808 27.86C30.4408 27.6333 30.8874 27.3533 31.2208 27.02C31.5674 26.6733 31.7408 26.2533 31.7408 25.76C31.7408 25.28 31.6141 24.9067 31.3608 24.64C31.1074 24.36 30.7408 24.22 30.2608 24.22C29.0608 24.22 28.4608 24.7867 28.4608 25.92C28.4608 26.5067 28.6008 27.0067 28.8808 27.42C28.9474 27.5267 29.0141 27.6333 29.0808 27.74C29.1608 27.8467 29.2474 27.9667 29.3408 28.1C29.5141 28.0067 29.6941 27.9267 29.8808 27.86ZM46.7078 36L45.4678 32.36H40.1078L38.8678 36H36.6278L41.4078 22.82H44.2878L49.0078 36H46.7078ZM42.7078 24.48L40.6678 30.68H44.8878L42.8678 24.48H42.7078Z" fill="white"/>
<path d="M30.4803 0C13.6565 0 0 13.6565 0 30.5039C0 47.3514 13.6565 61 30.4803 61C47.304 61 60.8736 47.4778 61 30.7409V30.267C60.8736 13.5222 47.2645 0 30.4803 0Z" fill="url(#paint0_radial_261_319)"/>
<path d="M9.84991 9.85694C-0.339139 20.046 -1.37384 35.5823 7.57514 44.5313C16.5241 53.4803 32.0446 52.4535 42.2416 42.2565C52.4543 32.0438 53.4811 16.5154 44.54 7.56638C40.4565 3.47497 34.9987 1.46875 29.296 1.46875C22.5191 1.46875 15.4025 4.3122 9.8578 9.85694" fill="url(#paint1_linear_261_319)"/>
<path d="M28.9159 44.1685L29.6662 43.7341V17.9693L29.4766 17.6691L29.6662 17.6138V17.5744H29.8005L32.0831 16.7924L32.4939 17.4954C32.4939 17.4954 32.5571 17.5586 32.5492 17.6928L32.5255 41.1592H38.0702L38.5125 41.8543C38.552 41.9096 38.5836 41.9649 38.5836 42.1386V44.5003C38.5836 44.6346 38.5046 44.6898 38.4098 44.7056H29.9269C29.7215 44.7056 29.5477 44.6109 29.5003 44.5793L28.9159 44.1685ZM56.4342 29.0982H37.5647V32.1234L38.0307 32.7473C38.0307 32.7473 38.086 32.8105 38.1887 32.8105H53.9777C53.1642 44.7451 43.0936 54.0969 31.0642 54.0969C24.935 54.0969 19.1691 51.7195 14.825 47.4069C10.4966 43.0944 8.11124 37.368 8.11124 31.2703C8.11124 25.1727 10.3702 19.3199 14.6986 15.0152C19.0585 10.7185 24.5322 8.4516 31.0958 8.30943L32.3359 8.28573H32.4702C32.5571 8.27783 32.6281 8.27783 32.6281 8.08037V5.60815C32.6281 5.42648 32.565 5.3396 32.565 5.3396L32.0042 4.64453L30.7483 4.8262L30.1164 5.03156C15.7886 5.03156 5.04663 17.0057 5.04663 31.2703C5.04663 38.1657 7.75581 44.6662 12.6687 49.5474C17.5736 54.4287 24.0741 56.9009 31.0089 56.9009C37.9438 56.9009 44.5233 54.2707 49.4203 49.3894C54.3332 44.5082 57.0345 38.0077 57.0345 31.1124V29.6274L56.4184 29.0903L56.4342 29.0982ZM21.1358 17.1557C18.869 17.1557 17.0365 18.9803 17.0365 21.2313C17.0365 23.4824 18.869 25.2991 21.1358 25.2991C23.4027 25.2991 25.2352 23.4824 25.2352 21.2313C25.2352 18.9803 23.4027 17.1557 21.1358 17.1557Z" fill="url(#paint2_linear_261_319)"/>
<path d="M29.541 43.5754L28.917 44.1678H38.0713L37.4711 43.5596L29.541 43.5754Z" fill="#626D77"/>
<path d="M37.4709 41.7348L38.0712 41.1582H32.0842L31.3733 41.7348H37.4709Z" fill="#8699A3"/>
<path d="M32.088 16.7925H28.917L29.5101 17.3612H31.408L32.088 16.7925Z" fill="#8D9AA1"/>
<path d="M31.4198 41.6964L32.0819 41.1593V16.7925L31.4041 17.3612L31.4198 41.6964Z" fill="url(#paint3_linear_261_319)"/>
<path d="M37.4702 41.7348V43.5593L38.0693 44.1675V41.1582L37.4702 41.7348Z" fill="url(#paint4_linear_261_319)"/>
<path d="M28.917 16.7925V44.1686L29.5397 43.5762L29.5082 17.3612L28.917 16.7925Z" fill="#B4BDC3"/>
<path d="M16.7764 20.7655C16.7764 22.9613 18.5614 24.7305 20.7572 24.7305C22.953 24.7305 24.738 22.9534 24.738 20.7655C24.738 18.5776 22.9609 16.7847 20.7572 16.7847C18.5535 16.7847 16.7764 18.5697 16.7764 20.7655ZM24.1457 20.7655C24.1457 22.6295 22.6212 24.1382 20.7572 24.1382C18.8932 24.1382 17.3609 22.6295 17.3609 20.7655C17.3609 18.9015 18.8853 17.385 20.7572 17.385C22.6291 17.385 24.1457 18.9015 24.1457 20.7655Z" fill="url(#paint5_linear_261_319)"/>
<path d="M53.8599 31.4358L38.0471 31.4121L37.4626 32.0282H53.2517L53.5677 31.7044L53.8599 31.4358Z" fill="#505C61"/>
<path d="M38.0471 29.627L55.7318 29.6033L56.3321 28.9951L37.4626 29.003L38.0471 29.627Z" fill="#8F9CA4"/>
<path d="M56.332 30.4885V28.9957L55.7317 29.596V30.4885C55.7317 37.2338 53.1094 43.5763 48.3466 48.347C43.5838 53.1177 37.2334 55.7479 30.4723 55.7479C23.7112 55.7479 17.4003 53.1177 12.6376 48.347C7.86687 43.5684 5.24457 37.2259 5.24457 30.4885C5.24457 16.5556 16.5631 5.22919 30.4723 5.22919L31.4359 5.21339L32.0283 4.6447L30.4723 4.62891C16.2314 4.6368 4.64429 16.2318 4.64429 30.4885C4.64429 37.3918 7.33767 43.8844 12.211 48.7656C17.0844 53.6469 23.5691 56.3403 30.4723 56.3403C37.3756 56.3403 43.8919 53.6469 48.7652 48.7656C53.6465 43.8844 56.332 37.3839 56.332 30.4885Z" fill="url(#paint6_linear_261_319)"/>
<path d="M31.4279 7.10076L30.7645 7.08496H30.1326C24.0192 7.17184 18.2849 9.60458 13.917 13.9329C9.50964 18.3561 7.0769 24.2326 7.0769 30.4882C7.0769 36.7438 9.50964 42.6202 13.917 47.0434C18.2849 51.3955 24.0429 53.8282 30.1721 53.9072H30.7724C42.9123 53.7571 53.0145 44.2157 53.828 32.0758L53.8517 31.4281L53.5516 31.6966L53.2357 32.0205C52.4221 43.9551 42.4226 53.3069 30.4722 53.3069C24.3825 53.3069 18.6561 50.9295 14.3356 46.6169C10.0309 42.3043 7.66929 36.5779 7.66929 30.4803C7.66929 24.3826 10.0388 18.6404 14.3356 14.3437C18.664 10.0469 24.3904 7.66945 30.4722 7.66945L32.0124 7.68525L31.42 7.09286L31.4279 7.10076Z" fill="url(#paint7_linear_261_319)"/>
<path d="M38.0459 29.6274L37.4626 29.0034V32.0285L38.0459 31.4125V29.6274Z" fill="#B4BDC3"/>
<path d="M31.4363 7.10096L32.0196 7.69335V4.64453L31.4363 5.22112V7.10096Z" fill="url(#paint8_linear_261_319)"/>
<path d="M29.256 17.1163V43.8448H37.7548V41.4594H31.6888V17.1163H29.256ZM30.1407 4.96054C16.2393 5.1264 4.95239 16.516 4.95239 30.4963C4.95239 37.3206 7.60628 43.7263 12.4244 48.5444C17.2345 53.3703 23.656 56.0242 30.4487 56.0242C37.2414 56.0242 43.7024 53.3703 48.5125 48.5444C53.3306 43.7184 55.9845 37.3206 55.9845 30.4963V29.3353H54.9735H37.7627V31.7048H53.5597C53.5597 31.7601 53.5597 32.0049 53.5597 32.0523C52.7382 44.0817 42.7151 53.6389 30.4724 53.6389C24.3037 53.6389 18.4904 51.2299 14.1067 46.8541C9.74677 42.4862 7.34563 36.6809 7.34563 30.4963C7.34563 24.3118 9.75467 18.4906 14.1067 14.1307C18.4904 9.77071 24.3037 7.36167 30.4724 7.36167C30.7409 7.36167 31.3965 7.36167 31.6888 7.36167V4.96843C31.4518 4.96843 31.049 4.96054 30.733 4.95264H30.1407V4.96054Z" fill="url(#paint9_radial_261_319)"/>
<path d="M17.0767 20.7659C17.0767 22.78 18.7274 24.415 20.7416 24.415C22.7557 24.415 24.3986 22.7879 24.3986 20.7659C24.3986 18.7439 22.7478 17.1089 20.7416 17.1089C18.7353 17.1089 17.0767 18.736 17.0767 20.7659Z" fill="url(#paint10_radial_261_319)"/>
<path d="M21.397 17.7553C22.2342 17.7553 23.0004 18.0554 23.6164 18.5293C22.953 17.6605 21.9104 17.0918 20.7335 17.0918C18.7194 17.0918 17.0686 18.7189 17.0686 20.7488C17.0686 21.9178 17.6373 22.9446 18.4903 23.608C18.0164 22.992 17.7242 22.2416 17.7242 21.4044C17.7242 19.3745 19.375 17.7474 21.3891 17.7474" fill="white"/>
<path d="M31.6888 4.97576C31.3728 4.97576 30.7646 4.95997 30.4566 4.95997C16.4052 4.95207 4.95239 16.4128 4.95239 30.4879C4.95239 37.3201 7.60628 43.7099 12.4244 48.5438C12.5823 48.6939 12.7403 48.8439 12.8983 48.994C8.35664 44.2233 5.85282 38.0072 5.85282 31.3883C5.84492 17.3369 15.797 5.67873 31.6888 4.97576Z" fill="white"/>
<path d="M31.689 41.4668C31.689 41.4668 33.4424 41.9723 37.7471 41.9723V41.4668H31.689Z" fill="white"/>
<path d="M31.692 17.8666V17.1162H29.2563V43.8447C29.2563 43.8447 30.0155 39.777 30.0155 17.8666H31.692Z" fill="white"/>
<path d="M55.9921 29.3271H37.7703V31.6967H38.4337V29.9906C54.3097 29.9906 55.9921 29.3271 55.9921 29.3271Z" fill="white"/>
<path d="M53.5673 31.7041C53.5673 31.7515 53.5673 32.0121 53.5515 32.0595C52.738 44.081 42.7069 53.6382 30.4642 53.6382C24.2955 53.6382 18.4822 51.2292 14.0986 46.8534C11.2472 44.002 9.23312 40.5267 8.18262 36.7354C10.9234 46.7033 20.0382 53.9225 30.8671 53.9225C42.4936 53.9225 53.204 44.8156 53.8675 31.712H53.5673V31.7041Z" fill="white"/>
<defs>
<radialGradient id="paint0_radial_261_319" cx="0" cy="0" r="1" gradientUnits="userSpaceOnUse" gradientTransform="translate(32.0842 30.461) scale(31.777)">
<stop stop-color="#BF0C3F"/>
<stop offset="0.5" stop-color="#BF0C3F"/>
<stop offset="0.75" stop-color="#BC0B3D"/>
<stop offset="0.86" stop-color="#B5093A"/>
<stop offset="0.94" stop-color="#A90534"/>
<stop offset="1" stop-color="#99002C"/>
</radialGradient>
<linearGradient id="paint1_linear_261_319" x1="18.009" y1="3.94098" x2="34.0983" y2="48.1488" gradientUnits="userSpaceOnUse">
<stop stop-color="#F38895"/>
<stop offset="0.09" stop-color="#EB7487"/>
<stop offset="0.31" stop-color="#D84768"/>
<stop offset="0.52" stop-color="#CA2751"/>
<stop offset="0.69" stop-color="#C21343"/>
<stop offset="0.8" stop-color="#BF0C3F"/>
<stop offset="1" stop-color="#BF0C3F"/>
</linearGradient>
<linearGradient id="paint2_linear_261_319" x1="10.1491" y1="14.8652" x2="47.0587" y2="51.7748" gradientUnits="userSpaceOnUse">
<stop stop-color="#CD425C"/>
<stop offset="0.09" stop-color="#BD3251"/>
<stop offset="0.25" stop-color="#A91E43"/>
<stop offset="0.43" stop-color="#9B1038"/>
<stop offset="0.65" stop-color="#920732"/>
<stop offset="1" stop-color="#900531"/>
</linearGradient>
<linearGradient id="paint3_linear_261_319" x1="31.4041" y1="29.2405" x2="32.0819" y2="29.2405" gradientUnits="userSpaceOnUse">
<stop stop-color="#B4BDC3"/>
<stop offset="0.04" stop-color="#ADB6BC"/>
<stop offset="0.5" stop-color="#6B7379"/>
<stop offset="0.83" stop-color="#424950"/>
<stop offset="1" stop-color="#333940"/>
</linearGradient>
<linearGradient id="paint4_linear_261_319" x1="37.4702" y1="42.6589" x2="38.0693" y2="42.6589" gradientUnits="userSpaceOnUse">
<stop stop-color="#B3BBC1"/>
<stop offset="0.08" stop-color="#A6AEB3"/>
<stop offset="0.52" stop-color="#636B70"/>
<stop offset="0.84" stop-color="#394146"/>
<stop offset="1" stop-color="#2A3236"/>
</linearGradient>
<linearGradient id="paint5_linear_261_319" x1="17.6088" y1="17.0751" x2="23.2412" y2="22.7076" gradientUnits="userSpaceOnUse">
<stop stop-color="#ABBAC2"/>
<stop offset="1" stop-color="#262A30"/>
</linearGradient>
<linearGradient id="paint6_linear_261_319" x1="10.7949" y1="15.6622" x2="47.2861" y2="52.1534" gradientUnits="userSpaceOnUse">
<stop stop-color="#B4BDC3"/>
<stop offset="1" stop-color="#3E454D"/>
</linearGradient>
<linearGradient id="paint7_linear_261_319" x1="58.0399" y1="31.803" x2="11.1855" y2="31.803" gradientUnits="userSpaceOnUse">
<stop stop-color="#B4BDC3"/>
<stop offset="1" stop-color="#485159"/>
</linearGradient>
<linearGradient id="paint8_linear_261_319" x1="31.4363" y1="6.16894" x2="32.0196" y2="6.16894" gradientUnits="userSpaceOnUse">
<stop stop-color="#B3BBC1"/>
<stop offset="0.08" stop-color="#A6AEB3"/>
<stop offset="0.52" stop-color="#636B70"/>
<stop offset="0.84" stop-color="#394146"/>
<stop offset="1" stop-color="#2A3236"/>
</linearGradient>
<radialGradient id="paint9_radial_261_319" cx="0" cy="0" r="1" gradientUnits="userSpaceOnUse" gradientTransform="translate(20.8994 18.4962) scale(39.2002 39.2002)">
<stop stop-color="white"/>
<stop offset="0.35" stop-color="white"/>
<stop offset="0.51" stop-color="#FAFBFC"/>
<stop offset="0.68" stop-color="#EEF1F3"/>
<stop offset="0.85" stop-color="#D9E0E4"/>
<stop offset="1" stop-color="#C0CCD2"/>
</radialGradient>
<radialGradient id="paint10_radial_261_319" cx="0" cy="0" r="1" gradientUnits="userSpaceOnUse" gradientTransform="translate(19.9375 18.2313) scale(5.72245 5.72245)">
<stop stop-color="white"/>
<stop offset="0.35" stop-color="white"/>
<stop offset="0.54" stop-color="#FAFBFC"/>
<stop offset="0.73" stop-color="#EEF1F3"/>
<stop offset="0.93" stop-color="#D9E1E5"/>
<stop offset="1" stop-color="#D0DADF"/>
</radialGradient>
</defs>
</svg>
