<svg width="50" height="50" viewBox="0 0 50 50" fill="none" xmlns="http://www.w3.org/2000/svg">
<path d="M40.625 46.875H37.5V42.1875H31.25C29.1786 42.1854 27.1927 41.3617 25.728 39.897C24.2633 38.4323 23.4396 36.4464 23.4375 34.375V32.375L19.8188 31.1703C19.5969 31.0963 19.3944 30.9733 19.2264 30.8106C19.0583 30.6479 18.929 30.4495 18.8478 30.2301C18.7667 30.0107 18.7359 29.7759 18.7576 29.5429C18.7794 29.31 18.8531 29.085 18.9735 28.8844L23.4375 21.4422V17.1875C23.4416 13.4592 24.9246 9.88471 27.5609 7.24838C30.1972 4.61204 33.7717 3.12914 37.5 3.125H45.3125V6.25H37.5C34.6002 6.25331 31.8202 7.40671 29.7697 9.45717C27.7192 11.5076 26.5658 14.2877 26.5625 17.1875V21.875C26.5621 22.158 26.4849 22.4356 26.3391 22.6781L22.6563 28.8219L25.4953 29.7672C25.8063 29.8711 26.0767 30.0703 26.2682 30.3364C26.4597 30.6025 26.5627 30.9221 26.5625 31.25V34.375C26.5638 35.6178 27.058 36.8094 27.9368 37.6882C28.8156 38.567 30.0072 39.0613 31.25 39.0625H39.0625C39.4769 39.0625 39.8743 39.2271 40.1674 39.5201C40.4604 39.8132 40.625 40.2106 40.625 40.625V46.875Z" fill="#494949"/>
<path fill-rule="evenodd" clip-rule="evenodd" d="M11.889 35.7147C12.5171 37.1193 13.4345 38.3757 14.5813 39.4016L16.6656 37.0719C15.8465 36.3391 15.1912 35.4417 14.7425 34.4384C14.2939 33.435 14.062 32.3483 14.062 31.2492C14.062 30.1501 14.2939 29.0634 14.7425 28.0601C15.1912 27.0567 15.8465 26.1594 16.6656 25.4266L14.5813 23.0984C13.4345 24.1243 12.5171 25.3807 11.889 26.7853C11.2609 28.19 10.9363 29.7113 10.9363 31.25C10.9363 32.7887 11.2609 34.31 11.889 35.7147Z" fill="#C01B50"/>
<path d="M29.6875 18.75H35.9375V21.875H29.6875V18.75Z" fill="#494949"/>
<path d="M9.99999 45C7.86594 43.3986 6.13391 41.3225 4.94101 38.936C3.7481 36.5495 3.12708 33.9181 3.12708 31.25C3.12708 28.5819 3.7481 25.9505 4.94101 23.564C6.13391 21.1775 7.86594 19.1014 9.99999 17.5L11.875 20C10.1282 21.3099 8.71038 23.0085 7.73386 24.9613C6.75734 26.9141 6.24895 29.0674 6.24895 31.2508C6.24895 33.4341 6.75734 35.5875 7.73386 37.5403C8.71038 39.4931 10.1282 41.1917 11.875 42.5016L9.99999 45Z" fill="#C01B50"/>
</svg>
