<svg width="45" height="48" viewBox="0 0 45 48" fill="none" xmlns="http://www.w3.org/2000/svg">
<path d="M33.9665 33.2001H34.7332L33.3532 35.0401L34.5799 35.9593L36.8799 32.8926C37.0846 32.6205 37.0846 32.2456 36.8799 31.9734L34.5799 28.9067L33.3532 29.8267L34.7332 31.6667H33.9665C31.0072 31.6667 28.5999 34.0748 28.5999 37.0334H30.1332C30.1332 34.9197 31.8528 33.2001 33.9665 33.2001Z" fill="#BB0841" stroke="#BB0841" stroke-width="0.25"/>
<path d="M33.2005 39.3333H32.4339L33.8139 37.4933L32.5872 36.5733L30.2872 39.64C30.0825 39.9122 30.0825 40.2871 30.2872 40.5592L32.5872 43.6259L33.8139 42.7067L32.4339 40.8667H33.2005C36.1599 40.8667 38.5672 38.4586 38.5672 35.5H37.0339C37.0339 37.6137 35.3142 39.3333 33.2005 39.3333Z" fill="#BB0841" stroke="#BB0841" stroke-width="0.25"/>
<path d="M39.3333 27.4707V12.5C39.3333 12.4893 39.328 12.4808 39.3272 12.4709C39.3234 12.3804 39.3088 12.2915 39.2743 12.2071C39.2697 12.1972 39.2628 12.1887 39.2582 12.1788C39.2337 12.1259 39.2068 12.073 39.17 12.0262L30.7367 1.29287C30.591 1.1081 30.3687 1 30.1333 1H10.2C9.96463 1 9.7423 1.1081 9.5974 1.29287L1.16407 12.0262C1.12727 12.0737 1.10043 12.1259 1.0759 12.1788C1.0713 12.1887 1.06363 12.1964 1.0598 12.2071C1.0253 12.2915 1.00997 12.3804 1.0069 12.4709C1.00537 12.4808 1 12.4893 1 12.5V40.1C1 40.524 1.34347 40.8667 1.76667 40.8667H23.517C25.2443 44.4869 28.9289 47 33.2 47C39.1187 47 43.9333 42.1853 43.9333 36.2667C43.9333 32.6288 42.1102 29.4127 39.3333 27.4707ZM36.9889 11.7333H25.3447L22.7166 2.53333H29.7615L36.9889 11.7333ZM16.3333 13.2667H24V18.3159L23.0087 17.3246C22.7089 17.0249 22.2244 17.0249 21.9246 17.3246L20.1667 19.0826L18.4087 17.3246C18.2592 17.1751 18.0629 17.1 17.8667 17.1C17.6704 17.1 17.4741 17.1751 17.3246 17.3246L16.3333 18.3159V13.2667ZM21.1219 2.53333L23.7508 11.7333H16.5833L19.2122 2.53333H21.1219ZM10.5726 2.53333H17.6175L14.9886 11.7333H3.34447L10.5726 2.53333ZM22.9129 39.3333H2.53333V13.2667H14.8V20.1667C14.8 20.4764 14.9871 20.757 15.273 20.8751C15.5598 20.9947 15.8887 20.928 16.1087 20.7087L17.8667 18.9507L19.6246 20.7087C19.9244 21.0085 20.4089 21.0085 20.7087 20.7087L22.4667 18.9507L24.2246 20.7087C24.3711 20.8551 24.5673 20.9333 24.7667 20.9333C24.8656 20.9333 24.9652 20.9149 25.0603 20.8751C25.3463 20.757 25.5333 20.4764 25.5333 20.1667V13.2667H37.8V26.5745C37.7594 26.5553 37.7164 26.5423 37.6758 26.5239C37.4159 26.4043 37.1506 26.2962 36.88 26.1973C36.7872 26.1635 36.696 26.1267 36.6032 26.0953C36.3318 26.0041 36.0551 25.9282 35.7752 25.8584C35.6809 25.8346 35.5882 25.8063 35.4931 25.7856C35.2056 25.7227 34.912 25.6767 34.616 25.6376C34.5286 25.6261 34.442 25.6069 34.3546 25.5977C33.9751 25.5571 33.5902 25.5333 33.2 25.5333C27.2813 25.5333 22.4667 30.348 22.4667 36.2667C22.4667 36.5963 22.4866 36.9229 22.5165 37.2472C22.5249 37.3362 22.5349 37.4243 22.5456 37.5125C22.5755 37.7693 22.6146 38.0246 22.6629 38.2776C22.676 38.3474 22.6867 38.4172 22.7013 38.4869C22.7603 38.7714 22.8293 39.0543 22.9129 39.3333ZM33.2 45.4667C29.2302 45.4667 25.8492 42.9344 24.5627 39.4039C24.5106 39.2605 24.4531 39.1194 24.4079 38.9745C24.358 38.8143 24.3228 38.6487 24.2814 38.4854C24.2492 38.3558 24.2101 38.2286 24.184 38.0982C24.1441 37.9004 24.1188 37.6973 24.092 37.4949C24.0782 37.3944 24.0575 37.2948 24.0475 37.1936C24.0161 36.8884 24 36.5795 24 36.2667C24 31.1936 28.127 27.0667 33.2 27.0667C33.4791 27.0667 33.7535 27.0843 34.0257 27.1088C34.1116 27.1165 34.1967 27.1265 34.2818 27.1364C34.4796 27.1594 34.6751 27.1909 34.8683 27.2261C34.9511 27.2415 35.0346 27.2537 35.1167 27.2714C35.3566 27.3227 35.592 27.3841 35.8243 27.4538C35.9408 27.4891 36.0566 27.5297 36.1716 27.5696C36.3004 27.6133 36.4277 27.6601 36.5534 27.7099C36.6799 27.7597 36.8056 27.8103 36.9298 27.8655C37.0425 27.9154 37.1514 27.9713 37.2618 28.0258C37.4795 28.1339 37.6934 28.2504 37.9035 28.3761C40.5914 29.9831 42.4 32.914 42.4 36.2667C42.4 41.3397 38.273 45.4667 33.2 45.4667Z" fill="#474747" stroke="#474747" stroke-width="0.7"/>
</svg>
