<svg width="50" height="50" viewBox="0 0 50 50" fill="none" xmlns="http://www.w3.org/2000/svg">
<path d="M45.5263 2H1.94737C1.69611 2 1.45514 2.09981 1.27748 2.27748C1.09981 2.45514 1 2.69611 1 2.94737V37.0526C1 37.3039 1.09981 37.5449 1.27748 37.7225C1.45514 37.9002 1.69611 38 1.94737 38H45.5263C45.7776 38 46.0185 37.9002 46.1962 37.7225C46.3739 37.5449 46.4737 37.3039 46.4737 37.0526V2.94737C46.4737 2.69611 46.3739 2.45514 46.1962 2.27748C46.0185 2.09981 45.7776 2 45.5263 2ZM2.89474 3.89474H44.5789V28.5263H2.89474V3.89474ZM2.89474 36.1053V30.4211H44.5789V36.1053H2.89474ZM20.2411 11.5684L20.62 11.1989C20.7083 11.1106 20.7784 11.0058 20.8262 10.8903C20.874 10.7749 20.8986 10.6512 20.8986 10.5263C20.8986 10.4014 20.874 10.2777 20.8262 10.1623C20.7784 10.0469 20.7083 9.94202 20.62 9.85368C20.5317 9.76535 20.4268 9.69528 20.3114 9.64748C20.196 9.59968 20.0723 9.57507 19.9474 9.57507C19.8224 9.57507 19.6988 9.59968 19.5833 9.64748C19.4679 9.69528 19.3631 9.76535 19.2747 9.85368L18.9053 10.2326C17.5802 9.19547 15.9459 8.63195 14.2632 8.63195C12.5804 8.63195 10.9462 9.19547 9.62105 10.2326L9.25158 9.85368C9.07319 9.67529 8.83123 9.57507 8.57895 9.57507C8.32666 9.57507 8.08471 9.67529 7.90632 9.85368C7.72792 10.0321 7.6277 10.274 7.6277 10.5263C7.6277 10.7786 7.72792 11.0206 7.90632 11.1989L8.28526 11.5684C7.24811 12.8935 6.68458 14.5278 6.68458 16.2105C6.68458 17.8933 7.24811 19.5275 8.28526 20.8526L7.90632 21.2221C7.81752 21.3102 7.74704 21.415 7.69895 21.5304C7.65085 21.6458 7.62609 21.7697 7.62609 21.8947C7.62609 22.0198 7.65085 22.1436 7.69895 22.2591C7.74704 22.3745 7.81752 22.4793 7.90632 22.5674C7.99439 22.6562 8.09917 22.7266 8.21461 22.7747C8.33006 22.8228 8.45388 22.8476 8.57895 22.8476C8.70401 22.8476 8.82784 22.8228 8.94328 22.7747C9.05873 22.7266 9.16351 22.6562 9.25158 22.5674L9.62105 22.1884C10.9462 23.2256 12.5804 23.7891 14.2632 23.7891C15.9459 23.7891 17.5802 23.2256 18.9053 22.1884L19.2747 22.5674C19.3628 22.6562 19.4676 22.7266 19.583 22.7747C19.6985 22.8228 19.8223 22.8476 19.9474 22.8476C20.0724 22.8476 20.1963 22.8228 20.3117 22.7747C20.4272 22.7266 20.5319 22.6562 20.62 22.5674C20.7088 22.4793 20.7793 22.3745 20.8274 22.2591C20.8755 22.1436 20.9002 22.0198 20.9002 21.8947C20.9002 21.7697 20.8755 21.6458 20.8274 21.5304C20.7793 21.415 20.7088 21.3102 20.62 21.2221L20.2411 20.8526C21.2782 19.5275 21.8417 17.8933 21.8417 16.2105C21.8417 14.5278 21.2782 12.8935 20.2411 11.5684ZM14.2632 21.8947C13.0849 21.8934 11.9361 21.5259 10.9758 20.8432L11.62 20.1989C11.7083 20.1106 11.7784 20.0058 11.8262 19.8903C11.874 19.7749 11.8986 19.6512 11.8986 19.5263C11.8986 19.4014 11.874 19.2777 11.8262 19.1623C11.7784 19.0469 11.7083 18.942 11.62 18.8537C11.5317 18.7654 11.4268 18.6953 11.3114 18.6475C11.196 18.5997 11.0723 18.5751 10.9474 18.5751C10.8224 18.5751 10.6988 18.5997 10.5833 18.6475C10.4679 18.6953 10.3631 18.7654 10.2747 18.8537L9.63053 19.4979C8.94936 18.537 8.5835 17.3883 8.5835 16.2105C8.5835 15.0327 8.94936 13.884 9.63053 12.9232L10.2747 13.5674C10.3628 13.6562 10.4676 13.7266 10.583 13.7747C10.6985 13.8228 10.8223 13.8476 10.9474 13.8476C11.0724 13.8476 11.1963 13.8228 11.3117 13.7747C11.4271 13.7266 11.5319 13.6562 11.62 13.5674C11.7088 13.4793 11.7793 13.3745 11.8274 13.2591C11.8755 13.1436 11.9002 13.0198 11.9002 12.8947C11.9002 12.7697 11.8755 12.6458 11.8274 12.5304C11.7793 12.415 11.7088 12.3102 11.62 12.2221L10.9758 11.5779C11.9366 10.8967 13.0854 10.5309 14.2632 10.5309C15.441 10.5309 16.5897 10.8967 17.5505 11.5779L16.9063 12.2221C16.8175 12.3102 16.747 12.415 16.6989 12.5304C16.6508 12.6458 16.6261 12.7697 16.6261 12.8947C16.6261 13.0198 16.6508 13.1436 16.6989 13.2591C16.747 13.3745 16.8175 13.4793 16.9063 13.5674C16.9944 13.6562 17.0992 13.7266 17.2146 13.7747C17.3301 13.8228 17.4539 13.8476 17.5789 13.8476C17.704 13.8476 17.8278 13.8228 17.9433 13.7747C18.0587 13.7266 18.1635 13.6562 18.2516 13.5674L18.8958 12.9232C19.577 13.884 19.9428 15.0327 19.9428 16.2105C19.9428 17.3883 19.577 18.537 18.8958 19.4979L18.2516 18.8537C18.0732 18.6753 17.8312 18.5751 17.5789 18.5751C17.3267 18.5751 17.0847 18.6753 16.9063 18.8537C16.7279 19.0321 16.6277 19.274 16.6277 19.5263C16.6277 19.7786 16.7279 20.0206 16.9063 20.1989L17.5505 20.8432C16.5902 21.5259 15.4415 21.8934 14.2632 21.8947ZM14.2632 13.3684C13.701 13.3684 13.1516 13.5351 12.6842 13.8474C12.2168 14.1597 11.8525 14.6036 11.6374 15.1229C11.4223 15.6422 11.366 16.2137 11.4757 16.765C11.5853 17.3163 11.856 17.8227 12.2535 18.2202C12.651 18.6177 13.1574 18.8884 13.7087 18.998C14.26 19.1077 14.8315 19.0514 15.3508 18.8363C15.8701 18.6212 16.314 18.2569 16.6263 17.7895C16.9386 17.3221 17.1053 16.7726 17.1053 16.2105C17.1053 15.4568 16.8058 14.7339 16.2728 14.2009C15.7398 13.6679 15.0169 13.3684 14.2632 13.3684ZM14.2632 17.1579C14.0758 17.1579 13.8926 17.1023 13.7368 16.9982C13.581 16.8941 13.4596 16.7462 13.3879 16.5731C13.3162 16.4 13.2974 16.2095 13.334 16.0257C13.3705 15.8419 13.4608 15.6731 13.5933 15.5406C13.7258 15.4081 13.8946 15.3179 14.0783 15.2814C14.2621 15.2448 14.4526 15.2636 14.6257 15.3353C14.7988 15.407 14.9468 15.5284 15.0509 15.6842C15.155 15.84 15.2105 16.0232 15.2105 16.2105C15.2105 16.4618 15.1107 16.7028 14.933 16.8804C14.7554 17.0581 14.5144 17.1579 14.2632 17.1579ZM39.1884 11.5684L39.5674 11.1989C39.7458 11.0206 39.846 10.7786 39.846 10.5263C39.846 10.274 39.7458 10.0321 39.5674 9.85368C39.389 9.67529 39.147 9.57507 38.8947 9.57507C38.6425 9.57507 38.4005 9.67529 38.2221 9.85368L37.8526 10.2326C36.5275 9.19547 34.8933 8.63195 33.2105 8.63195C31.5278 8.63195 29.8935 9.19547 28.5684 10.2326L28.1989 9.85368C28.1106 9.76535 28.0058 9.69528 27.8903 9.64748C27.7749 9.59968 27.6512 9.57507 27.5263 9.57507C27.4014 9.57507 27.2777 9.59968 27.1623 9.64748C27.0469 9.69528 26.942 9.76535 26.8537 9.85368C26.7654 9.94202 26.6953 10.0469 26.6475 10.1623C26.5997 10.2777 26.5751 10.4014 26.5751 10.5263C26.5751 10.6512 26.5997 10.7749 26.6475 10.8903C26.6953 11.0058 26.7654 11.1106 26.8537 11.1989L27.2326 11.5684C26.1955 12.8935 25.632 14.5278 25.632 16.2105C25.632 17.8933 26.1955 19.5275 27.2326 20.8526L26.8537 21.2221C26.7649 21.3102 26.6944 21.415 26.6463 21.5304C26.5982 21.6458 26.5735 21.7697 26.5735 21.8947C26.5735 22.0198 26.5982 22.1436 26.6463 22.2591C26.6944 22.3745 26.7649 22.4793 26.8537 22.5674C26.9418 22.6562 27.0465 22.7266 27.162 22.7747C27.2774 22.8228 27.4013 22.8476 27.5263 22.8476C27.6514 22.8476 27.7752 22.8228 27.8907 22.7747C28.0061 22.7266 28.1109 22.6562 28.1989 22.5674L28.5684 22.1884C29.8935 23.2256 31.5278 23.7891 33.2105 23.7891C34.8933 23.7891 36.5275 23.2256 37.8526 22.1884L38.2221 22.5674C38.3102 22.6562 38.415 22.7266 38.5304 22.7747C38.6458 22.8228 38.7697 22.8476 38.8947 22.8476C39.0198 22.8476 39.1436 22.8228 39.2591 22.7747C39.3745 22.7266 39.4793 22.6562 39.5674 22.5674C39.6562 22.4793 39.7266 22.3745 39.7747 22.2591C39.8228 22.1436 39.8476 22.0198 39.8476 21.8947C39.8476 21.7697 39.8228 21.6458 39.7747 21.5304C39.7266 21.415 39.6562 21.3102 39.5674 21.2221L39.1884 20.8526C40.2256 19.5275 40.7891 17.8933 40.7891 16.2105C40.7891 14.5278 40.2256 12.8935 39.1884 11.5684ZM33.2105 21.8947C32.0322 21.8934 30.8835 21.5259 29.9232 20.8432L30.5674 20.1989C30.7458 20.0206 30.846 19.7786 30.846 19.5263C30.846 19.274 30.7458 19.0321 30.5674 18.8537C30.389 18.6753 30.147 18.5751 29.8947 18.5751C29.6425 18.5751 29.4005 18.6753 29.2221 18.8537L28.5779 19.4979C27.8967 18.537 27.5309 17.3883 27.5309 16.2105C27.5309 15.0327 27.8967 13.884 28.5779 12.9232L29.2221 13.5674C29.3102 13.6562 29.415 13.7266 29.5304 13.7747C29.6458 13.8228 29.7697 13.8476 29.8947 13.8476C30.0198 13.8476 30.1436 13.8228 30.2591 13.7747C30.3745 13.7266 30.4793 13.6562 30.5674 13.5674C30.6562 13.4793 30.7266 13.3745 30.7747 13.2591C30.8228 13.1436 30.8476 13.0198 30.8476 12.8947C30.8476 12.7697 30.8228 12.6458 30.7747 12.5304C30.7266 12.415 30.6562 12.3102 30.5674 12.2221L29.9232 11.5779C30.884 10.8967 32.0327 10.5309 33.2105 10.5309C34.3883 10.5309 35.537 10.8967 36.4979 11.5779L35.8537 12.2221C35.7649 12.3102 35.6944 12.415 35.6463 12.5304C35.5982 12.6458 35.5735 12.7697 35.5735 12.8947C35.5735 13.0198 35.5982 13.1436 35.6463 13.2591C35.6944 13.3745 35.7649 13.4793 35.8537 13.5674C35.9418 13.6562 36.0465 13.7266 36.162 13.7747C36.2774 13.8228 36.4013 13.8476 36.5263 13.8476C36.6514 13.8476 36.7752 13.8228 36.8907 13.7747C37.0061 13.7266 37.1109 13.6562 37.1989 13.5674L37.8432 12.9232C38.5243 13.884 38.8902 15.0327 38.8902 16.2105C38.8902 17.3883 38.5243 18.537 37.8432 19.4979L37.1989 18.8537C37.1106 18.7654 37.0058 18.6953 36.8903 18.6475C36.7749 18.5997 36.6512 18.5751 36.5263 18.5751C36.4014 18.5751 36.2777 18.5997 36.1623 18.6475C36.0469 18.6953 35.942 18.7654 35.8537 18.8537C35.7654 18.942 35.6953 19.0469 35.6475 19.1623C35.5997 19.2777 35.5751 19.4014 35.5751 19.5263C35.5751 19.6512 35.5997 19.7749 35.6475 19.8903C35.6953 20.0058 35.7654 20.1106 35.8537 20.1989L36.4979 20.8432C35.5376 21.5259 34.3888 21.8934 33.2105 21.8947ZM33.2105 13.3684C32.6484 13.3684 32.0989 13.5351 31.6315 13.8474C31.1642 14.1597 30.7999 14.6036 30.5848 15.1229C30.3697 15.6422 30.3134 16.2137 30.423 16.765C30.5327 17.3163 30.8034 17.8227 31.2009 18.2202C31.5983 18.6177 32.1047 18.8884 32.6561 18.998C33.2074 19.1077 33.7788 19.0514 34.2982 18.8363C34.8175 18.6212 35.2614 18.2569 35.5737 17.7895C35.8859 17.3221 36.0526 16.7726 36.0526 16.2105C36.0526 15.4568 35.7532 14.7339 35.2202 14.2009C34.6872 13.6679 33.9643 13.3684 33.2105 13.3684ZM33.2105 17.1579C33.0232 17.1579 32.84 17.1023 32.6842 16.9982C32.5284 16.8941 32.407 16.7462 32.3353 16.5731C32.2636 16.4 32.2448 16.2095 32.2814 16.0257C32.3179 15.8419 32.4081 15.6731 32.5406 15.5406C32.6731 15.4081 32.8419 15.3179 33.0257 15.2814C33.2095 15.2448 33.4 15.2636 33.5731 15.3353C33.7462 15.407 33.8941 15.5284 33.9982 15.6842C34.1023 15.84 34.1579 16.0232 34.1579 16.2105C34.1579 16.4618 34.0581 16.7028 33.8804 16.8804C33.7028 17.0581 33.4618 17.1579 33.2105 17.1579ZM8.57895 33.2632C8.57895 33.5144 8.47914 33.7554 8.30147 33.9331C8.1238 34.1107 7.88284 34.2105 7.63158 34.2105H5.73684C5.48558 34.2105 5.24462 34.1107 5.06695 33.9331C4.88929 33.7554 4.78947 33.5144 4.78947 33.2632C4.78947 33.0119 4.88929 32.7709 5.06695 32.5933C5.24462 32.4156 5.48558 32.3158 5.73684 32.3158H7.63158C7.88284 32.3158 8.1238 32.4156 8.30147 32.5933C8.47914 32.7709 8.57895 33.0119 8.57895 33.2632ZM14.2632 33.2632C14.2632 33.5144 14.1633 33.7554 13.9857 33.9331C13.808 34.1107 13.567 34.2105 13.3158 34.2105H11.4211C11.1698 34.2105 10.9288 34.1107 10.7512 33.9331C10.5735 33.7554 10.4737 33.5144 10.4737 33.2632C10.4737 33.0119 10.5735 32.7709 10.7512 32.5933C10.9288 32.4156 11.1698 32.3158 11.4211 32.3158H13.3158C13.567 32.3158 13.808 32.4156 13.9857 32.5933C14.1633 32.7709 14.2632 33.0119 14.2632 33.2632ZM19.9474 33.2632C19.9474 33.5144 19.8476 33.7554 19.6699 33.9331C19.4922 34.1107 19.2513 34.2105 19 34.2105H17.1053C16.854 34.2105 16.613 34.1107 16.4354 33.9331C16.2577 33.7554 16.1579 33.5144 16.1579 33.2632C16.1579 33.0119 16.2577 32.7709 16.4354 32.5933C16.613 32.4156 16.854 32.3158 17.1053 32.3158H19C19.2513 32.3158 19.4922 32.4156 19.6699 32.5933C19.8476 32.7709 19.9474 33.0119 19.9474 33.2632Z" fill="#474747"/>
<rect x="27" y="26" width="21" height="21" rx="10.5" fill="white" stroke="#474747" stroke-width="2"/>
<path d="M35.1115 38.9354V43.0014C35.1115 43.139 35.1661 43.2709 35.2634 43.3681C35.3606 43.4654 35.4925 43.52 35.6301 43.52C35.7676 43.52 35.8995 43.4654 35.9967 43.3681C36.094 43.2709 36.1486 43.139 36.1486 43.0014V38.5835C36.1486 38.4764 36.1154 38.372 36.0537 38.2845C35.9919 38.197 35.9047 38.1307 35.8038 38.0948C34.996 37.8077 34.2967 37.2781 33.8015 36.5784C33.3063 35.8787 33.0393 35.043 33.0372 34.1858C33.0434 33.4247 33.2356 32.6767 33.5972 32.0069C33.9587 31.3371 34.4786 30.7659 35.1115 30.3431V34.1858C35.1115 34.2539 35.1249 34.3213 35.151 34.3842C35.177 34.4471 35.2153 34.5043 35.2634 34.5524L36.8191 36.1081C36.8673 36.1563 36.9244 36.1945 36.9873 36.2206C37.0502 36.2466 37.1177 36.2601 37.1858 36.2601C37.2539 36.2601 37.3213 36.2466 37.3842 36.2206C37.4471 36.1945 37.5043 36.1563 37.5524 36.1081L39.1081 34.5524C39.1563 34.5043 39.1945 34.4471 39.2206 34.3842C39.2466 34.3213 39.26 34.2539 39.26 34.1858V30.3431C39.8929 30.7659 40.4128 31.3371 40.7744 32.0069C41.1359 32.6767 41.3281 33.4247 41.3343 34.1858C41.3322 35.043 41.0652 35.8787 40.57 36.5784C40.0748 37.2781 39.3755 37.8077 38.5677 38.0948C38.4669 38.1307 38.3796 38.197 38.3178 38.2845C38.2561 38.372 38.2229 38.4764 38.2229 38.5835V43.0014C38.2229 43.139 38.2775 43.2709 38.3748 43.3681C38.472 43.4654 38.6039 43.52 38.7415 43.52C38.879 43.52 39.0109 43.4654 39.1081 43.3681C39.2054 43.2709 39.26 43.139 39.26 43.0014V38.9354C40.1833 38.5307 40.969 37.8662 41.5214 37.0229C42.0738 36.1796 42.3691 35.1939 42.3714 34.1858C42.3778 33.0789 42.0516 31.9955 41.4351 31.0762C40.8185 30.1568 39.9401 29.4438 38.9136 29.0295C38.8354 29.0019 38.7517 28.9935 38.6696 29.005C38.5875 29.0164 38.5093 29.0474 38.4417 29.0953C38.374 29.1433 38.3188 29.2067 38.2807 29.2804C38.2427 29.3541 38.2228 29.4358 38.2229 29.5187V33.9711L37.1858 35.0082L36.1486 33.9711V29.5187C36.1487 29.4358 36.1288 29.3541 36.0908 29.2804C36.0527 29.2067 35.9975 29.1433 35.9299 29.0953C35.8622 29.0474 35.784 29.0164 35.7019 29.005C35.6198 28.9935 35.5361 29.0019 35.4579 29.0295C34.4314 29.4438 33.553 30.1568 32.9365 31.0762C32.3199 31.9955 31.9937 33.0789 32.0001 34.1858C32.0024 35.1939 32.2977 36.1796 32.8501 37.0229C33.4025 37.8662 34.1882 38.5307 35.1115 38.9354Z" fill="#BB0841" stroke="#BB0841" stroke-width="0.7"/>
</svg>
