<svg width="50" height="50" viewBox="0 0 50 50" fill="none" xmlns="http://www.w3.org/2000/svg">
<path d="M17.6207 42.0214C15.0897 42.0214 13.0253 39.9862 13.0253 37.4769C13.0253 34.9676 15.0833 32.9324 17.6207 32.9324C20.1581 32.9324 22.2162 34.9676 22.2162 37.4769C22.2162 39.9862 20.1581 42.0214 17.6207 42.0214ZM17.6207 35.783C16.6748 35.783 15.9014 36.5478 15.9014 37.4832C15.9014 38.4186 16.6748 39.1834 17.6207 39.1834C18.5666 39.1834 19.34 38.4186 19.34 37.4832C19.34 36.5478 18.5666 35.783 17.6207 35.783Z" fill="#3E3A39"/>
<path d="M37.2751 42.0214C34.7441 42.0214 32.6797 39.9862 32.6797 37.4769C32.6797 34.9676 34.7377 32.9324 37.2751 32.9324C39.8125 32.9324 41.8706 34.9676 41.8706 37.4769C41.8706 39.9862 39.8125 42.0214 37.2751 42.0214ZM37.2751 35.783C36.3292 35.783 35.5558 36.5478 35.5558 37.4832C35.5558 38.4186 36.3292 39.1834 37.2751 39.1834C38.2211 39.1834 38.9944 38.4186 38.9944 37.4832C38.9944 36.5478 38.2211 35.783 37.2751 35.783Z" fill="#3E3A39"/>
<path d="M48.5618 39.0248H40.9177C40.1251 39.0248 39.4796 38.3865 39.4796 37.6027C39.4796 36.819 40.1251 36.1806 40.9177 36.1806H47.1238V21.9972L41.0455 13.9447H39.78C38.9875 13.9447 38.3419 13.3064 38.3419 12.5226C38.3419 11.7388 38.9875 11.1005 39.78 11.1005H41.7677C42.2215 11.1005 42.6497 11.309 42.9182 11.6693L49.7123 20.6698C49.8976 20.9163 49.9999 21.2134 49.9999 21.5231V37.6027C49.9999 38.3865 49.3544 39.0248 48.5618 39.0248Z" fill="#3E3A39"/>
<path d="M33.6383 39.0266H21.3795C20.5869 39.0266 19.9414 38.3883 19.9414 37.6045C19.9414 36.8208 20.5869 36.1824 21.3795 36.1824H33.6383C34.4308 36.1824 35.0763 36.8208 35.0763 37.6045C35.0763 38.3883 34.4308 39.0266 33.6383 39.0266Z" fill="#3E3A39"/>
<path d="M13.8566 39.0257H8.6412C7.84866 39.0257 7.20312 38.3873 7.20312 37.6035V32.8125C7.20312 32.0288 7.84866 31.3904 8.6412 31.3904C9.43374 31.3904 10.0793 32.0288 10.0793 32.8125V36.1814H13.8566C14.6491 36.1814 15.2947 36.8198 15.2947 37.6035C15.2947 38.3873 14.6491 39.0257 13.8566 39.0257Z" fill="#3E3A39"/>
<path d="M34.6986 28.6345H9.20317C8.44898 28.6345 7.8418 28.034 7.8418 27.2882V9.32505C7.8418 8.57922 8.44898 7.97876 9.20317 7.97876H34.6986C35.4528 7.97876 36.06 8.57922 36.06 9.32505V27.2882C36.06 28.034 35.4528 28.6345 34.6986 28.6345ZM10.5645 25.9419H33.3372V10.6713H10.5645V25.9482V25.9419Z" fill="#C01B50"/>
<path d="M3.51529 20.1459H1.43807C0.645535 20.1459 0 19.5075 0 18.7238C0 17.94 0.645535 17.3016 1.43807 17.3016H3.51529C4.30783 17.3016 4.95336 17.94 4.95336 18.7238C4.95336 19.5075 4.30783 20.1459 3.51529 20.1459Z" fill="#3E3A39"/>
<path d="M3.51529 28.6791H1.43807C0.645535 28.6791 0 28.0407 0 27.257C0 26.4732 0.645535 25.8348 1.43807 25.8348H3.51529C4.30783 25.8348 4.95336 26.4732 4.95336 27.257C4.95336 28.0407 4.30783 28.6791 3.51529 28.6791Z" fill="#3E3A39"/>
</svg>
