<svg width="50" height="50" viewBox="0 0 50 50" fill="none" xmlns="http://www.w3.org/2000/svg">
<path d="M17.1875 26.5625C18.4819 26.5625 19.5312 25.5132 19.5312 24.2188C19.5312 22.9243 18.4819 21.875 17.1875 21.875C15.8931 21.875 14.8438 22.9243 14.8438 24.2188C14.8438 25.5132 15.8931 26.5625 17.1875 26.5625Z" fill="#C01B50"/>
<path d="M18.75 18.75H15.625V12.5H18.75C19.5788 12.5 20.3737 12.1708 20.9597 11.5847C21.5458 10.9987 21.875 10.2038 21.875 9.375C21.875 8.5462 21.5458 7.75134 20.9597 7.16529C20.3737 6.57924 19.5788 6.25 18.75 6.25H15.625C14.7965 6.25083 14.0021 6.58033 13.4162 7.16621C12.8303 7.75208 12.5008 8.54645 12.5 9.375V10.1562H9.375V9.375C9.37707 7.71803 10.0362 6.12952 11.2079 4.95787C12.3795 3.78621 13.968 3.12707 15.625 3.125H18.75C20.4076 3.125 21.9973 3.78348 23.1694 4.95558C24.3415 6.12769 25 7.7174 25 9.375C25 11.0326 24.3415 12.6223 23.1694 13.7944C21.9973 14.9665 20.4076 15.625 18.75 15.625V18.75Z" fill="#C01B50"/>
<path d="M35.075 32.8656C36.6382 30.9951 37.7844 28.8126 38.4372 26.464C39.09 24.1153 39.2344 21.6544 38.8607 19.2455C38.4871 16.8366 37.6039 14.5351 36.2702 12.4946C34.9365 10.4541 33.183 8.72153 31.1266 7.41248L29.5656 10.1156C31.6032 11.4484 33.2596 13.2875 34.3728 15.4528C35.486 17.6182 36.0177 20.0355 35.9158 22.4681C35.814 24.9007 35.0821 27.2651 33.7919 29.3299C32.5016 31.3946 30.6973 33.0888 28.5555 34.2467C26.4137 35.4045 24.0079 35.9862 21.5737 35.9348C19.1395 35.8834 16.7604 35.2008 14.6694 33.9536C12.5783 32.7064 10.847 30.9376 9.64505 28.8202C8.44307 26.7029 7.81161 24.3097 7.8125 21.875H4.6875C4.68514 25.1413 5.61424 28.3406 7.36581 31.0976C9.11739 33.8545 11.6188 36.0549 14.5767 37.4405C17.5346 38.8261 20.8262 39.3395 24.0656 38.9205C27.3049 38.5016 30.3576 37.1675 32.8656 35.075L44.6656 46.875L46.875 44.6656L35.075 32.8656Z" fill="#494949"/>
</svg>
