<svg width="50" height="50" viewBox="0 0 50 50" fill="none" xmlns="http://www.w3.org/2000/svg">
<path d="M45.5515 46.5005H15.2898C14.7671 46.5005 14.3413 46.0818 14.3413 45.5676V8.57487C14.3413 8.06074 14.7671 7.64197 15.2898 7.64197H38.5204C38.7733 7.64197 39.0135 7.74148 39.1906 7.91562L46.2175 14.8274C46.3946 15.0015 46.4957 15.2379 46.4957 15.4867V45.5676C46.4957 46.0818 46.07 46.5005 45.5473 46.5005M16.2382 44.6347H44.5988V15.8723L38.1241 9.50363H16.2382V44.6347Z" fill="#494949"/>
<path d="M45.5509 16.4184H38.524C38.0013 16.4184 37.5756 15.9996 37.5756 15.4855V8.57373C37.5756 8.19642 37.8074 7.85643 38.1615 7.71131C38.5156 7.56619 38.9245 7.64911 39.1942 7.91447L46.2212 14.8263C46.491 15.0916 46.5753 15.4938 46.4277 15.8421C46.2802 16.1904 45.9345 16.4184 45.5509 16.4184ZM39.4725 14.5526H43.262L39.4725 10.8251V14.5526Z" fill="#494949"/>
<path d="M23.1644 25.8101C21.5584 25.8101 20.2474 24.5247 20.2474 22.9409C20.2474 21.357 21.5542 20.0717 23.1644 20.0717C24.7747 20.0717 26.0814 21.357 26.0814 22.9409C26.0814 24.5247 24.7747 25.8101 23.1644 25.8101ZM23.1644 21.9375C22.6038 21.9375 22.1443 22.3853 22.1443 22.9409C22.1443 23.4964 22.5996 23.9442 23.1644 23.9442C23.7293 23.9442 24.1845 23.4964 24.1845 22.9409C24.1845 22.3853 23.7251 21.9375 23.1644 21.9375Z" fill="#494949"/>
<path d="M39.6468 23.8779H28.8219C28.2992 23.8779 27.8734 23.4591 27.8734 22.945C27.8734 22.4309 28.2992 22.0121 28.8219 22.0121H39.6468C40.1695 22.0121 40.5952 22.4309 40.5952 22.945C40.5952 23.4591 40.1695 23.8779 39.6468 23.8779Z" fill="#494949"/>
<path d="M23.1644 33.6763C21.5584 33.6763 20.2474 32.3909 20.2474 30.8071C20.2474 29.2232 21.5542 27.9379 23.1644 27.9379C24.7747 27.9379 26.0814 29.2232 26.0814 30.8071C26.0814 32.3909 24.7747 33.6763 23.1644 33.6763ZM23.1644 29.8037C22.6038 29.8037 22.1443 30.2515 22.1443 30.8071C22.1443 31.3627 22.5996 31.8105 23.1644 31.8105C23.7293 31.8105 24.1845 31.3627 24.1845 30.8071C24.1845 30.2515 23.7251 29.8037 23.1644 29.8037Z" fill="#494949"/>
<path d="M39.6468 31.7397H28.8219C28.2992 31.7397 27.8734 31.3209 27.8734 30.8068C27.8734 30.2927 28.2992 29.8739 28.8219 29.8739H39.6468C40.1695 29.8739 40.5952 30.2927 40.5952 30.8068C40.5952 31.3209 40.1695 31.7397 39.6468 31.7397Z" fill="#494949"/>
<path d="M23.1644 41.54C21.5584 41.54 20.2474 40.2547 20.2474 38.6708C20.2474 37.087 21.5542 35.8016 23.1644 35.8016C24.7747 35.8016 26.0814 37.087 26.0814 38.6708C26.0814 40.2547 24.7747 41.54 23.1644 41.54ZM23.1644 37.6674C22.6038 37.6674 22.1443 38.1152 22.1443 38.6708C22.1443 39.2264 22.5996 39.6742 23.1644 39.6742C23.7293 39.6742 24.1845 39.2264 24.1845 38.6708C24.1845 38.1152 23.7251 37.6674 23.1644 37.6674Z" fill="#494949"/>
<path d="M39.6468 39.6049H28.8219C28.2992 39.6049 27.8734 39.1862 27.8734 38.672C27.8734 38.1579 28.2992 37.7391 28.8219 37.7391H39.6468C40.1695 37.7391 40.5952 38.1579 40.5952 38.672C40.5952 39.1862 40.1695 39.6049 39.6468 39.6049Z" fill="#494949"/>
<path d="M21.18 12.6586C21.18 8.11436 17.4368 4.4325 12.8169 4.4325C8.19688 4.4325 4.44946 8.11436 4.44946 12.6586C4.44946 17.2029 8.19266 20.8848 12.8126 20.8848C17.4326 20.8848 21.1758 17.2029 21.1758 12.6586" fill="white"/>
<path d="M12.812 21.8216C7.67774 21.8216 3.50037 17.7086 3.50037 12.6584C3.50037 7.60831 7.67774 3.49939 12.812 3.49939C17.9462 3.49939 22.1236 7.60831 22.1236 12.6584C22.1236 17.7086 17.9462 21.8175 12.812 21.8175M12.812 5.36105C8.72314 5.36105 5.39726 8.63243 5.39726 12.6543C5.39726 16.6761 8.72314 19.9475 12.812 19.9475C16.9009 19.9475 20.2267 16.6761 20.2267 12.6543C20.2267 8.63243 16.9009 5.3652 12.812 5.3652" fill="#C01B50"/>
<path d="M11.0209 16.5931C10.7764 16.5931 10.5361 16.5018 10.3507 16.3194L8.10389 14.1095C7.73295 13.7446 7.73295 13.1558 8.10389 12.791C8.47484 12.4261 9.07342 12.4261 9.44436 12.791L11.0209 14.3416L15.6072 9.83054C15.9781 9.46567 16.5767 9.46567 16.9476 9.83054C17.3186 10.1954 17.3186 10.7842 16.9476 11.149L11.6911 16.3194C11.5057 16.5018 11.2654 16.5931 11.0209 16.5931Z" fill="#C01B50"/>
</svg>
