<svg width="9" height="8" viewBox="0 0 9 8" fill="none" xmlns="http://www.w3.org/2000/svg">
<path d="M6.96991 0.970002C7.11078 0.835891 7.29824 0.761749 7.49273 0.76322C7.68722 0.764692 7.87354 0.841662 8.01236 0.97789C8.15118 1.11412 8.23165 1.29895 8.23679 1.49338C8.24193 1.68781 8.17134 1.87663 8.03991 2.02L4.04991 7.01C3.9813 7.0839 3.8985 7.1432 3.80645 7.18437C3.71439 7.22553 3.61498 7.24771 3.51416 7.24958C3.41334 7.25145 3.31318 7.23296 3.21967 7.19523C3.12616 7.15751 3.04121 7.10131 2.96991 7.03L0.323913 4.384C0.250227 4.31534 0.191125 4.23254 0.150133 4.14054C0.109141 4.04854 0.0870986 3.94923 0.0853218 3.84852C0.083545 3.74782 0.10207 3.64779 0.139791 3.5544C0.177512 3.46102 0.233657 3.37618 0.304875 3.30496C0.376094 3.23374 0.460928 3.1776 0.554316 3.13988C0.647704 3.10216 0.747733 3.08363 0.848436 3.08541C0.949139 3.08719 1.04845 3.10923 1.14045 3.15022C1.23245 3.19121 1.31525 3.25031 1.38391 3.324L3.47791 5.417L6.95091 0.992002C6.95717 0.984303 6.96284 0.976958 6.96991 0.970002Z" fill="white"/>
</svg>
