<svg width="38" height="38" viewBox="0 0 38 38" fill="none" xmlns="http://www.w3.org/2000/svg">
<circle cx="19" cy="19" r="19" transform="rotate(180 19 19)" fill="#F0F0F0"/>
<path d="M15.1349 18.6323L21.2372 12.1343C21.406 11.9552 21.6834 11.9552 21.8643 12.1343C22.0332 12.3134 22.0332 12.6204 21.8643 12.7995L16.0394 19.0032L21.8643 25.1942C22.0452 25.386 22.0452 25.6802 21.8643 25.8593C21.7799 25.9488 21.6593 26 21.5508 26C21.4422 26 21.3216 25.9488 21.2372 25.8593L15.1228 19.3614C15.0264 19.259 14.9902 19.1311 15.0022 19.0032C15.0022 18.8753 15.0384 18.7346 15.1228 18.645L15.1349 18.6323Z" fill="#BF0C3F"/>
</svg>
