<svg width="8" height="8" viewBox="0 0 8 8" fill="none" xmlns="http://www.w3.org/2000/svg">
<path d="M4 8C2.88333 8 1.9375 7.6125 1.1625 6.8375C0.3875 6.0625 0 5.11667 0 4C0 2.88333 0.3875 1.9375 1.1625 1.1625C1.9375 0.3875 2.88333 0 4 0C4.575 0 5.125 0.118667 5.65 0.356C6.175 0.593333 6.625 0.933 7 1.375V0H8V3.5H4.5V2.5H6.6C6.33333 2.03333 5.96867 1.66667 5.506 1.4C5.04333 1.13333 4.54133 1 4 1C3.16667 1 2.45833 1.29167 1.875 1.875C1.29167 2.45833 1 3.16667 1 4C1 4.83333 1.29167 5.54167 1.875 6.125C2.45833 6.70833 3.16667 7 4 7C4.64167 7 5.22083 6.81667 5.7375 6.45C6.25417 6.08333 6.61667 5.6 6.825 5H7.875C7.64167 5.88333 7.16667 6.60417 6.45 7.1625C5.73333 7.72083 4.91667 8 4 8Z" fill="#CCCCCC"/>
</svg>
