<svg width="13" height="13" viewBox="0 0 13 13" fill="none" xmlns="http://www.w3.org/2000/svg">
<path d="M12.4151 5.32076C12.7358 5.32076 13 5.01887 13 4.64151L12.9811 4.63208V0.660377V0.613208V0.575472C12.9811 0.443396 12.9245 0.320755 12.8302 0.216981C12.8208 0.207547 12.8113 0.188679 12.8019 0.179245C12.7925 0.169811 12.7736 0.160377 12.7642 0.150943C12.6698 0.0660377 12.5472 0 12.4057 0H12.3679H12.3208H12.283H12.2547H8.35849C7.99057 0 7.68868 0.254717 7.68868 0.584906C7.68868 0.915094 8 1.17925 8.36792 1.17925H10.7925L5.5283 6.46226C5.24528 6.73585 5.24528 7.18868 5.5283 7.4717C5.80189 7.75472 6.25472 7.75472 6.53774 7.4717L11.8302 2.16981V4.64151C11.8302 5.01887 12.0943 5.32076 12.4151 5.32076Z" fill="white" fill-opacity="0.5"/>
<path d="M10.6321 11.8208H1.17925V2.36792H6.5V1.18868H1.17925C0.528302 1.18868 0 1.71698 0 2.36792V11.8208C0 12.4717 0.528302 13 1.17925 13H10.6321C11.283 13 11.8113 12.4717 11.8113 11.8208V6.5H10.6321V11.8208Z" fill="white" fill-opacity="0.5"/>
</svg>
