<svg width="16" height="16" viewBox="0 0 16 16" fill="none" xmlns="http://www.w3.org/2000/svg">
<path d="M13.3909 10.1219H10.3076L11.0042 13.2464C11.0899 13.6321 11.0622 14.0342 10.9246 14.4046C10.7869 14.7751 10.545 15.0982 10.2278 15.3355L9.74806 15.6937C9.57498 15.8235 9.37617 15.9152 9.16481 15.9627C8.95346 16.0102 8.73438 16.0124 8.5221 15.9691C8.30982 15.9259 8.1092 15.8382 7.93353 15.712C7.75786 15.5857 7.61115 15.4236 7.50314 15.2366C6.55482 13.518 5.47428 11.875 4.2712 10.3225C4.22493 10.4201 4.15188 10.5026 4.06048 10.5605C3.96908 10.6185 3.86308 10.6495 3.75473 10.6499H0.573854C0.421658 10.6499 0.275696 10.5897 0.168078 10.4826C0.0604594 10.3754 0 10.2301 0 10.0785V1.09939C0 0.947846 0.0604594 0.802506 0.168078 0.695347C0.275696 0.588186 0.421658 0.527985 0.573854 0.527985H3.75645C3.89378 0.52898 4.02608 0.579576 4.12878 0.670378C4.23147 0.761179 4.29758 0.88601 4.31481 1.02168C4.61159 0.700841 4.97172 0.444487 5.37263 0.268681C5.77354 0.0928745 6.20659 0.00140381 6.64466 1.90735e-06H9.79511C10.3166 -0.000572205 10.8302 0.127382 11.29 0.372451C11.7498 0.617519 12.1415 0.972083 12.4303 1.40452L15.5623 6.08265C15.8241 6.47401 15.9743 6.92875 15.997 7.39841C16.0197 7.86808 15.9139 8.33506 15.6911 8.74962C15.4682 9.16417 15.1366 9.51074 14.7315 9.75241C14.3264 9.99409 13.8631 10.1218 13.3909 10.1219ZM3.18259 1.6708H1.14771V9.50767H3.18259V1.6708ZM14.6075 6.71577L11.4754 2.03822C11.2912 1.76257 11.0414 1.53656 10.7482 1.38034C10.455 1.22411 10.1276 1.14252 9.79511 1.14282H6.64466C6.33119 1.14353 6.02215 1.21654 5.74178 1.35612C5.46141 1.49571 5.21733 1.69808 5.02868 1.94736L4.3303 2.87419V8.74255C5.52908 9.74995 7.23573 12.4761 8.49821 14.6675C8.52474 14.7142 8.5611 14.7545 8.60478 14.7859C8.64846 14.8173 8.69843 14.8389 8.75128 14.8492C8.80467 14.8603 8.85984 14.86 8.91309 14.8482C8.96633 14.8363 9.01643 14.8133 9.06001 14.7806L9.53918 14.4224C9.67992 14.3169 9.78722 14.1733 9.84827 14.0088C9.90932 13.8442 9.92155 13.6657 9.88349 13.4944L9.03304 9.67452C9.01439 9.591 9.01482 9.50437 9.03429 9.42104C9.05376 9.3377 9.09178 9.25978 9.14554 9.19303C9.1993 9.12629 9.26743 9.07241 9.3449 9.03539C9.42236 8.99836 9.50719 8.97913 9.59312 8.97912H13.3926C13.6571 8.97889 13.9167 8.90724 14.1436 8.77178C14.3704 8.63633 14.5562 8.44214 14.681 8.2099C14.8058 7.97766 14.8651 7.71606 14.8524 7.45295C14.8398 7.18984 14.7557 6.93507 14.6092 6.71577H14.6075Z" fill="#BB0841"/>
</svg>
