<svg width="16" height="16" viewBox="0 0 16 16" fill="none" xmlns="http://www.w3.org/2000/svg">
<path d="M13.5001 8.37972V7.61472L14.4601 6.77472C14.6371 6.61874 14.7532 6.40523 14.788 6.17192C14.8228 5.9386 14.7739 5.70051 14.6501 5.49972L13.4701 3.49972C13.3824 3.34785 13.2564 3.22171 13.1045 3.13395C12.9527 3.04619 12.7805 2.9999 12.6051 2.99972C12.4964 2.99888 12.3884 3.01577 12.2851 3.04972L11.0701 3.45972C10.8604 3.32032 10.6415 3.19504 10.4151 3.08472L10.1601 1.82472C10.1144 1.59452 9.98917 1.38774 9.80635 1.24057C9.62353 1.0934 9.39478 1.01522 9.16013 1.01971H6.82013C6.58547 1.01522 6.35672 1.0934 6.1739 1.24057C5.99108 1.38774 5.86585 1.59452 5.82013 1.82472L5.56513 3.08472C5.33709 3.19502 5.11661 3.32029 4.90513 3.45972L3.71513 3.02972C3.61077 3.00253 3.50271 2.9924 3.39513 2.99972C3.21976 2.9999 3.04753 3.04619 2.89571 3.13395C2.74388 3.22171 2.61781 3.34785 2.53013 3.49972L1.35013 5.49972C1.23342 5.70021 1.19005 5.93504 1.22745 6.164C1.26485 6.39295 1.38069 6.60178 1.55513 6.75472L2.50013 7.61972V8.38472L1.55513 9.22472C1.37576 9.37872 1.25675 9.59128 1.21923 9.82469C1.1817 10.0581 1.22807 10.2973 1.35013 10.4997L2.53013 12.4997C2.61781 12.6516 2.74388 12.7777 2.89571 12.8655C3.04753 12.9532 3.21976 12.9995 3.39513 12.9997C3.5038 13.0005 3.61189 12.9837 3.71513 12.9497L4.93013 12.5397C5.1399 12.6791 5.35871 12.8044 5.58513 12.9147L5.84013 14.1747C5.88585 14.4049 6.01108 14.6117 6.1939 14.7589C6.37672 14.906 6.60547 14.9842 6.84013 14.9797H9.20013C9.43478 14.9842 9.66353 14.906 9.84635 14.7589C10.0292 14.6117 10.1544 14.4049 10.2001 14.1747L10.4551 12.9147C10.6832 12.8044 10.9036 12.6791 11.1151 12.5397L12.3251 12.9497C12.4284 12.9837 12.5365 13.0005 12.6451 12.9997C12.8205 12.9995 12.9927 12.9532 13.1445 12.8655C13.2964 12.7777 13.4224 12.6516 13.5101 12.4997L14.6501 10.4997C14.7668 10.2992 14.8102 10.0644 14.7728 9.83543C14.7354 9.60648 14.6196 9.39765 14.4451 9.24472L13.5001 8.37972ZM12.6051 11.9997L10.8901 11.4197C10.4887 11.7598 10.0298 12.0256 9.53512 12.2047L9.18013 13.9997H6.82013L6.46513 12.2247C5.97434 12.0405 5.51798 11.7751 5.11513 11.4397L3.39513 11.9997L2.21513 9.99972L3.57513 8.79972C3.48267 8.28215 3.48267 7.75229 3.57513 7.23472L2.21513 5.99972L3.39513 3.99972L5.11013 4.57972C5.51159 4.23966 5.97043 3.97384 6.46513 3.79472L6.82013 1.99972H9.18013L9.53512 3.77472C10.0259 3.95893 10.4823 4.22429 10.8851 4.55972L12.6051 3.99972L13.7851 5.99972L12.4251 7.19972C12.5176 7.71729 12.5176 8.24715 12.4251 8.76472L13.7851 9.99972L12.6051 11.9997Z" fill="#BB0841"/>
<path d="M8 11C7.40666 11 6.82664 10.8241 6.33329 10.4944C5.83994 10.1648 5.45543 9.69623 5.22836 9.14805C5.0013 8.59987 4.94189 7.99667 5.05765 7.41473C5.1734 6.83279 5.45912 6.29824 5.87868 5.87868C6.29824 5.45912 6.83279 5.1734 7.41473 5.05765C7.99667 4.94189 8.59987 5.0013 9.14805 5.22836C9.69623 5.45543 10.1648 5.83994 10.4944 6.33329C10.8241 6.82664 11 7.40666 11 8C11.004 8.39508 10.9292 8.78699 10.7798 9.15278C10.6305 9.51857 10.4096 9.85088 10.1303 10.1303C9.85088 10.4096 9.51857 10.6305 9.15278 10.7798C8.78699 10.9292 8.39508 11.004 8 11ZM8 6C7.73567 5.99384 7.47284 6.04137 7.22741 6.1397C6.98197 6.23803 6.75904 6.38512 6.57208 6.57208C6.38512 6.75904 6.23803 6.98197 6.1397 7.22741C6.04137 7.47284 5.99384 7.73567 6 8C5.99384 8.26433 6.04137 8.52716 6.1397 8.77259C6.23803 9.01803 6.38512 9.24097 6.57208 9.42793C6.75904 9.61488 6.98197 9.76198 7.22741 9.86031C7.47284 9.95864 7.73567 10.0062 8 10C8.26433 10.0062 8.52716 9.95864 8.77259 9.86031C9.01803 9.76198 9.24097 9.61488 9.42793 9.42793C9.61488 9.24097 9.76198 9.01803 9.86031 8.77259C9.95864 8.52716 10.0062 8.26433 10 8C10.0062 7.73567 9.95864 7.47284 9.86031 7.22741C9.76198 6.98197 9.61488 6.75904 9.42793 6.57208C9.24097 6.38512 9.01803 6.23803 8.77259 6.1397C8.52716 6.04137 8.26433 5.99384 8 6Z" fill="#BB0841"/>
</svg>
