<svg width="16" height="16" viewBox="0 0 16 16" fill="none" xmlns="http://www.w3.org/2000/svg">
<path fill-rule="evenodd" clip-rule="evenodd" d="M15.9905 8C15.9905 8.17122 15.9334 8.34245 15.8002 8.47562C15.7622 8.51367 15.7146 8.5327 15.6671 8.56124C15.4197 8.92271 15.0583 9.33175 14.6587 9.33175H13.9929V14.6683C13.9929 15.4007 13.3936 16 12.6611 16H3.32937C2.59691 16 1.99762 15.4007 1.99762 14.6683V9.33175H1.33175C0.608799 9.33175 0.0285375 8.75149 0 8.03805C0 8.02854 0 8.01902 0 8.00951C0 7.8478 0.0665874 7.68609 0.19025 7.56243L7.45779 0.285375C7.45779 0.285375 7.49584 0.218787 7.52438 0.19025C7.64804 0.0570749 7.82878 0 8 0C8.17122 0 8.34245 0.0570749 8.47562 0.19025C8.50416 0.218787 8.51367 0.256837 8.54221 0.285375L15.8098 7.55291C15.9334 7.67658 15.9905 7.83829 16 8H15.9905ZM7.32461 14.6683H8.65636V11.3389H7.32461V14.6683ZM7.99049 1.58859L1.58859 8H3.32937V14.6683H5.99287V10.6635C5.99287 10.2925 6.28775 9.99762 6.65874 9.99762H9.32224C9.69322 9.99762 9.98811 10.2925 9.98811 10.6635V14.6683H12.6516V8H14.4019L8 1.58859H7.99049Z" fill="#33355C"/>
</svg>
