<svg width="33" height="36" viewBox="0 0 33 36" fill="none" xmlns="http://www.w3.org/2000/svg">
<path d="M32.0318 10.0246H23.6706C23.1348 10.0246 22.7021 9.60339 22.7021 9.08188V0.942369C22.7021 0.561268 22.937 0.216271 23.2997 0.0718543C23.6623 -0.0725629 24.0785 0.00766885 24.3546 0.276445L32.7159 8.41596C32.992 8.68474 33.0744 9.08991 32.9261 9.44293C32.7777 9.79595 32.4233 10.0246 32.0318 10.0246ZM24.639 8.13916H29.6953L24.639 3.21694V8.13916Z" fill="#494949"/>
<path d="M32.0316 36H0.968407C0.432692 36 0 35.5788 0 35.0573V0.942723C0 0.421217 0.432692 0 0.968407 0H23.6662C23.9217 0 24.169 0.10029 24.3503 0.2768L32.7115 8.41631C32.8929 8.59282 32.9959 8.83352 32.9959 9.08224V35.0573C32.9959 35.5788 32.5632 36 32.0275 36M1.93269 34.1146H31.0591V9.47537L23.2665 1.88545H1.93681V34.1146H1.93269Z" fill="#494949"/>
<path d="M10.7307 19.9213C10.4834 19.9213 10.2362 19.829 10.0466 19.6445L6.8859 16.5676C6.50678 16.1985 6.50678 15.6008 6.8859 15.2357C7.26502 14.8667 7.87904 14.8667 8.25404 15.2357L10.7266 17.6427L15.9477 12.56C16.3268 12.1909 16.9408 12.1909 17.3158 12.56C17.695 12.9291 17.695 13.5268 17.3158 13.8919L11.4106 19.6405C11.2211 19.825 10.9738 19.9173 10.7266 19.9173" fill="#BB0841"/>
<path d="M25.4257 16.0427H20.4806C19.9449 16.0427 19.5122 15.6215 19.5122 15.0999C19.5122 14.5784 19.9449 14.1572 20.4806 14.1572H25.4257C25.9614 14.1572 26.3941 14.5784 26.3941 15.0999C26.3941 15.6215 25.9614 16.0427 25.4257 16.0427Z" fill="#494949"/>
<path d="M25.426 18.9831H17.1842C16.6485 18.9831 16.2158 18.5619 16.2158 18.0404C16.2158 17.5189 16.6485 17.0977 17.1842 17.0977H25.426C25.9617 17.0977 26.3944 17.5189 26.3944 18.0404C26.3944 18.5619 25.9617 18.9831 25.426 18.9831Z" fill="#494949"/>
<path d="M10.7307 30.6166C10.4834 30.6166 10.2362 30.5243 10.0466 30.3398L6.8859 27.2629C6.50678 26.8938 6.50678 26.2961 6.8859 25.931C7.26502 25.562 7.87904 25.562 8.25404 25.931L10.7266 28.338L15.9477 23.2553C16.3268 22.8862 16.9408 22.8862 17.3158 23.2553C17.695 23.6244 17.695 24.2221 17.3158 24.5872L11.4106 30.3358C11.2211 30.5203 10.9738 30.6126 10.7266 30.6126" fill="#BB0841"/>
<path d="M25.4257 26.7409H20.4806C19.9449 26.7409 19.5122 26.3197 19.5122 25.7982C19.5122 25.2767 19.9449 24.8555 20.4806 24.8555H25.4257C25.9614 24.8555 26.3941 25.2767 26.3941 25.7982C26.3941 26.3197 25.9614 26.7409 25.4257 26.7409Z" fill="#494949"/>
<path d="M25.426 29.6813H17.1842C16.6485 29.6813 16.2158 29.2601 16.2158 28.7386C16.2158 28.2171 16.6485 27.7959 17.1842 27.7959H25.426C25.9617 27.7959 26.3944 28.2171 26.3944 28.7386C26.3944 29.2601 25.9617 29.6813 25.426 29.6813Z" fill="#494949"/>
</svg>
