<svg width="15" height="21" viewBox="0 0 15 21" fill="none" xmlns="http://www.w3.org/2000/svg">
<path fill-rule="evenodd" clip-rule="evenodd" d="M13.3157 21C12.8798 17.2006 11.3441 14 7.5 14C3.65588 14 2.12021 17.2006 1.68428 21H0C0.554822 16.2482 2.72457 12.2525 7.5 12.2525C12.2754 12.2525 14.4452 16.2581 15 21H13.3157ZM7.5 10.4951C4.67635 10.4951 2.39762 8.14867 2.39762 5.24264C2.39762 2.33661 4.68626 0 7.5 0C10.3137 0 12.6024 2.34642 12.6024 5.25245C12.6024 8.15849 10.3137 10.5049 7.5 10.5049V10.4951ZM7.5 1.74755C5.61757 1.74755 4.10172 3.31837 4.10172 5.25245C4.10172 7.18654 5.62748 8.75736 7.5 8.75736C9.37252 8.75736 10.8983 7.18654 10.8983 5.25245C10.8983 3.31837 9.37252 1.74755 7.5 1.74755Z" fill="#BB0841"/>
</svg>
