<svg width="22" height="22" viewBox="0 0 22 22" fill="none" xmlns="http://www.w3.org/2000/svg">
<path fill-rule="evenodd" clip-rule="evenodd" d="M16.4872 8.25787C16.4872 3.69482 12.7944 0 8.24359 0C3.69274 0 0 3.70446 0 8.25787C0 12.8113 3.69274 16.5157 8.24359 16.5157C10.1926 16.5157 11.9843 15.838 13.3958 14.7046L20.4308 21.7251C20.7876 22.0917 21.3661 22.0917 21.7324 21.7251C22.0892 21.3681 22.0892 20.7797 21.7324 20.4227L14.6948 13.3996C15.8166 11.9892 16.4872 10.2024 16.4872 8.25787ZM14.6551 8.25794C14.6551 4.70783 11.7819 1.83301 8.24347 1.83301C4.70499 1.83301 1.83179 4.71747 1.83179 8.25794C1.83179 11.7984 4.70499 14.6829 8.24347 14.6829C11.7819 14.6829 14.6551 11.808 14.6551 8.25794Z" fill="white"/>
</svg>
