<svg width="16" height="16" viewBox="0 0 16 16" fill="none" xmlns="http://www.w3.org/2000/svg">
<path d="M13.3909 5.87807H10.3076L11.0042 2.7536C11.0899 2.36792 11.0623 1.96582 10.9246 1.59537C10.7869 1.22491 10.545 0.901761 10.2278 0.664532L9.74806 0.306259C9.57498 0.176469 9.37617 0.0847962 9.16481 0.0373177C8.95346 -0.0101608 8.73438 -0.0123604 8.5221 0.030865C8.30982 0.0740903 8.1092 0.161753 7.93353 0.288041C7.75786 0.41433 7.61115 0.576358 7.50314 0.763386C6.55482 2.48203 5.47428 4.12498 4.2712 5.6775C4.22493 5.57994 4.15188 5.49742 4.06048 5.43948C3.96908 5.38154 3.86308 5.35054 3.75473 5.35008H0.573854C0.421659 5.35008 0.275696 5.41028 0.168078 5.51745C0.0604594 5.62461 0 5.76995 0 5.92149V14.9006C0 15.0522 0.0604594 15.1975 0.168078 15.3047C0.275696 15.4118 0.421659 15.472 0.573854 15.472H3.75645C3.89378 15.471 4.02609 15.4204 4.12878 15.3296C4.23147 15.2388 4.29758 15.114 4.31481 14.9783C4.61159 15.2992 4.97172 15.5555 5.37263 15.7313C5.77354 15.9071 6.20659 15.9986 6.64466 16H9.79512C10.3166 16.0006 10.8302 15.8726 11.29 15.6276C11.7498 15.3825 12.1415 15.0279 12.4303 14.5955L15.5623 9.91735C15.8241 9.52599 15.9743 9.07125 15.997 8.60159C16.0197 8.13192 15.9139 7.66494 15.6911 7.25038C15.4682 6.83583 15.1366 6.48926 14.7315 6.24759C14.3264 6.00591 13.8631 5.8782 13.3909 5.87807ZM3.18259 14.3292H1.14771V6.49233H3.18259V14.3292ZM14.6075 9.28423L11.4754 13.9618C11.2912 14.2374 11.0414 14.4634 10.7482 14.6197C10.455 14.7759 10.1276 14.8575 9.79512 14.8572H6.64466C6.33119 14.8565 6.02215 14.7835 5.74178 14.6439C5.46141 14.5043 5.21733 14.3019 5.02868 14.0526L4.3303 13.1258V7.25745C5.52908 6.25005 7.23573 3.52386 8.49821 1.33251C8.52474 1.28585 8.5611 1.24545 8.60478 1.21409C8.64846 1.18273 8.69843 1.16114 8.75128 1.1508C8.80467 1.13966 8.85984 1.14002 8.91309 1.15184C8.96634 1.16367 9.01643 1.18669 9.06001 1.21937L9.53918 1.57764C9.67992 1.68313 9.78722 1.82671 9.84827 1.99125C9.90932 2.15579 9.92155 2.33434 9.88349 2.50561L9.03304 6.32548C9.01439 6.409 9.01482 6.49563 9.03429 6.57896C9.05377 6.6623 9.09178 6.74022 9.14554 6.80697C9.1993 6.87371 9.26743 6.92759 9.3449 6.96461C9.42236 7.00164 9.50719 7.02087 9.59312 7.02088H13.3926C13.6571 7.02111 13.9167 7.09276 14.1436 7.22822C14.3704 7.36367 14.5562 7.55786 14.681 7.7901C14.8058 8.02234 14.8651 8.28394 14.8524 8.54705C14.8398 8.81016 14.7557 9.06493 14.6092 9.28423H14.6075Z" fill="#BB0841"/>
</svg>
